<svg width="20" height="20" viewBox="0 0 20 20" fill="none" xmlns="http://www.w3.org/2000/svg">
  <path d="M12.0289 9.68745L8.4375 6.03589V9.45308C8.4375 9.51524 8.46219 9.57485 8.50615 9.6188C8.5501 9.66276 8.60971 9.68745 8.67188 9.68745H12.0289Z" fill="currentColor"/>
  <path d="M13.2812 5.9375C13.1569 5.9375 13.0377 5.88811 12.9498 5.80021C12.8619 5.7123 12.8125 5.59307 12.8125 5.46875V0.625H6.71875C6.59443 0.625 6.4752 0.674386 6.38729 0.762294C6.29939 0.850201 6.25 0.96943 6.25 1.09375V4.375H7.89531C8.10532 4.37582 8.3131 4.41814 8.5067 4.49952C8.70031 4.5809 8.87592 4.69974 9.02344 4.84922L13.2875 9.18516C13.585 9.48697 13.7511 9.89417 13.7496 10.318V15.625H17.6562C17.7806 15.625 17.8998 15.5756 17.9877 15.4877C18.0756 15.3998 18.125 15.2806 18.125 15.1562V5.9375H13.2812Z" fill="currentColor"/>
  <path fill-rule="evenodd" clip-rule="evenodd" d="M7.1875 5.62495V10.4687C7.1875 10.593 7.23689 10.7122 7.32479 10.8002C7.4127 10.8881 7.53193 10.9375 7.65625 10.9375H12.5V18.9062C12.5 19.0305 12.4506 19.1497 12.3627 19.2377C12.2748 19.3256 12.1556 19.375 12.0312 19.375H2.34375C2.21943 19.375 2.1002 19.3256 2.01229 19.2377C1.92439 19.1497 1.875 19.0305 1.875 18.9062V6.0937C1.875 5.96938 1.92439 5.85015 2.01229 5.76225C2.1002 5.67434 2.21943 5.62495 2.34375 5.62495H7.1875ZM17.6539 4.68745H14.2969C14.2347 4.68745 14.1751 4.66276 14.1311 4.6188C14.0872 4.57485 14.0625 4.51524 14.0625 4.45308V1.03589L17.6539 4.68745ZM7.00009 12C7.29662 12 7.44504 12 7.56188 12.0456C7.63897 12.0755 7.70906 12.1196 7.76814 12.1754C7.82721 12.2312 7.87409 12.2975 7.90609 12.3705C7.93577 12.4374 7.94714 12.5154 7.95188 12.6294C7.9541 12.7117 7.9783 12.7922 8.02221 12.8632C8.06613 12.9342 8.12831 12.9934 8.20293 13.0353C8.27915 13.0756 8.36485 13.0969 8.45208 13.0973C8.5393 13.0978 8.62522 13.0772 8.70187 13.0377C8.80861 12.9843 8.88598 12.9549 8.9624 12.9453C9.12958 12.9246 9.29863 12.9673 9.43292 13.0641C9.53294 13.1367 9.60665 13.2569 9.75389 13.4971L9.75566 13.5C9.90408 13.7421 9.97797 13.8633 9.99471 13.9815C10.0054 14.0597 9.99982 14.1391 9.9782 14.2153C9.95658 14.2914 9.91937 14.3627 9.86871 14.4252C9.82166 14.4828 9.75566 14.5311 9.65334 14.592C9.50303 14.6808 9.4064 14.8326 9.4064 15C9.4064 15.1674 9.50303 15.3192 9.65366 15.4083C9.75566 15.4689 9.82166 15.5172 9.8684 15.5748C9.91912 15.6372 9.95638 15.7086 9.97805 15.7847C9.99973 15.8608 10.0054 15.9403 9.99471 16.0185C9.97797 16.137 9.90408 16.2579 9.75566 16.5C9.60755 16.7421 9.53334 16.8633 9.43292 16.9359C9.29903 17.0328 9.12977 17.0757 8.9624 17.0547C8.88598 17.0451 8.80861 17.0157 8.70187 16.9623C8.62526 16.9228 8.5394 16.9023 8.45224 16.9027C8.36507 16.9032 8.27943 16.9245 8.20324 16.9647C8.04946 17.0484 7.95819 17.2032 7.95188 17.3706C7.94714 17.4846 7.93577 17.5626 7.90609 17.6295C7.87409 17.7025 7.82721 17.7688 7.76814 17.8246C7.70906 17.8804 7.63897 17.9245 7.56188 17.9544C7.44504 18 7.29662 18 7.00009 18C6.70356 18 6.55514 18 6.4383 17.9544C6.2823 17.8935 6.15851 17.7765 6.09409 17.6295C6.06441 17.5626 6.05304 17.4846 6.0483 17.3706C6.04167 17.2032 5.95073 17.0487 5.79725 16.9647C5.72103 16.9244 5.63533 16.9031 5.5481 16.9027C5.46088 16.9022 5.37496 16.9228 5.29831 16.9623C5.19157 17.0157 5.1142 17.0451 5.03778 17.0547C4.87041 17.0754 4.70115 17.0328 4.56726 16.9359C4.46724 16.8633 4.39353 16.7431 4.2463 16.5029L4.24452 16.5C4.0961 16.2579 4.0222 16.1367 4.00547 16.0185C3.99475 15.9403 4.00036 15.8609 4.02198 15.7847C4.0436 15.7086 4.0808 15.6373 4.13147 15.5748C4.17852 15.5172 4.24452 15.4689 4.34684 15.408C4.49715 15.3192 4.59378 15.1674 4.59378 15C4.59378 14.8326 4.49715 14.6808 4.34652 14.5917C4.24452 14.5311 4.17852 14.4828 4.13178 14.4252C4.02884 14.2989 3.98336 14.1393 4.00547 13.9815C4.0222 13.863 4.0961 13.7421 4.24452 13.5C4.39262 13.2579 4.46684 13.1367 4.56726 13.0641C4.70155 12.9673 4.8706 12.9246 5.03778 12.9453C5.1142 12.9549 5.19157 12.9843 5.29831 13.0377C5.37492 13.0772 5.46078 13.0977 5.54795 13.0973C5.63511 13.0968 5.72075 13.0755 5.79694 13.0353C5.87161 12.9934 5.93386 12.9342 5.97783 12.8632C6.0218 12.7922 6.04605 12.7118 6.0483 12.6294C6.05304 12.5157 6.06441 12.4374 6.09409 12.3705C6.12609 12.2975 6.17297 12.2312 6.23204 12.1754C6.29112 12.1196 6.36121 12.0755 6.4383 12.0456C6.55546 12 6.70356 12 7.00009 12ZM7.95472 15C7.95472 15.4971 7.52746 15.9 7.00009 15.9C6.47304 15.9 6.04546 15.4971 6.04546 15C6.04546 14.5029 6.47304 14.1 7.00009 14.1C7.52714 14.1 7.95472 14.5029 7.95472 15Z" fill="currentColor"/>
</svg>
