<svg width="40" height="30" viewBox="0 0 40 30" fill="none" xmlns="http://www.w3.org/2000/svg">
  <path d="M18.2871 18.4004V20H13.2764V18.4004H18.2871ZM13.9395 10.0469V20H11.8887V10.0469H13.9395ZM24.6445 17.3955C24.6445 17.2178 24.6172 17.0583 24.5625 16.917C24.5124 16.7712 24.4167 16.639 24.2754 16.5205C24.1341 16.3975 23.9359 16.2767 23.6807 16.1582C23.4255 16.0397 23.0951 15.9167 22.6895 15.7891C22.2383 15.6432 21.8099 15.4792 21.4043 15.2969C21.0033 15.1146 20.6478 14.9027 20.3379 14.6611C20.0326 14.415 19.791 14.1302 19.6133 13.8066C19.4401 13.4831 19.3535 13.1071 19.3535 12.6787C19.3535 12.264 19.4447 11.888 19.627 11.5508C19.8092 11.209 20.0645 10.9173 20.3926 10.6758C20.7207 10.4297 21.1081 10.2406 21.5547 10.1084C22.0059 9.97624 22.5003 9.91016 23.0381 9.91016C23.7718 9.91016 24.4121 10.0423 24.959 10.3066C25.5059 10.571 25.9297 10.9333 26.2305 11.3936C26.5358 11.8538 26.6885 12.3802 26.6885 12.9727H24.6514C24.6514 12.681 24.5898 12.4258 24.4668 12.207C24.3483 11.9837 24.166 11.8083 23.9199 11.6807C23.6784 11.5531 23.373 11.4893 23.0039 11.4893C22.6484 11.4893 22.3522 11.5439 22.1152 11.6533C21.8783 11.7581 21.7005 11.9017 21.582 12.084C21.4635 12.2617 21.4043 12.4622 21.4043 12.6855C21.4043 12.8542 21.4453 13.0068 21.5273 13.1436C21.6139 13.2803 21.7415 13.4079 21.9102 13.5264C22.0788 13.6449 22.2861 13.7565 22.5322 13.8613C22.7783 13.9661 23.0632 14.0687 23.3867 14.1689C23.929 14.333 24.4053 14.5176 24.8154 14.7227C25.2301 14.9277 25.5765 15.1579 25.8545 15.4131C26.1325 15.6683 26.3421 15.9577 26.4834 16.2812C26.6247 16.6048 26.6953 16.9717 26.6953 17.3818C26.6953 17.8148 26.611 18.2021 26.4424 18.5439C26.2738 18.8857 26.0299 19.1751 25.7109 19.4121C25.3919 19.6491 25.0114 19.8291 24.5693 19.9521C24.1273 20.0752 23.6328 20.1367 23.0859 20.1367C22.5938 20.1367 22.1084 20.0729 21.6299 19.9453C21.1514 19.8132 20.7161 19.6149 20.3242 19.3506C19.9368 19.0863 19.627 18.749 19.3945 18.3389C19.1621 17.9287 19.0459 17.4434 19.0459 16.8828H21.1035C21.1035 17.1927 21.1514 17.4548 21.2471 17.6689C21.3428 17.8831 21.4772 18.0563 21.6504 18.1885C21.8281 18.3206 22.0378 18.4163 22.2793 18.4756C22.5254 18.5348 22.7943 18.5645 23.0859 18.5645C23.4414 18.5645 23.7331 18.5143 23.9609 18.4141C24.1934 18.3138 24.3643 18.1748 24.4736 17.9971C24.5876 17.8193 24.6445 17.6188 24.6445 17.3955Z" fill="currentColor"/>
</svg>
