<svg width="20" height="20" viewBox="0 0 20 20" fill="none" xmlns="http://www.w3.org/2000/svg">
  <path d="M12.0289 9.68745L8.4375 6.03589V9.45308C8.4375 9.51524 8.46219 9.57485 8.50615 9.6188C8.5501 9.66276 8.60971 9.68745 8.67188 9.68745H12.0289Z" fill="currentColor"/>
  <path d="M7.1875 10.4687V5.62495H2.34375C2.21943 5.62495 2.1002 5.67434 2.01229 5.76225C1.92439 5.85015 1.875 5.96938 1.875 6.0937V18.9062C1.875 19.0305 1.92439 19.1497 2.01229 19.2377C2.1002 19.3256 2.21943 19.375 2.34375 19.375H12.0312C12.1556 19.375 12.2748 19.3256 12.3627 19.2377C12.4506 19.1497 12.5 19.0305 12.5 18.9062V10.9375H7.65625C7.53193 10.9375 7.4127 10.8881 7.32479 10.8002C7.23689 10.7122 7.1875 10.593 7.1875 10.4687ZM14.2969 4.68745H17.6539L14.0625 1.03589V4.45308C14.0625 4.51524 14.0872 4.57485 14.1311 4.6188C14.1751 4.66276 14.2347 4.68745 14.2969 4.68745Z" fill="currentColor"/>
  <path d="M13.2812 5.9375C13.1569 5.9375 13.0377 5.88811 12.9498 5.80021C12.8619 5.7123 12.8125 5.59307 12.8125 5.46875V0.625H6.71875C6.59443 0.625 6.4752 0.674386 6.38729 0.762294C6.29939 0.850201 6.25 0.96943 6.25 1.09375V4.375H7.89531C8.10532 4.37582 8.3131 4.41814 8.5067 4.49952C8.70031 4.5809 8.87592 4.69974 9.02344 4.84922L13.2875 9.18516C13.585 9.48697 13.7511 9.89417 13.7496 10.318V15.625H17.6562C17.7806 15.625 17.8998 15.5756 17.9877 15.4877C18.0756 15.3998 18.125 15.2806 18.125 15.1562V5.9375H13.2812Z" fill="currentColor"/>
</svg>
