<svg width="20" height="20" viewBox="0 0 20 20" fill="none" xmlns="http://www.w3.org/2000/svg">
  <path d="M12.0833 19.1667C11.7361 19.1667 11.4411 19.0453 11.1983 18.8025C10.9555 18.5598 10.8339 18.2645 10.8333 17.9167V12.0834C10.8333 11.7362 10.955 11.4412 11.1983 11.1984C11.4417 10.9556 11.7367 10.8339 12.0833 10.8334H17.9167C18.2639 10.8334 18.5592 10.955 18.8025 11.1984C19.0458 11.4417 19.1672 11.7367 19.1667 12.0834V17.9167C19.1667 18.2639 19.0453 18.5592 18.8025 18.8025C18.5597 19.0459 18.2644 19.1673 17.9167 19.1667H12.0833ZM8.39582 18.3334C8.18748 18.3334 8.01748 18.2742 7.88582 18.1559C7.75415 18.0375 7.67415 17.8884 7.64582 17.7084L7.37498 15.7084C7.19443 15.6389 7.02443 15.5556 6.86498 15.4584C6.70554 15.3612 6.54915 15.257 6.39582 15.1459L5.10415 15.6875C4.75693 15.8403 4.40971 15.8542 4.06248 15.7292C3.71526 15.6042 3.44443 15.382 3.24998 15.0625L2.27082 13.3542C2.07637 13.0348 2.02082 12.6945 2.10415 12.3334C2.18748 11.9723 2.37498 11.6737 2.66665 11.4375L3.77082 10.6042C3.75693 10.507 3.74998 10.4134 3.74998 10.3234V9.76004C3.74998 9.67004 3.75693 9.57643 3.77082 9.47921L2.66665 8.64587C2.37498 8.40976 2.18748 8.11115 2.10415 7.75004C2.02082 7.38893 2.07637 7.04865 2.27082 6.72921L3.24998 5.02087C3.44443 4.70143 3.71526 4.47921 4.06248 4.35421C4.40971 4.22921 4.75693 4.2431 5.10415 4.39587L6.39582 4.93754C6.5486 4.82643 6.70832 4.72226 6.87498 4.62504C7.04165 4.52782 7.20832 4.44449 7.37498 4.37504L7.56248 3.00004C7.61804 2.63893 7.78137 2.33337 8.05248 2.08337C8.3236 1.83337 8.64637 1.70837 9.02082 1.70837H10.9792C11.3542 1.70837 11.6772 1.83337 11.9483 2.08337C12.2194 2.33337 12.3825 2.63893 12.4375 3.00004L12.625 4.37504C12.8055 4.44449 12.9758 4.52782 13.1358 4.62504C13.2958 4.72226 13.4519 4.82643 13.6042 4.93754L14.8958 4.39587C15.243 4.2431 15.5903 4.22921 15.9375 4.35421C16.2847 4.47921 16.5555 4.70143 16.75 5.02087L17.7292 6.72921C17.9236 7.04865 17.9792 7.38893 17.8958 7.75004C17.8125 8.11115 17.625 8.40976 17.3333 8.64587L16.8125 9.02087C16.743 9.07643 16.6667 9.11476 16.5833 9.13587C16.5 9.15699 16.4167 9.16726 16.3333 9.16671H13.1042C13.0208 9.16671 12.9444 9.13893 12.875 9.08337C12.8055 9.02782 12.7569 8.96532 12.7291 8.89587C12.5069 8.3681 12.1561 7.93421 11.6767 7.59421C11.1972 7.25421 10.6522 7.08393 10.0417 7.08337C9.23609 7.08337 8.54859 7.3681 7.97915 7.93754C7.40971 8.50699 7.12498 9.19449 7.12498 10C7.12498 10.6112 7.28832 11.1564 7.61498 11.6359C7.94165 12.1153 8.3686 12.4659 8.89582 12.6875C8.96526 12.7153 9.02776 12.7639 9.08332 12.8334C9.13887 12.9028 9.16665 12.9792 9.16665 13.0625V17.625C9.16665 17.8195 9.09387 17.9862 8.94832 18.125C8.80276 18.2639 8.6186 18.3334 8.39582 18.3334ZM15 15.8334C14.6528 15.8334 14.3125 15.8787 13.9791 15.9692C13.6458 16.0598 13.3333 16.202 13.0416 16.3959C12.8611 16.507 12.7255 16.625 12.635 16.75C12.5444 16.875 12.4994 17.007 12.5 17.1459C12.5 17.2431 12.5347 17.3264 12.6042 17.3959C12.6736 17.4653 12.7569 17.5 12.8542 17.5H17.2292C17.2986 17.5 17.3611 17.4653 17.4167 17.3959C17.4722 17.3264 17.5 17.2431 17.5 17.1459C17.5 17.007 17.455 16.875 17.365 16.75C17.275 16.625 17.1394 16.507 16.9583 16.3959C16.6667 16.2014 16.3542 16.0589 16.0208 15.9684C15.6875 15.8778 15.3472 15.8328 15 15.8334ZM15 15C15.3472 15 15.6425 14.8787 15.8858 14.6359C16.1292 14.3931 16.2505 14.0978 16.25 13.75C16.2494 13.4023 16.128 13.1073 15.8858 12.865C15.6436 12.6228 15.3483 12.5012 15 12.5C14.6517 12.4989 14.3567 12.6206 14.115 12.865C13.8733 13.1095 13.7517 13.4045 13.75 13.75C13.7483 14.0956 13.87 14.3909 14.115 14.6359C14.36 14.8809 14.655 15.0023 15 15Z" fill="currentColor"/>
</svg>
