<svg width="40" height="30" viewBox="0 0 40 30" fill="none" xmlns="http://www.w3.org/2000/svg">
  <path d="M5.8252 10.0469H7.56152L10.1182 17.3545L12.6748 10.0469H14.4111L10.8154 20H9.4209L5.8252 10.0469ZM4.88867 10.0469H6.61816L6.93262 17.1699V20H4.88867V10.0469ZM13.6182 10.0469H15.3545V20H13.3037V17.1699L13.6182 10.0469ZM22.9219 16.6982H24.9658C24.9248 17.3682 24.7402 17.9629 24.4121 18.4824C24.0885 19.002 23.6351 19.4076 23.0518 19.6992C22.473 19.9909 21.7757 20.1367 20.96 20.1367C20.3219 20.1367 19.75 20.0273 19.2441 19.8086C18.7383 19.5853 18.3053 19.2663 17.9453 18.8516C17.5898 18.4368 17.3187 17.9355 17.1318 17.3477C16.945 16.7598 16.8516 16.1012 16.8516 15.3721V14.6816C16.8516 13.9525 16.9473 13.2939 17.1387 12.7061C17.3346 12.1136 17.6126 11.61 17.9727 11.1953C18.3372 10.7806 18.7725 10.4616 19.2783 10.2383C19.7842 10.015 20.3493 9.90332 20.9736 9.90332C21.8031 9.90332 22.5026 10.0537 23.0723 10.3545C23.6465 10.6553 24.0908 11.07 24.4053 11.5986C24.7243 12.1273 24.9157 12.7288 24.9795 13.4033H22.9287C22.9059 13.0023 22.8262 12.6628 22.6895 12.3848C22.5527 12.1022 22.3454 11.8903 22.0674 11.749C21.7939 11.6032 21.4294 11.5303 20.9736 11.5303C20.6318 11.5303 20.3333 11.5941 20.0781 11.7217C19.8229 11.8493 19.6087 12.043 19.4355 12.3027C19.2624 12.5625 19.1325 12.8906 19.0459 13.2871C18.9639 13.679 18.9229 14.1393 18.9229 14.668V15.3721C18.9229 15.887 18.9616 16.3405 19.0391 16.7324C19.1165 17.1198 19.235 17.4479 19.3945 17.7168C19.5586 17.9811 19.7682 18.1816 20.0234 18.3184C20.2832 18.4505 20.5954 18.5166 20.96 18.5166C21.3883 18.5166 21.7415 18.4482 22.0195 18.3115C22.2975 18.1748 22.5094 17.972 22.6553 17.7031C22.8057 17.4342 22.8945 17.0993 22.9219 16.6982ZM30.3594 11.749L27.6523 20H25.4717L29.1699 10.0469H30.5576L30.3594 11.749ZM32.6084 20L29.8945 11.749L29.6758 10.0469H31.0771L34.7959 20H32.6084ZM32.4854 16.2949V17.9014H27.2285V16.2949H32.4854Z" fill="currentColor"/>
</svg>
