<svg width="40" height="30" viewBox="0 0 40 30" fill="none" xmlns="http://www.w3.org/2000/svg">
  <path d="M11.3389 10.0469V20H9.29492V10.0469H11.3389ZM14.4014 10.0469V11.6533H6.28027V10.0469H14.4014ZM21.1484 16.6982H23.1924C23.1514 17.3682 22.9668 17.9629 22.6387 18.4824C22.3151 19.002 21.8617 19.4076 21.2783 19.6992C20.6995 19.9909 20.0023 20.1367 19.1865 20.1367C18.5485 20.1367 17.9766 20.0273 17.4707 19.8086C16.9648 19.5853 16.5319 19.2663 16.1719 18.8516C15.8164 18.4368 15.5452 17.9355 15.3584 17.3477C15.1715 16.7598 15.0781 16.1012 15.0781 15.3721V14.6816C15.0781 13.9525 15.1738 13.2939 15.3652 12.7061C15.5612 12.1136 15.8392 11.61 16.1992 11.1953C16.5638 10.7806 16.999 10.4616 17.5049 10.2383C18.0107 10.015 18.5758 9.90332 19.2002 9.90332C20.0296 9.90332 20.7292 10.0537 21.2988 10.3545C21.873 10.6553 22.3174 11.07 22.6318 11.5986C22.9508 12.1273 23.1423 12.7288 23.2061 13.4033H21.1553C21.1325 13.0023 21.0527 12.6628 20.916 12.3848C20.7793 12.1022 20.5719 11.8903 20.2939 11.749C20.0205 11.6032 19.6559 11.5303 19.2002 11.5303C18.8584 11.5303 18.5599 11.5941 18.3047 11.7217C18.0495 11.8493 17.8353 12.043 17.6621 12.3027C17.4889 12.5625 17.359 12.8906 17.2725 13.2871C17.1904 13.679 17.1494 14.1393 17.1494 14.668V15.3721C17.1494 15.887 17.1882 16.3405 17.2656 16.7324C17.3431 17.1198 17.4616 17.4479 17.6211 17.7168C17.7852 17.9811 17.9948 18.1816 18.25 18.3184C18.5098 18.4505 18.8219 18.5166 19.1865 18.5166C19.6149 18.5166 19.9681 18.4482 20.2461 18.3115C20.5241 18.1748 20.736 17.972 20.8818 17.7031C21.0322 17.4342 21.1211 17.0993 21.1484 16.6982ZM28.5859 11.749L25.8789 20H23.6982L27.3965 10.0469H28.7842L28.5859 11.749ZM30.835 20L28.1211 11.749L27.9023 10.0469H29.3037L33.0225 20H30.835ZM30.7119 16.2949V17.9014H25.4551V16.2949H30.7119Z" fill="currentColor"/>
</svg>
