<svg width="20" height="20" viewBox="0 0 20 20" fill="none" xmlns="http://www.w3.org/2000/svg">
  <path d="M12.0289 9.68672L8.4375 6.03516V9.45234C8.4375 9.5145 8.46219 9.57412 8.50615 9.61807C8.5501 9.66203 8.60971 9.68672 8.67188 9.68672H12.0289Z" fill="currentColor"/>
  <path d="M7.1875 10.468V5.62422H2.34375C2.21943 5.62422 2.1002 5.6736 2.01229 5.76151C1.92439 5.84942 1.875 5.96865 1.875 6.09297V18.9055C1.875 19.0298 1.92439 19.149 2.01229 19.2369C2.1002 19.3248 2.21943 19.3742 2.34375 19.3742H12.0312C12.1556 19.3742 12.2748 19.3248 12.3627 19.2369C12.4506 19.149 12.5 19.0298 12.5 18.9055V10.9367H7.65625C7.53193 10.9367 7.4127 10.8873 7.32479 10.7994C7.23689 10.7115 7.1875 10.5923 7.1875 10.468ZM14.2969 4.68672H17.6539L14.0625 1.03516V4.45234C14.0625 4.5145 14.0872 4.57412 14.1311 4.61807C14.1751 4.66203 14.2347 4.68672 14.2969 4.68672Z" fill="currentColor"/>
  <path d="M13.2812 5.9375C13.1569 5.9375 13.0377 5.88811 12.9498 5.80021C12.8619 5.7123 12.8125 5.59307 12.8125 5.46875V0.625H6.71875C6.59443 0.625 6.4752 0.674386 6.38729 0.762294C6.29939 0.850201 6.25 0.96943 6.25 1.09375V4.375H7.89531C8.10532 4.37582 8.3131 4.41814 8.5067 4.49952C8.70031 4.5809 8.87592 4.69974 9.02344 4.84922L13.2875 9.18516C13.585 9.48697 13.7511 9.89417 13.7496 10.318V15.625H17.6562C17.7806 15.625 17.8998 15.5756 17.9877 15.4877C18.0756 15.3998 18.125 15.2806 18.125 15.1562V5.9375H13.2812Z" fill="currentColor"/>
</svg>