<svg width="20" height="20" viewBox="0 0 20 20" fill="none" xmlns="http://www.w3.org/2000/svg">
<g clip-path="url(#clip0_75_1691)">
<path d="M17.7778 2.77734H2.2222C1.92751 2.77734 1.64489 2.89441 1.43652 3.10278C1.22815 3.31115 1.11108 3.59377 1.11108 3.88845V16.1107C1.11108 16.4054 1.22815 16.688 1.43652 16.8964C1.64489 17.1047 1.92751 17.2218 2.2222 17.2218H17.7778C18.0724 17.2218 18.3551 17.1047 18.5634 16.8964C18.7718 16.688 18.8889 16.4054 18.8889 16.1107V3.88845C18.8889 3.59377 18.7718 3.31115 18.5634 3.10278C18.3551 2.89441 18.0724 2.77734 17.7778 2.77734ZM12.5333 14.4107L8.58886 8.5329L5.06664 13.6885L2.56664 11.4662L3.33331 10.5829L4.83331 11.9107L8.58886 6.42179L12.5833 12.3718L16.4722 7.22179L17.4166 7.9329L12.5333 14.4107Z" fill="currentColor"/>
</g>
<defs>
<clipPath id="clip0_75_1691">
<rect width="20" height="20" fill="none"/>
</clipPath>
</defs>
</svg>
