<?xml version="1.0" encoding="UTF-8"?>
<svg version="1.1" xmlns="http://www.w3.org/2000/svg" width="600" height="80">
<path d="M0 0 C198 0 396 0 600 0 C600 26.4 600 52.8 600 80 C402 80 204 80 0 80 C0 53.6 0 27.2 0 0 Z " fill="#FEFEFE" transform="translate(0,0)"/>
<path d="M0 0 C4.29 0 8.58 0 13 0 C13.33 0.99 13.66 1.98 14 3 C15.8653245 4.01754868 15.8653245 4.01754868 18.0625 4.6875 C18.79597656 4.93886719 19.52945313 5.19023438 20.28515625 5.44921875 C20.85105469 5.63097656 21.41695312 5.81273437 22 6 C21.67 7.051875 21.34 8.10375 21 9.1875 C19.89206761 13.41149222 19.49565804 16.31886014 20.75 20.5 C21 23 21 23 19.48828125 25.6328125 C17 28 17 28 13.43359375 28.5234375 C12.11488281 28.47445312 10.79617188 28.42546875 9.4375 28.375 C8.76525391 28.36082031 8.09300781 28.34664062 7.40039062 28.33203125 C4.36716207 28.24166694 1.89257546 27.96419182 -1 27 C-2.31640625 24.0859375 -2.31640625 24.0859375 -3.5625 20.375 C-3.97628906 19.16585937 -4.39007812 17.95671875 -4.81640625 16.7109375 C-5.95049171 13.155224 -6.99745558 9.59437586 -8 6 C-5.09399739 4.74335022 -3.20395416 4 0 4 C0 2.68 0 1.36 0 0 Z " fill="#DEE4DE" transform="translate(521,43)"/>
<path d="M0 0 C4.29 0 8.58 0 13 0 C13.33 0.99 13.66 1.98 14 3 C15.8653245 4.01754868 15.8653245 4.01754868 18.0625 4.6875 C18.79597656 4.93886719 19.52945313 5.19023437 20.28515625 5.44921875 C20.85105469 5.63097656 21.41695312 5.81273437 22 6 C21.67 7.051875 21.34 8.10375 21 9.1875 C19.89206761 13.41149222 19.49565804 16.31886014 20.75 20.5 C21 23 21 23 19.48828125 25.6328125 C17 28 17 28 13.43359375 28.5234375 C12.11488281 28.47445312 10.79617187 28.42546875 9.4375 28.375 C8.76525391 28.36082031 8.09300781 28.34664062 7.40039062 28.33203125 C4.36716207 28.24166694 1.89257546 27.96419182 -1 27 C-2.31640625 24.0859375 -2.31640625 24.0859375 -3.5625 20.375 C-3.97628906 19.16585938 -4.39007813 17.95671875 -4.81640625 16.7109375 C-5.95049171 13.155224 -6.99745558 9.59437586 -8 6 C-5.09399739 4.74335022 -3.20395416 4 0 4 C0 2.68 0 1.36 0 0 Z " fill="#DEE4DE" transform="translate(219,9)"/>
<path d="M0 0 C4.95 0 9.9 0 15 0 C15 4.95 15 9.9 15 15 C10.05 15 5.1 15 0 15 C0 10.05 0 5.1 0 0 Z " fill="#DEE3E0" transform="translate(319,49)"/>
<path d="M0 0 C4.95 0 9.9 0 15 0 C15 4.95 15 9.9 15 15 C10.05 15 5.1 15 0 15 C0 10.05 0 5.1 0 0 Z " fill="#DEE3E0" transform="translate(17,15)"/>
<path d="M0 0 C1.65 0.33 3.3 0.66 5 1 C5 2.32 5 3.64 5 5 C6.65614657 5.38218767 8.32457024 5.71395102 10 6 C10.33 5.67 10.66 5.34 11 5 C13 5 15 5 17 5 C17.66 4.67 18.32 4.34 19 4 C20.70401547 6.60614131 21.00613718 7.89975932 20.8125 11.0625 C19.93544148 14.23340388 19.66461944 15.1660514 17 17 C14.35003674 17.2172101 11.94923442 17.28351554 9.3125 17.1875 C8.61060547 17.17396484 7.90871094 17.16042969 7.18554688 17.14648438 C5.45670171 17.11120182 3.72825235 17.05739583 2 17 C2.33 13.37 2.66 9.74 3 6 C1.68 5.67 0.36 5.34 -1 5 C-0.67 3.35 -0.34 1.7 0 0 Z " fill="#EFE7DC" transform="translate(521,54)"/>
<path d="M0 0 C1.65 0.33 3.3 0.66 5 1 C5 2.32 5 3.64 5 5 C6.65614657 5.38218767 8.32457024 5.71395102 10 6 C10.33 5.67 10.66 5.34 11 5 C13 5 15 5 17 5 C17.66 4.67 18.32 4.34 19 4 C20.70401547 6.60614131 21.00613718 7.89975932 20.8125 11.0625 C19.93544148 14.23340388 19.66461944 15.1660514 17 17 C14.35003674 17.2172101 11.94923442 17.28351554 9.3125 17.1875 C8.61060547 17.17396484 7.90871094 17.16042969 7.18554688 17.14648438 C5.45670171 17.11120182 3.72825235 17.05739583 2 17 C2.33 13.37 2.66 9.74 3 6 C1.68 5.67 0.36 5.34 -1 5 C-0.67 3.35 -0.34 1.7 0 0 Z " fill="#EFE7DC" transform="translate(219,20)"/>
<path d="M0 0 C0.33 1.32 0.66 2.64 1 4 C-1.64 3.67 -4.28 3.34 -7 3 C-5.37633534 6.24732932 -2.24612161 6.70155136 1 8 C1.125 10.375 1.125 10.375 1 13 C-1 15 -1 15 -3.1640625 15.1953125 C-4.38222656 15.16050781 -4.38222656 15.16050781 -5.625 15.125 C-6.44226563 15.10695313 -7.25953125 15.08890625 -8.1015625 15.0703125 C-8.72804688 15.04710938 -9.35453125 15.02390625 -10 15 C-10.33 13.68 -10.66 12.36 -11 11 C-8.36 11.33 -5.72 11.66 -3 12 C-3 11.34 -3 10.68 -3 10 C-3.763125 9.87625 -4.52625 9.7525 -5.3125 9.625 C-8 9 -8 9 -11 7 C-10.6875 4.625 -10.6875 4.625 -10 2 C-6.3558226 -0.4294516 -4.28758728 -0.16179575 0 0 Z " fill="#DDE3E0" transform="translate(581,49)"/>
<path d="M0 0 C0.33 1.32 0.66 2.64 1 4 C-1.64 3.67 -4.28 3.34 -7 3 C-5.37633534 6.24732932 -2.24612161 6.70155136 1 8 C1.125 10.375 1.125 10.375 1 13 C-1 15 -1 15 -3.1640625 15.1953125 C-4.38222656 15.16050781 -4.38222656 15.16050781 -5.625 15.125 C-6.44226563 15.10695313 -7.25953125 15.08890625 -8.1015625 15.0703125 C-8.72804688 15.04710937 -9.35453125 15.02390625 -10 15 C-10.33 13.68 -10.66 12.36 -11 11 C-8.36 11.33 -5.72 11.66 -3 12 C-3 11.34 -3 10.68 -3 10 C-3.763125 9.87625 -4.52625 9.7525 -5.3125 9.625 C-8 9 -8 9 -11 7 C-10.6875 4.625 -10.6875 4.625 -10 2 C-6.3558226 -0.4294516 -4.28758728 -0.16179575 0 0 Z " fill="#DDE3E0" transform="translate(279,15)"/>
<path d="M0 0 C0.99 0 1.98 0 3 0 C3 1.98 3 3.96 3 6 C5.31 6 7.62 6 10 6 C10 4.02 10 2.04 10 0 C11.32 0 12.64 0 14 0 C14 4.95 14 9.9 14 15 C12.68 15 11.36 15 10 15 C10 12.69 10 10.38 10 8 C7.69 8 5.38 8 3 8 C3 10.31 3 12.62 3 15 C2.01 15 1.02 15 0 15 C0 10.05 0 5.1 0 0 Z " fill="#E0E5E3" transform="translate(469,49)"/>
<path d="M0 0 C0.99 0 1.98 0 3 0 C3 1.98 3 3.96 3 6 C5.31 6 7.62 6 10 6 C10 4.02 10 2.04 10 0 C11.32 0 12.64 0 14 0 C14 4.95 14 9.9 14 15 C12.68 15 11.36 15 10 15 C10 12.69 10 10.38 10 8 C7.69 8 5.38 8 3 8 C3 10.31 3 12.62 3 15 C2.01 15 1.02 15 0 15 C0 10.05 0 5.1 0 0 Z " fill="#E0E5E3" transform="translate(167,15)"/>
<path d="M0 0 C6.93359375 -0.09765625 6.93359375 -0.09765625 9 0 C10 1 10 1 10.3125 3.375 C10 6 10 6 8.1875 7.8125 C6 9 6 9 3 9 C3 10.98 3 12.96 3 15 C2.01 15 1.02 15 0 15 C0 10.05 0 5.1 0 0 Z " fill="#DDE3E0" transform="translate(399,49)"/>
<path d="M0 0 C6.93359375 -0.09765625 6.93359375 -0.09765625 9 0 C10 1 10 1 10.3125 3.375 C10 6 10 6 8.1875 7.8125 C6 9 6 9 3 9 C3 10.98 3 12.96 3 15 C2.01 15 1.02 15 0 15 C0 10.05 0 5.1 0 0 Z " fill="#DDE3E0" transform="translate(97,15)"/>
<path d="M0 0 C3 1 3 1 4.38671875 3.3984375 C4.81597656 4.38070312 5.24523437 5.36296875 5.6875 6.375 C6.34298828 7.84066406 6.34298828 7.84066406 7.01171875 9.3359375 C8 12 8 12 8 15 C6.68 15 5.36 15 4 15 C3.67 14.01 3.34 13.02 3 12 C0.03 11.505 0.03 11.505 -3 11 C-3 12.32 -3 13.64 -3 15 C-3.99 14.67 -4.98 14.34 -6 14 C-5.19074658 11.85294019 -4.37750887 9.7073817 -3.5625 7.5625 C-3.11003906 6.36753906 -2.65757812 5.17257813 -2.19140625 3.94140625 C-1 1 -1 1 0 0 Z " fill="#E2E7E4" transform="translate(388,49)"/>
<path d="M0 0 C3 1 3 1 4.38671875 3.3984375 C4.81597656 4.38070313 5.24523437 5.36296875 5.6875 6.375 C6.34298828 7.84066406 6.34298828 7.84066406 7.01171875 9.3359375 C8 12 8 12 8 15 C6.68 15 5.36 15 4 15 C3.67 14.01 3.34 13.02 3 12 C0.03 11.505 0.03 11.505 -3 11 C-3 12.32 -3 13.64 -3 15 C-3.99 14.67 -4.98 14.34 -6 14 C-5.19074658 11.85294019 -4.37750887 9.7073817 -3.5625 7.5625 C-3.11003906 6.36753906 -2.65757813 5.17257813 -2.19140625 3.94140625 C-1 1 -1 1 0 0 Z " fill="#E2E7E4" transform="translate(86,15)"/>
<path d="M0 0 C0.99 0 1.98 0 3 0 C3.33 1.65 3.66 3.3 4 5 C5.32 3.35 6.64 1.7 8 0 C8.99 0.33 9.98 0.66 11 1 C9.68 2.32 8.36 3.64 7 5 C7.28875 5.721875 7.5775 6.44375 7.875 7.1875 C8.91666667 9.79166667 9.95833333 12.39583333 11 15 C9.68 15 8.36 15 7 15 C5.25 12.5 5.25 12.5 4 10 C3.67 11.65 3.34 13.3 3 15 C2.01 15 1.02 15 0 15 C0 10.05 0 5.1 0 0 Z " fill="#DCE2DF" transform="translate(487,49)"/>
<path d="M0 0 C0.99 0 1.98 0 3 0 C3.33 1.65 3.66 3.3 4 5 C5.32 3.35 6.64 1.7 8 0 C8.99 0.33 9.98 0.66 11 1 C9.68 2.32 8.36 3.64 7 5 C7.28875 5.721875 7.5775 6.44375 7.875 7.1875 C8.91666667 9.79166667 9.95833333 12.39583333 11 15 C9.68 15 8.36 15 7 15 C5.25 12.5 5.25 12.5 4 10 C3.67 11.65 3.34 13.3 3 15 C2.01 15 1.02 15 0 15 C0 10.05 0 5.1 0 0 Z " fill="#DCE2DF" transform="translate(185,15)"/>
<path d="M0 0 C3.3 0 6.6 0 10 0 C10 0.33 10 0.66 10 1 C7.69 1 5.38 1 3 1 C3 5.29 3 9.58 3 14 C3.99 13.67 4.98 13.34 6 13 C6 11.02 6 9.04 6 7 C7.65 7.33 9.3 7.66 11 8 C11.125 10.375 11.125 10.375 11 13 C9 15 9 15 6.8359375 15.1953125 C4.55729167 15.13020833 2.27864583 15.06510417 0 15 C0 10.05 0 5.1 0 0 Z " fill="#DDE2DF" transform="translate(440,49)"/>
<path d="M0 0 C3.3 0 6.6 0 10 0 C10 0.33 10 0.66 10 1 C7.69 1 5.38 1 3 1 C3 5.29 3 9.58 3 14 C3.99 13.67 4.98 13.34 6 13 C6 11.02 6 9.04 6 7 C7.65 7.33 9.3 7.66 11 8 C11.125 10.375 11.125 10.375 11 13 C9 15 9 15 6.8359375 15.1953125 C4.55729167 15.13020833 2.27864583 15.06510417 0 15 C0 10.05 0 5.1 0 0 Z " fill="#DDE2DF" transform="translate(138,15)"/>
<path d="M0 0 C0.90105469 0.02707031 1.80210937 0.05414063 2.73046875 0.08203125 C3.76107422 0.13423828 3.76107422 0.13423828 4.8125 0.1875 C4.4825 1.1775 4.1525 2.1675 3.8125 3.1875 C3.4825 2.8575 3.1525 2.5275 2.8125 2.1875 C1.14632885 2.14686168 -0.52138095 2.144779 -2.1875 2.1875 C-3.95834117 4.89584531 -4.19802504 6.08014459 -3.875 9.375 C-3.47274717 12.07524554 -3.47274717 12.07524554 -2.1875 13.1875 C0.14547433 13.22842937 2.47955225 13.22991723 4.8125 13.1875 C4.8125 13.8475 4.8125 14.5075 4.8125 15.1875 C1.63371306 16.77689347 -0.6831772 16.60326711 -4.1875 16.1875 C-7.1875 13.625 -7.1875 13.625 -9.1875 10.1875 C-9.1875 6.66806295 -9.05160842 4.37053803 -6.94921875 1.4921875 C-4.54848153 -0.28574206 -2.95153792 -0.11499498 0 0 Z " fill="#E1E6E3" transform="translate(432.1875,48.8125)"/>
<path d="M0 0 C2.97 0 5.94 0 9 0 C9 0.99 9 1.98 9 3 C8.01 3 7.02 3 6 3 C6 6.3 6 9.6 6 13 C6.66 13 7.32 13 8 13 C8 13.66 8 14.32 8 15 C5.36 15 2.72 15 0 15 C0 14.01 0 13.02 0 12 C0.66 12 1.32 12 2 12 C2 9.03 2 6.06 2 3 C1.34 3 0.68 3 0 3 C0 2.01 0 1.02 0 0 Z " fill="#DFE4E1" transform="translate(559,49)"/>
<path d="M0 0 C2.97 0 5.94 0 9 0 C9 0.99 9 1.98 9 3 C8.01 3 7.02 3 6 3 C6 6.3 6 9.6 6 13 C6.66 13 7.32 13 8 13 C8 13.66 8 14.32 8 15 C5.36 15 2.72 15 0 15 C0 14.01 0 13.02 0 12 C0.66 12 1.32 12 2 12 C2 9.03 2 6.06 2 3 C1.34 3 0.68 3 0 3 C0 2.01 0 1.02 0 0 Z " fill="#DFE4E1" transform="translate(548,49)"/>
<path d="M0 0 C0.90105469 0.02707031 1.80210937 0.05414063 2.73046875 0.08203125 C3.76107422 0.13423828 3.76107422 0.13423828 4.8125 0.1875 C4.4825 1.1775 4.1525 2.1675 3.8125 3.1875 C3.4825 2.8575 3.1525 2.5275 2.8125 2.1875 C1.14632885 2.14686168 -0.52138095 2.144779 -2.1875 2.1875 C-3.95834117 4.89584531 -4.19802504 6.08014459 -3.875 9.375 C-3.47274717 12.07524554 -3.47274717 12.07524554 -2.1875 13.1875 C0.14547433 13.22842937 2.47955225 13.22991723 4.8125 13.1875 C4.8125 13.8475 4.8125 14.5075 4.8125 15.1875 C1.63371306 16.77689347 -0.6831772 16.60326711 -4.1875 16.1875 C-7.1875 13.625 -7.1875 13.625 -9.1875 10.1875 C-9.1875 6.66806295 -9.05160842 4.37053803 -6.94921875 1.4921875 C-4.54848153 -0.28574206 -2.95153792 -0.11499498 0 0 Z " fill="#E1E6E3" transform="translate(130.1875,14.8125)"/>
<path d="M0 0 C2.97 0 5.94 0 9 0 C9 0.99 9 1.98 9 3 C8.01 3 7.02 3 6 3 C6 6.3 6 9.6 6 13 C6.66 13 7.32 13 8 13 C8 13.66 8 14.32 8 15 C5.36 15 2.72 15 0 15 C0 14.01 0 13.02 0 12 C0.66 12 1.32 12 2 12 C2 9.03 2 6.06 2 3 C1.34 3 0.68 3 0 3 C0 2.01 0 1.02 0 0 Z " fill="#DFE4E1" transform="translate(257,15)"/>
<path d="M0 0 C2.97 0 5.94 0 9 0 C9 0.99 9 1.98 9 3 C8.01 3 7.02 3 6 3 C6 6.3 6 9.6 6 13 C6.66 13 7.32 13 8 13 C8 13.66 8 14.32 8 15 C5.36 15 2.72 15 0 15 C0 14.01 0 13.02 0 12 C0.66 12 1.32 12 2 12 C2 9.03 2 6.06 2 3 C1.34 3 0.68 3 0 3 C0 2.01 0 1.02 0 0 Z " fill="#DFE4E1" transform="translate(246,15)"/>
<path d="M0 0 C3.3 0 6.6 0 10 0 C10 0.33 10 0.66 10 1 C7.69 1 5.38 1 3 1 C3 5.29 3 9.58 3 14 C3.99 13.67 4.98 13.34 6 13 C6 11.02 6 9.04 6 7 C7.32 7.33 8.64 7.66 10 8 C10.04254356 9.99954746 10.04080783 12.00041636 10 14 C9 15 9 15 6.93359375 15.09765625 C3.46679688 15.04882812 3.46679688 15.04882812 0 15 C0 10.05 0 5.1 0 0 Z " fill="#DBE1DE" transform="translate(343,49)"/>
<path d="M0 0 C3.3 0 6.6 0 10 0 C10 0.33 10 0.66 10 1 C7.69 1 5.38 1 3 1 C3 5.29 3 9.58 3 14 C3.99 13.67 4.98 13.34 6 13 C6 11.02 6 9.04 6 7 C7.32 7.33 8.64 7.66 10 8 C10.04254356 9.99954746 10.04080783 12.00041636 10 14 C9 15 9 15 6.93359375 15.09765625 C3.46679688 15.04882812 3.46679688 15.04882812 0 15 C0 10.05 0 5.1 0 0 Z " fill="#DBE1DE" transform="translate(41,15)"/>
<path d="M0 0 C0.99 0 1.98 0 3 0 C3.83739781 2.1234016 4.66980283 4.2487728 5.5 6.375 C5.9640625 7.55835938 6.428125 8.74171875 6.90625 9.9609375 C8 13 8 13 8 15 C6.68 15 5.36 15 4 15 C3.01 12.36 2.02 9.72 1 7 C-2.24732932 8.62366466 -2.70155136 11.75387839 -4 15 C-5.11346788 12.19966161 -5.03510273 11.09856297 -4.00390625 8.203125 C-3.52824219 7.22859375 -3.05257813 6.2540625 -2.5625 5.25 C-2.08941406 4.26515625 -1.61632812 3.2803125 -1.12890625 2.265625 C-0.75636719 1.51796875 -0.38382812 0.7703125 0 0 Z " fill="#DFE4E1" transform="translate(458,49)"/>
<path d="M0 0 C0.99 0 1.98 0 3 0 C3.83739781 2.1234016 4.66980283 4.2487728 5.5 6.375 C5.9640625 7.55835938 6.428125 8.74171875 6.90625 9.9609375 C8 13 8 13 8 15 C6.68 15 5.36 15 4 15 C3.01 12.36 2.02 9.72 1 7 C-2.24732932 8.62366466 -2.70155136 11.75387839 -4 15 C-5.11346788 12.19966161 -5.03510273 11.09856297 -4.00390625 8.203125 C-3.52824219 7.22859375 -3.05257812 6.2540625 -2.5625 5.25 C-2.08941406 4.26515625 -1.61632812 3.2803125 -1.12890625 2.265625 C-0.75636719 1.51796875 -0.38382813 0.7703125 0 0 Z " fill="#DFE4E1" transform="translate(156,15)"/>
<path d="M0 0 C3 1 3 1 4.16796875 3.14453125 C4.50441406 4.02496094 4.84085937 4.90539063 5.1875 5.8125 C5.53167969 6.68519531 5.87585938 7.55789062 6.23046875 8.45703125 C7 11 7 11 7 15 C6.01 15 5.02 15 4 15 C3.80664062 14.43410156 3.61328125 13.86820313 3.4140625 13.28515625 C3.15367187 12.55167969 2.89328125 11.81820312 2.625 11.0625 C2.36976563 10.33160156 2.11453125 9.60070312 1.8515625 8.84765625 C1.14728587 6.81317884 1.14728587 6.81317884 -1 6 C-1.99 8.97 -2.98 11.94 -4 15 C-4.66 15 -5.32 15 -6 15 C-4.36041242 9.76727367 -2.61047965 4.84803364 0 0 Z " fill="#DFE4E1" transform="translate(373,49)"/>
<path d="M0 0 C3 1 3 1 4.16796875 3.14453125 C4.50441406 4.02496094 4.84085938 4.90539062 5.1875 5.8125 C5.53167969 6.68519531 5.87585938 7.55789062 6.23046875 8.45703125 C7 11 7 11 7 15 C6.01 15 5.02 15 4 15 C3.80664062 14.43410156 3.61328125 13.86820313 3.4140625 13.28515625 C3.15367188 12.55167969 2.89328125 11.81820313 2.625 11.0625 C2.36976562 10.33160156 2.11453125 9.60070312 1.8515625 8.84765625 C1.14728587 6.81317884 1.14728587 6.81317884 -1 6 C-1.99 8.97 -2.98 11.94 -4 15 C-4.66 15 -5.32 15 -6 15 C-4.36041242 9.76727367 -2.61047965 4.84803364 0 0 Z " fill="#DFE4E1" transform="translate(71,15)"/>
<path d="M0 0 C4.29 0 8.58 0 13 0 C13 0.99 13 1.98 13 3 C12.01 3.33 11.02 3.66 10 4 C10.495 4.556875 10.99 5.11375 11.5 5.6875 C13.24754367 8.38162983 13.26218749 9.85375007 13 13 C12.34 13 11.68 13 11 13 C10.5875 12.071875 10.175 11.14375 9.75 10.1875 C7.6432708 6.35024325 5.93371439 4.59085717 1.75 3.3125 C1.1725 3.209375 0.595 3.10625 0 3 C0 2.01 0 1.02 0 0 Z " fill="#F9FAF9" transform="translate(320,50)"/>
<path d="M0 0 C4.29 0 8.58 0 13 0 C13 0.99 13 1.98 13 3 C12.01 3.33 11.02 3.66 10 4 C10.495 4.556875 10.99 5.11375 11.5 5.6875 C13.24754367 8.38162983 13.26218749 9.85375007 13 13 C12.34 13 11.68 13 11 13 C10.5875 12.071875 10.175 11.14375 9.75 10.1875 C7.6432708 6.35024325 5.93371439 4.59085717 1.75 3.3125 C1.1725 3.209375 0.595 3.10625 0 3 C0 2.01 0 1.02 0 0 Z " fill="#F9FAF9" transform="translate(18,16)"/>
<path d="M0 0 C1.32 0 2.64 0 4 0 C6.25 3 6.25 3 8 6 C8.99 4.02 9.98 2.04 11 0 C11.66 0.33 12.32 0.66 13 1 C9.535 8.425 9.535 8.425 6 16 C5.34 16 4.68 16 4 16 C4.268125 15.175 4.53625 14.35 4.8125 13.5 C5.05074792 9.05270548 3.64127365 7.26674987 1.12890625 3.734375 C0 2 0 2 0 0 Z " fill="#E0E5E2" transform="translate(410,49)"/>
<path d="M0 0 C1.32 0 2.64 0 4 0 C6.25 3 6.25 3 8 6 C8.99 4.02 9.98 2.04 11 0 C11.66 0.33 12.32 0.66 13 1 C9.535 8.425 9.535 8.425 6 16 C5.34 16 4.68 16 4 16 C4.268125 15.175 4.53625 14.35 4.8125 13.5 C5.05074792 9.05270548 3.64127365 7.26674987 1.12890625 3.734375 C0 2 0 2 0 0 Z " fill="#E0E5E2" transform="translate(108,15)"/>
<path d="M0 0 C2.64 0 5.28 0 8 0 C8 0.33 8 0.66 8 1 C6.35 1 4.7 1 3 1 C3 2.65 3 4.3 3 6 C4.65 6 6.3 6 8 6 C8 6.66 8 7.32 8 8 C6.35 8 4.7 8 3 8 C3 9.98 3 11.96 3 14 C4.65 14 6.3 14 8 14 C8 14.33 8 14.66 8 15 C5.36 15 2.72 15 0 15 C0 10.05 0 5.1 0 0 Z " fill="#DCE2DF" transform="translate(357,49)"/>
<path d="M0 0 C2.64 0 5.28 0 8 0 C8 0.33 8 0.66 8 1 C6.35 1 4.7 1 3 1 C3 2.65 3 4.3 3 6 C4.65 6 6.3 6 8 6 C8 6.66 8 7.32 8 8 C6.35 8 4.7 8 3 8 C3 9.98 3 11.96 3 14 C4.65 14 6.3 14 8 14 C8 14.33 8 14.66 8 15 C5.36 15 2.72 15 0 15 C0 10.05 0 5.1 0 0 Z " fill="#DCE2DF" transform="translate(55,15)"/>
<path d="M0 0 C3.14330223 0.3492558 4.79491452 0.83925733 7.3125 2.8125 C9 5 9 5 9 9 C7.02 9 5.04 9 3 9 C3 8.34 3 7.68 3 7 C2.01 6.67 1.02 6.34 0 6 C0 4.02 0 2.04 0 0 Z " fill="#EEF1EF" transform="translate(320,54)"/>
<path d="M0 0 C3.14330223 0.3492558 4.79491452 0.83925733 7.3125 2.8125 C9 5 9 5 9 9 C7.02 9 5.04 9 3 9 C3 8.34 3 7.68 3 7 C2.01 6.67 1.02 6.34 0 6 C0 4.02 0 2.04 0 0 Z " fill="#EEF1EF" transform="translate(18,20)"/>
<path d="M0 0 C0.99 0 1.98 0 3 0 C4.0024305 5.34629602 3.84888195 9.62374766 3 15 C2.01 15 1.02 15 0 15 C0 10.05 0 5.1 0 0 Z " fill="#DAE0DD" transform="translate(469,49)"/>
<path d="M0 0 C0.99 0 1.98 0 3 0 C4.0024305 5.34629602 3.84888195 9.62374766 3 15 C2.01 15 1.02 15 0 15 C0 10.05 0 5.1 0 0 Z " fill="#DAE0DD" transform="translate(167,15)"/>
<path d="M0 0 C0.99 0 1.98 0 3 0 C3 4.95 3 9.9 3 15 C2.01 15 1.02 15 0 15 C0 10.05 0 5.1 0 0 Z " fill="#DBE1DE" transform="translate(399,49)"/>
<path d="M0 0 C0.99 0 1.98 0 3 0 C3 4.95 3 9.9 3 15 C2.01 15 1.02 15 0 15 C0 10.05 0 5.1 0 0 Z " fill="#DBE1DE" transform="translate(97,15)"/>
<path d="M0 0 C2.31 0 4.62 0 7 0 C7 0.33 7 0.66 7 1 C5.02 1 3.04 1 1 1 C1 2.32 1 3.64 1 5 C2.98 5.495 2.98 5.495 5 6 C4.67 6.33 4.34 6.66 4 7 C3.95936168 8.66617115 3.957279 10.33388095 4 12 C2.68 12.33 1.36 12.66 0 13 C0 8.71 0 4.42 0 0 Z " fill="#EDF0EE" transform="translate(443,50)"/>
<path d="M0 0 C2.31 0 4.62 0 7 0 C7 0.33 7 0.66 7 1 C5.02 1 3.04 1 1 1 C1 2.32 1 3.64 1 5 C2.98 5.495 2.98 5.495 5 6 C4.67 6.33 4.34 6.66 4 7 C3.95936168 8.66617115 3.957279 10.33388095 4 12 C2.68 12.33 1.36 12.66 0 13 C0 8.71 0 4.42 0 0 Z " fill="#EDF0EE" transform="translate(141,16)"/>
<path d="M0 0 C2.31 0 4.62 0 7 0 C7 0.33 7 0.66 7 1 C5.02 1 3.04 1 1 1 C1 2.32 1 3.64 1 5 C2.98 5.495 2.98 5.495 5 6 C4.34 6 3.68 6 3 6 C3.33 7.98 3.66 9.96 4 12 C2.68 12.33 1.36 12.66 0 13 C0 8.71 0 4.42 0 0 Z " fill="#F4F6F5" transform="translate(346,50)"/>
<path d="M0 0 C2.31 0 4.62 0 7 0 C7 0.33 7 0.66 7 1 C5.02 1 3.04 1 1 1 C1 2.32 1 3.64 1 5 C2.98 5.495 2.98 5.495 5 6 C4.34 6 3.68 6 3 6 C3.33 7.98 3.66 9.96 4 12 C2.68 12.33 1.36 12.66 0 13 C0 8.71 0 4.42 0 0 Z " fill="#F4F6F5" transform="translate(44,16)"/>
<path d="M0 0 C3.14330223 0.3492558 4.79491452 0.83925733 7.3125 2.8125 C9 5 9 5 9 9 C8.34 9 7.68 9 7 9 C6.54625 8.21625 6.0925 7.4325 5.625 6.625 C3.92348887 3.8764051 2.95480916 3.12078968 0 2 C0 1.34 0 0.68 0 0 Z " fill="#FAFBFB" transform="translate(320,54)"/>
<path d="M0 0 C3.14330223 0.3492558 4.79491452 0.83925733 7.3125 2.8125 C9 5 9 5 9 9 C8.34 9 7.68 9 7 9 C6.54625 8.21625 6.0925 7.4325 5.625 6.625 C3.92348887 3.8764051 2.95480916 3.12078968 0 2 C0 1.34 0 0.68 0 0 Z " fill="#FAFBFB" transform="translate(18,20)"/>
<path d="M0 0 C1.32 0.33 2.64 0.66 4 1 C3.67 2.65 3.34 4.3 3 6 C2.01 6 1.02 6 0 6 C0 4.02 0 2.04 0 0 Z " fill="#F8F9F9" transform="translate(402,50)"/>
<path d="M0 0 C1.32 0.33 2.64 0.66 4 1 C3.67 2.65 3.34 4.3 3 6 C2.01 6 1.02 6 0 6 C0 4.02 0 2.04 0 0 Z " fill="#F8F9F9" transform="translate(100,16)"/>
<path d="M0 0 C2.1385485 2.1385485 2.42655063 3.13275314 3 6 C1.35 6 -0.3 6 -2 6 C-1.49396008 3.83125748 -1.00016187 2.00032373 0 0 Z " fill="#F0F3F1" transform="translate(458,54)"/>
<path d="M0 0 C2.1385485 2.1385485 2.42655063 3.13275314 3 6 C1.35 6 -0.3 6 -2 6 C-1.49396008 3.83125748 -1.00016187 2.00032373 0 0 Z " fill="#F0F3F1" transform="translate(156,20)"/>
<path d="M0 0 C0.99 0 1.98 0 3 0 C3 1.65 3 3.3 3 5 C2.01 5.33 1.02 5.66 0 6 C0 4.02 0 2.04 0 0 Z " fill="#FCFCFC" transform="translate(444,57)"/>
<path d="M0 0 C-0.375 2.9375 -0.375 2.9375 -1 6 C-1.99 6.495 -1.99 6.495 -3 7 C-3.33 5.02 -3.66 3.04 -4 1 C-2 0 -2 0 0 0 Z " fill="#E4EBE4" transform="translate(517,48)"/>
<path d="M0 0 C0.99 0 1.98 0 3 0 C3 1.65 3 3.3 3 5 C2.01 5.33 1.02 5.66 0 6 C0 4.02 0 2.04 0 0 Z " fill="#FCFCFC" transform="translate(142,23)"/>
<path d="M0 0 C-0.375 2.9375 -0.375 2.9375 -1 6 C-1.99 6.495 -1.99 6.495 -3 7 C-3.33 5.02 -3.66 3.04 -4 1 C-2 0 -2 0 0 0 Z " fill="#E4EBE4" transform="translate(215,14)"/>
</svg>
