<?xml version="1.0" encoding="UTF-8"?>
<svg version="1.1" xmlns="http://www.w3.org/2000/svg" width="600" height="80">
<path d="M0 0 C198 0 396 0 600 0 C600 26.4 600 52.8 600 80 C402 80 204 80 0 80 C0 53.6 0 27.2 0 0 Z " fill="#2F2F2F" transform="translate(0,0)"/>
<path d="M0 0 C2.12438339 -0.08078641 4.2496323 -0.13909141 6.375 -0.1875 C7.55835938 -0.22230469 8.74171875 -0.25710937 9.9609375 -0.29296875 C11.46527344 -0.14794922 11.46527344 -0.14794922 13 0 C13.66 0.99 14.32 1.98 15 3 C17.30144109 4.07136051 19.6340213 5.07989717 22 6 C21.84402344 6.71285156 21.68804688 7.42570312 21.52734375 8.16015625 C20.59972242 12.72454466 19.8875249 16.29140689 20.625 20.9375 C21 24 21 24 19.49609375 26.171875 C16.04802549 28.69722077 13.66634459 28.43237927 9.4375 28.3125 C8.42913086 28.29799805 8.42913086 28.29799805 7.40039062 28.28320312 C4.35696236 28.21369086 1.90368981 27.9678966 -1 27 C-2.1892631 24.60076523 -3.18413717 22.3064957 -4.125 19.8125 C-4.38925781 19.15185547 -4.65351562 18.49121094 -4.92578125 17.81054688 C-6.44944158 13.89311561 -7.46503485 10.19490968 -8 6 C-2.25 3 -2.25 3 0 3 C0 2.01 0 1.02 0 0 Z " fill="#1B1B19" transform="translate(521,43)"/>
<path d="M0 0 C2.12438339 -0.08078641 4.2496323 -0.13909141 6.375 -0.1875 C7.55835938 -0.22230469 8.74171875 -0.25710938 9.9609375 -0.29296875 C11.46527344 -0.14794922 11.46527344 -0.14794922 13 0 C13.66 0.99 14.32 1.98 15 3 C17.30144109 4.07136051 19.6340213 5.07989717 22 6 C21.84402344 6.71285156 21.68804687 7.42570312 21.52734375 8.16015625 C20.59972242 12.72454466 19.8875249 16.29140689 20.625 20.9375 C21 24 21 24 19.49609375 26.171875 C16.04802549 28.69722077 13.66634459 28.43237927 9.4375 28.3125 C8.42913086 28.29799805 8.42913086 28.29799805 7.40039062 28.28320312 C4.35696236 28.21369086 1.90368981 27.9678966 -1 27 C-2.1892631 24.60076523 -3.18413717 22.3064957 -4.125 19.8125 C-4.38925781 19.15185547 -4.65351563 18.49121094 -4.92578125 17.81054688 C-6.44944158 13.89311561 -7.46503485 10.19490968 -8 6 C-2.25 3 -2.25 3 0 3 C0 2.01 0 1.02 0 0 Z " fill="#1B1B19" transform="translate(219,9)"/>
<path d="M0 0 C3.3 0 6.6 0 10 0 C10 0.66 10 1.32 10 2 C8.35 2 6.7 2 5 2 C5 3.32 5 4.64 5 6 C6.32 6 7.64 6 9 6 C9 6.66 9 7.32 9 8 C7.35 8 5.7 8 4 8 C4 9.65 4 11.3 4 13 C6.31 13 8.62 13 11 13 C12.65 8.71 14.3 4.42 16 0 C17.32 0.33 18.64 0.66 20 1 C21.484375 3.6171875 21.484375 3.6171875 22.75 6.875 C23.17796875 7.94492187 23.6059375 9.01484375 24.046875 10.1171875 C25 13 25 13 25 16 C22.525 15.505 22.525 15.505 20 15 C19.34 12.03 18.68 9.06 18 6 C17.34 6 16.68 6 16 6 C15.87625 6.721875 15.7525 7.44375 15.625 8.1875 C15.00886811 10.96009349 14.08268971 13.38129929 13 16 C11.02090602 16.02686553 9.04171029 16.04633375 7.0625 16.0625 C5.96035156 16.07410156 4.85820312 16.08570312 3.72265625 16.09765625 C1 16 1 16 0 15 C-0.07313567 12.46950598 -0.09247527 9.96695163 -0.0625 7.4375 C-0.05798828 6.72658203 -0.05347656 6.01566406 -0.04882812 5.28320312 C-0.03700864 3.52209987 -0.01907263 1.76103964 0 0 Z " fill="#1B1D1C" transform="translate(356,49)"/>
<path d="M0 0 C3.3 0 6.6 0 10 0 C10 0.66 10 1.32 10 2 C8.35 2 6.7 2 5 2 C5 3.32 5 4.64 5 6 C6.32 6 7.64 6 9 6 C9 6.66 9 7.32 9 8 C7.35 8 5.7 8 4 8 C4 9.65 4 11.3 4 13 C6.31 13 8.62 13 11 13 C12.65 8.71 14.3 4.42 16 0 C17.32 0.33 18.64 0.66 20 1 C21.484375 3.6171875 21.484375 3.6171875 22.75 6.875 C23.17796875 7.94492187 23.6059375 9.01484375 24.046875 10.1171875 C25 13 25 13 25 16 C22.525 15.505 22.525 15.505 20 15 C19.34 12.03 18.68 9.06 18 6 C17.34 6 16.68 6 16 6 C15.87625 6.721875 15.7525 7.44375 15.625 8.1875 C15.00886811 10.96009349 14.08268971 13.38129929 13 16 C11.02090602 16.02686553 9.04171029 16.04633375 7.0625 16.0625 C5.96035156 16.07410156 4.85820313 16.08570312 3.72265625 16.09765625 C1 16 1 16 0 15 C-0.07313567 12.46950598 -0.09247527 9.96695163 -0.0625 7.4375 C-0.05798828 6.72658203 -0.05347656 6.01566406 -0.04882812 5.28320312 C-0.03700864 3.52209987 -0.01907263 1.76103964 0 0 Z " fill="#1B1D1C" transform="translate(54,15)"/>
<path d="M0 0 C5.28 0 10.56 0 16 0 C16.020625 2.454375 16.04125 4.90875 16.0625 7.4375 C16.071604 8.21150146 16.08070801 8.98550293 16.09008789 9.78295898 C16.09724913 11.52221717 16.05024702 13.26145304 16 15 C15 16 15 16 11.62109375 16.09765625 C10.22652923 16.09098369 8.83198257 16.07902532 7.4375 16.0625 C6.72658203 16.05798828 6.01566406 16.05347656 5.28320312 16.04882812 C3.52209987 16.03700864 1.76103964 16.01907263 0 16 C0 12.37 0 8.74 0 5 C0.33 5.66 0.66 6.32 1 7 C2.66072849 7.68132451 4.327767 8.34742127 6 9 C8 11 8 11 8 14 C8.66 14 9.32 14 10 14 C8.15083921 9.93184627 6.33557632 6.9905167 3 4 C6.80443255 4.54349036 8.6081779 6.03084153 11 9 C11.75 11.75 11.75 11.75 12 14 C12.66 14 13.32 14 14 14 C13.01 11.03 12.02 8.06 11 5 C10.34 5 9.68 5 9 5 C9 4.34 9 3.68 9 3 C10.65 3 12.3 3 14 3 C14 2.34 14 1.68 14 1 C9.71 1 5.42 1 1 1 C0.67 1.99 0.34 2.98 0 4 C0 2.68 0 1.36 0 0 Z " fill="#1D1E1E" transform="translate(319,49)"/>
<path d="M0 0 C5.28 0 10.56 0 16 0 C16.020625 2.454375 16.04125 4.90875 16.0625 7.4375 C16.071604 8.21150146 16.08070801 8.98550293 16.09008789 9.78295898 C16.09724913 11.52221717 16.05024702 13.26145304 16 15 C15 16 15 16 11.62109375 16.09765625 C10.22652923 16.09098369 8.83198257 16.07902532 7.4375 16.0625 C6.72658203 16.05798828 6.01566406 16.05347656 5.28320312 16.04882812 C3.52209987 16.03700864 1.76103964 16.01907263 0 16 C0 12.37 0 8.74 0 5 C0.33 5.66 0.66 6.32 1 7 C2.66072849 7.68132451 4.327767 8.34742127 6 9 C8 11 8 11 8 14 C8.66 14 9.32 14 10 14 C8.15083921 9.93184627 6.33557632 6.9905167 3 4 C6.80443255 4.54349036 8.6081779 6.03084153 11 9 C11.75 11.75 11.75 11.75 12 14 C12.66 14 13.32 14 14 14 C13.01 11.03 12.02 8.06 11 5 C10.34 5 9.68 5 9 5 C9 4.34 9 3.68 9 3 C10.65 3 12.3 3 14 3 C14 2.34 14 1.68 14 1 C9.71 1 5.42 1 1 1 C0.67 1.99 0.34 2.98 0 4 C0 2.68 0 1.36 0 0 Z " fill="#1D1E1E" transform="translate(17,15)"/>
<path d="M0 0 C3.3 0 6.6 0 10 0 C10 0.66 10 1.32 10 2 C8.02 2 6.04 2 4 2 C4 3.32 4 4.64 4 6 C4.78375 5.95875 5.5675 5.9175 6.375 5.875 C9 6 9 6 11 8 C11.375 10.4375 11.375 10.4375 11 13 C9.4375 14.8125 9.4375 14.8125 7 16 C4.69 16 2.38 16 0 16 C0 10.72 0 5.44 0 0 Z " fill="#1D1E1D" transform="translate(440,49)"/>
<path d="M0 0 C3.3 0 6.6 0 10 0 C10 0.66 10 1.32 10 2 C8.02 2 6.04 2 4 2 C4 3.32 4 4.64 4 6 C4.78375 5.95875 5.5675 5.9175 6.375 5.875 C9 6 9 6 11 8 C11.375 10.4375 11.375 10.4375 11 13 C9.4375 14.8125 9.4375 14.8125 7 16 C4.69 16 2.38 16 0 16 C0 10.72 0 5.44 0 0 Z " fill="#1A1C1B" transform="translate(343,49)"/>
<path d="M0 0 C3.3 0 6.6 0 10 0 C10 0.66 10 1.32 10 2 C8.02 2 6.04 2 4 2 C4 3.32 4 4.64 4 6 C4.78375 5.95875 5.5675 5.9175 6.375 5.875 C9 6 9 6 11 8 C11.375 10.4375 11.375 10.4375 11 13 C9.4375 14.8125 9.4375 14.8125 7 16 C4.69 16 2.38 16 0 16 C0 10.72 0 5.44 0 0 Z " fill="#1D1E1D" transform="translate(138,15)"/>
<path d="M0 0 C3.3 0 6.6 0 10 0 C10 0.66 10 1.32 10 2 C8.02 2 6.04 2 4 2 C4 3.32 4 4.64 4 6 C4.78375 5.95875 5.5675 5.9175 6.375 5.875 C9 6 9 6 11 8 C11.375 10.4375 11.375 10.4375 11 13 C9.4375 14.8125 9.4375 14.8125 7 16 C4.69 16 2.38 16 0 16 C0 10.72 0 5.44 0 0 Z " fill="#1A1C1B" transform="translate(41,15)"/>
<path d="M0 0 C0.99 0 1.98 0 3 0 C3 1.98 3 3.96 3 6 C5.31 6 7.62 6 10 6 C10 4.02 10 2.04 10 0 C11.32 0 12.64 0 14 0 C14 5.28 14 10.56 14 16 C12.68 16 11.36 16 10 16 C10 13.36 10 10.72 10 8 C8.02 8 6.04 8 4 8 C4 10.64 4 13.28 4 16 C2.68 16 1.36 16 0 16 C0 10.72 0 5.44 0 0 Z " fill="#1A1B1B" transform="translate(469,49)"/>
<path d="M0 0 C0.99 0 1.98 0 3 0 C3 1.98 3 3.96 3 6 C5.31 6 7.62 6 10 6 C10 4.02 10 2.04 10 0 C11.32 0 12.64 0 14 0 C14 5.28 14 10.56 14 16 C12.68 16 11.36 16 10 16 C10 13.36 10 10.72 10 8 C8.02 8 6.04 8 4 8 C4 10.64 4 13.28 4 16 C2.68 16 1.36 16 0 16 C0 10.72 0 5.44 0 0 Z " fill="#1A1B1B" transform="translate(167,15)"/>
<path d="M0 0 C0.33 1.65 0.66 3.3 1 5 C-1.31 4.67 -3.62 4.34 -6 4 C-5.05125 4.45375 -4.1025 4.9075 -3.125 5.375 C0 7 0 7 2 9 C1.63318342 11.93453261 1.13562754 12.86437246 -1 15 C-3.1640625 15.1953125 -3.1640625 15.1953125 -5.625 15.125 C-6.44226563 15.10695313 -7.25953125 15.08890625 -8.1015625 15.0703125 C-8.72804688 15.04710938 -9.35453125 15.02390625 -10 15 C-10.33 13.68 -10.66 12.36 -11 11 C-8.36 11.33 -5.72 11.66 -3 12 C-3 11.34 -3 10.68 -3 10 C-3.94875 9.87625 -4.8975 9.7525 -5.875 9.625 C-9 9 -9 9 -11 7 C-10.8125 4.5 -10.8125 4.5 -10 2 C-6.3558226 -0.4294516 -4.28758728 -0.16179575 0 0 Z " fill="#191B1A" transform="translate(581,49)"/>
<path d="M0 0 C0.33 1.65 0.66 3.3 1 5 C-1.31 4.67 -3.62 4.34 -6 4 C-5.05125 4.45375 -4.1025 4.9075 -3.125 5.375 C0 7 0 7 2 9 C1.63318342 11.93453261 1.13562754 12.86437246 -1 15 C-3.1640625 15.1953125 -3.1640625 15.1953125 -5.625 15.125 C-6.44226563 15.10695313 -7.25953125 15.08890625 -8.1015625 15.0703125 C-8.72804688 15.04710937 -9.35453125 15.02390625 -10 15 C-10.33 13.68 -10.66 12.36 -11 11 C-8.36 11.33 -5.72 11.66 -3 12 C-3 11.34 -3 10.68 -3 10 C-3.94875 9.87625 -4.8975 9.7525 -5.875 9.625 C-9 9 -9 9 -11 7 C-10.8125 4.5 -10.8125 4.5 -10 2 C-6.3558226 -0.4294516 -4.28758728 -0.16179575 0 0 Z " fill="#191B1A" transform="translate(279,15)"/>
<path d="M0 0 C1.32 0 2.64 0 4 0 C4.33 1.65 4.66 3.3 5 5 C6.32 3.35 7.64 1.7 9 0 C9.99 0.33 10.98 0.66 12 1 C10.68 2.65 9.36 4.3 8 6 C8.3609375 6.55429687 8.721875 7.10859375 9.09375 7.6796875 C9.5578125 8.40414062 10.021875 9.12859375 10.5 9.875 C10.9640625 10.59429687 11.428125 11.31359375 11.90625 12.0546875 C13 14 13 14 13 16 C10.6875 15.8125 10.6875 15.8125 8 15 C6.1875 12.4375 6.1875 12.4375 5 10 C4.67 11.98 4.34 13.96 4 16 C2.68 15.67 1.36 15.34 0 15 C0 10.05 0 5.1 0 0 Z " fill="#1A1C1B" transform="translate(486,49)"/>
<path d="M0 0 C1.32 0 2.64 0 4 0 C4.33 1.65 4.66 3.3 5 5 C6.32 3.35 7.64 1.7 9 0 C9.99 0.33 10.98 0.66 12 1 C10.68 2.65 9.36 4.3 8 6 C8.3609375 6.55429687 8.721875 7.10859375 9.09375 7.6796875 C9.5578125 8.40414063 10.021875 9.12859375 10.5 9.875 C10.9640625 10.59429687 11.428125 11.31359375 11.90625 12.0546875 C13 14 13 14 13 16 C10.6875 15.8125 10.6875 15.8125 8 15 C6.1875 12.4375 6.1875 12.4375 5 10 C4.67 11.98 4.34 13.96 4 16 C2.68 15.67 1.36 15.34 0 15 C0 10.05 0 5.1 0 0 Z " fill="#1A1C1B" transform="translate(184,15)"/>
<path d="M0 0 C0.99 0 1.98 0 3 0 C4.0044134 2.2898234 5.00367612 4.5816599 6 6.875 C6.28617187 7.52597656 6.57234375 8.17695312 6.8671875 8.84765625 C9 13.7734375 9 13.7734375 9 16 C7.35 16 5.7 16 4 16 C3.67 14.35 3.34 12.7 3 11 C0.55519921 11.18828772 0.55519921 11.18828772 -2 12 C-3.36020151 13.96758273 -3.36020151 13.96758273 -4 16 C-4.66 16 -5.32 16 -6 16 C-5.52412884 9.97229862 -2.80277043 5.23321711 0 0 Z " fill="#1C1D1D" transform="translate(388,49)"/>
<path d="M0 0 C0.99 0 1.98 0 3 0 C4.0044134 2.2898234 5.00367612 4.5816599 6 6.875 C6.28617188 7.52597656 6.57234375 8.17695313 6.8671875 8.84765625 C9 13.7734375 9 13.7734375 9 16 C7.35 16 5.7 16 4 16 C3.67 14.35 3.34 12.7 3 11 C0.55519921 11.18828772 0.55519921 11.18828772 -2 12 C-3.36020151 13.96758273 -3.36020151 13.96758273 -4 16 C-4.66 16 -5.32 16 -6 16 C-5.52412884 9.97229862 -2.80277043 5.23321711 0 0 Z " fill="#1C1D1D" transform="translate(86,15)"/>
<path d="M0 0 C0.99 0 1.98 0 3 0 C4.0044134 2.2898234 5.00367612 4.5816599 6 6.875 C6.28617187 7.52597656 6.57234375 8.17695312 6.8671875 8.84765625 C9 13.7734375 9 13.7734375 9 16 C7.35 16 5.7 16 4 16 C3.67 14.68 3.34 13.36 3 12 C1.35 12 -0.3 12 -2 12 C-2.66 13.32 -3.32 14.64 -4 16 C-4.66 16 -5.32 16 -6 16 C-5.37183502 12.05050296 -4.1354471 8.80107972 -2.4375 5.1875 C-1.98246094 4.21167969 -1.52742188 3.23585937 -1.05859375 2.23046875 C-0.70925781 1.49441406 -0.35992187 0.75835937 0 0 Z " fill="#1C1D1C" transform="translate(458,49)"/>
<path d="M0 0 C0.99 0 1.98 0 3 0 C4.0044134 2.2898234 5.00367612 4.5816599 6 6.875 C6.28617188 7.52597656 6.57234375 8.17695313 6.8671875 8.84765625 C9 13.7734375 9 13.7734375 9 16 C7.35 16 5.7 16 4 16 C3.67 14.68 3.34 13.36 3 12 C1.35 12 -0.3 12 -2 12 C-2.66 13.32 -3.32 14.64 -4 16 C-4.66 16 -5.32 16 -6 16 C-5.37183502 12.05050296 -4.1354471 8.80107972 -2.4375 5.1875 C-1.98246094 4.21167969 -1.52742187 3.23585938 -1.05859375 2.23046875 C-0.70925781 1.49441406 -0.35992187 0.75835937 0 0 Z " fill="#1C1D1C" transform="translate(156,15)"/>
<path d="M0 0 C6.93359375 -0.09765625 6.93359375 -0.09765625 9 0 C10 1 10 1 10.25 3.9375 C10.1675 4.948125 10.085 5.95875 10 7 C7 9 7 9 3 9 C3 11.31 3 13.62 3 16 C2.01 16 1.02 16 0 16 C0 10.72 0 5.44 0 0 Z " fill="#1A1C1B" transform="translate(399,49)"/>
<path d="M0 0 C6.93359375 -0.09765625 6.93359375 -0.09765625 9 0 C10 1 10 1 10.25 3.9375 C10.1675 4.948125 10.085 5.95875 10 7 C7 9 7 9 3 9 C3 11.31 3 13.62 3 16 C2.01 16 1.02 16 0 16 C0 10.72 0 5.44 0 0 Z " fill="#1A1C1B" transform="translate(97,15)"/>
<path d="M0 0 C2.97 0 5.94 0 9 0 C9 0.99 9 1.98 9 3 C8.34 3 7.68 3 7 3 C7 5.97 7 8.94 7 12 C7.66 12 8.32 12 9 12 C9 12.99 9 13.98 9 15 C6.03 15 3.06 15 0 15 C0 14.01 0 13.02 0 12 C0.66 12 1.32 12 2 12 C2 9.03 2 6.06 2 3 C1.34 3 0.68 3 0 3 C0 2.01 0 1.02 0 0 Z " fill="#1A1B1B" transform="translate(559,49)"/>
<path d="M0 0 C2.97 0 5.94 0 9 0 C9 0.99 9 1.98 9 3 C8.34 3 7.68 3 7 3 C7 5.97 7 8.94 7 12 C7.66 12 8.32 12 9 12 C9 12.99 9 13.98 9 15 C6.03 15 3.06 15 0 15 C0 14.01 0 13.02 0 12 C0.66 12 1.32 12 2 12 C2 9.03 2 6.06 2 3 C1.34 3 0.68 3 0 3 C0 2.01 0 1.02 0 0 Z " fill="#1A1B1B" transform="translate(548,49)"/>
<path d="M0 0 C2.97 0 5.94 0 9 0 C9 0.99 9 1.98 9 3 C8.34 3 7.68 3 7 3 C7 5.97 7 8.94 7 12 C7.66 12 8.32 12 9 12 C9 12.99 9 13.98 9 15 C6.03 15 3.06 15 0 15 C0 14.01 0 13.02 0 12 C0.66 12 1.32 12 2 12 C2 9.03 2 6.06 2 3 C1.34 3 0.68 3 0 3 C0 2.01 0 1.02 0 0 Z " fill="#1A1B1B" transform="translate(257,15)"/>
<path d="M0 0 C2.97 0 5.94 0 9 0 C9 0.99 9 1.98 9 3 C8.34 3 7.68 3 7 3 C7 5.97 7 8.94 7 12 C7.66 12 8.32 12 9 12 C9 12.99 9 13.98 9 15 C6.03 15 3.06 15 0 15 C0 14.01 0 13.02 0 12 C0.66 12 1.32 12 2 12 C2 9.03 2 6.06 2 3 C1.34 3 0.68 3 0 3 C0 2.01 0 1.02 0 0 Z " fill="#1A1B1B" transform="translate(246,15)"/>
<path d="M0 0 C0.91007812 0.00902344 1.82015625 0.01804688 2.7578125 0.02734375 C3.45648438 0.03894531 4.15515625 0.05054688 4.875 0.0625 C4.545 1.0525 4.215 2.0425 3.875 3.0625 C3.545 2.7325 3.215 2.4025 2.875 2.0625 C0.41707971 1.72906449 0.41707971 1.72906449 -2.125 2.0625 C-4.51298682 4.96835687 -4.51298682 4.96835687 -3.8125 8.6875 C-3.48386877 11.88754312 -3.48386877 11.88754312 -2.125 13.0625 C0.20797433 13.10342937 2.54205225 13.10491723 4.875 13.0625 C4.545 14.0525 4.215 15.0425 3.875 16.0625 C-3.37137681 16.54559179 -3.37137681 16.54559179 -6.5625 14.5 C-8.61740979 11.29434073 -8.98970518 8.85075503 -9.125 5.0625 C-7.40096385 0.02300972 -4.97148313 -0.06373696 0 0 Z " fill="#1A1C1B" transform="translate(432.125,48.9375)"/>
<path d="M0 0 C0.91007813 0.00902344 1.82015625 0.01804687 2.7578125 0.02734375 C3.45648438 0.03894531 4.15515625 0.05054688 4.875 0.0625 C4.545 1.0525 4.215 2.0425 3.875 3.0625 C3.545 2.7325 3.215 2.4025 2.875 2.0625 C0.41707971 1.72906449 0.41707971 1.72906449 -2.125 2.0625 C-4.51298682 4.96835687 -4.51298682 4.96835687 -3.8125 8.6875 C-3.48386877 11.88754312 -3.48386877 11.88754312 -2.125 13.0625 C0.20797433 13.10342937 2.54205225 13.10491723 4.875 13.0625 C4.545 14.0525 4.215 15.0425 3.875 16.0625 C-3.37137681 16.54559179 -3.37137681 16.54559179 -6.5625 14.5 C-8.61740979 11.29434073 -8.98970518 8.85075503 -9.125 5.0625 C-7.40096385 0.02300972 -4.97148313 -0.06373696 0 0 Z " fill="#1A1C1B" transform="translate(130.125,14.9375)"/>
<path d="M0 0 C1.32 0 2.64 0 4 0 C6.25 3 6.25 3 8 6 C8.99 4.02 9.98 2.04 11 0 C11.66 0 12.32 0 13 0 C12.28028381 3.75345656 10.66887798 6.86091969 8.9375 10.25 C8.38964844 11.32765625 7.84179688 12.4053125 7.27734375 13.515625 C6.64505859 14.74539062 6.64505859 14.74539062 6 16 C5.34 16 4.68 16 4 16 C4.0825 14.989375 4.165 13.97875 4.25 12.9375 C3.94189309 8.0848161 2.55036224 6.06463982 0 2 C0 1.34 0 0.68 0 0 Z " fill="#1A1C1B" transform="translate(410,49)"/>
<path d="M0 0 C1.32 0 2.64 0 4 0 C6.25 3 6.25 3 8 6 C8.99 4.02 9.98 2.04 11 0 C11.66 0 12.32 0 13 0 C12.28028381 3.75345656 10.66887798 6.86091969 8.9375 10.25 C8.38964844 11.32765625 7.84179688 12.4053125 7.27734375 13.515625 C6.64505859 14.74539062 6.64505859 14.74539062 6 16 C5.34 16 4.68 16 4 16 C4.0825 14.989375 4.165 13.97875 4.25 12.9375 C3.94189309 8.0848161 2.55036224 6.06463982 0 2 C0 1.34 0 0.68 0 0 Z " fill="#1A1C1B" transform="translate(108,15)"/>
<path d="M0 0 C0.99 0 1.98 0 3 0 C3 2.31 3 4.62 3 7 C3.66 7 4.32 7 5 7 C5 7.66 5 8.32 5 9 C4.34 9 3.68 9 3 9 C3 11.31 3 13.62 3 16 C2.01 16 1.02 16 0 16 C0 10.72 0 5.44 0 0 Z " fill="#191A19" transform="translate(399,49)"/>
<path d="M0 0 C0.99 0 1.98 0 3 0 C3 2.31 3 4.62 3 7 C3.66 7 4.32 7 5 7 C5 7.66 5 8.32 5 9 C4.34 9 3.68 9 3 9 C3 11.31 3 13.62 3 16 C2.01 16 1.02 16 0 16 C0 10.72 0 5.44 0 0 Z " fill="#191A19" transform="translate(97,15)"/>
<path d="M0 0 C3.96 0 7.92 0 12 0 C12 0.33 12 0.66 12 1 C10.35 1 8.7 1 7 1 C7 1.66 7 2.32 7 3 C7.66 3 8.32 3 9 3 C12 9.75 12 9.75 12 12 C11.34 12 10.68 12 10 12 C9.649375 10.9275 9.29875 9.855 8.9375 8.75 C7.06101126 4.25917985 4.29925831 3.02795203 0 1 C0 0.67 0 0.34 0 0 Z " fill="#2E2E2E" transform="translate(321,51)"/>
<path d="M0 0 C3.96 0 7.92 0 12 0 C12 0.33 12 0.66 12 1 C10.35 1 8.7 1 7 1 C7 1.66 7 2.32 7 3 C7.66 3 8.32 3 9 3 C12 9.75 12 9.75 12 12 C11.34 12 10.68 12 10 12 C9.649375 10.9275 9.29875 9.855 8.9375 8.75 C7.06101126 4.25917985 4.29925831 3.02795203 0 1 C0 0.67 0 0.34 0 0 Z " fill="#2E2E2E" transform="translate(19,17)"/>
<path d="M0 0 C3.10652645 0.3358407 4.60414303 0.59049279 6.8125 2.875 C8 5 8 5 8 8 C7.34 8 6.68 8 6 8 C4.97388051 6.34928604 3.97691857 4.68029994 3 3 C1.41754725 1.24850835 1.41754725 1.24850835 0 0 Z " fill="#2C2C2C" transform="translate(321,55)"/>
<path d="M0 0 C3.10652645 0.3358407 4.60414303 0.59049279 6.8125 2.875 C8 5 8 5 8 8 C7.34 8 6.68 8 6 8 C4.97388051 6.34928604 3.97691857 4.68029994 3 3 C1.41754725 1.24850835 1.41754725 1.24850835 0 0 Z " fill="#2C2C2C" transform="translate(19,21)"/>
<path d="M0 0 C1.32 0.33 2.64 0.66 4 1 C4 2.32 4 3.64 4 5 C2.68 5.33 1.36 5.66 0 6 C0 4.02 0 2.04 0 0 Z " fill="#2A2B2A" transform="translate(346,57)"/>
<path d="M0 0 C1.32 0.33 2.64 0.66 4 1 C4 2.32 4 3.64 4 5 C2.68 5.33 1.36 5.66 0 6 C0 4.02 0 2.04 0 0 Z " fill="#2A2B2A" transform="translate(44,23)"/>
<path d="M0 0 C0.33 0.66 0.66 1.32 1 2 C1.99 2.33 2.98 2.66 4 3 C4 3.66 4 4.32 4 5 C4.66 5.33 5.32 5.66 6 6 C4.02 6 2.04 6 0 6 C0 4.02 0 2.04 0 0 Z " fill="#191A19" transform="translate(319,58)"/>
<path d="M0 0 C0.33 0.66 0.66 1.32 1 2 C1.99 2.33 2.98 2.66 4 3 C4 3.66 4 4.32 4 5 C4.66 5.33 5.32 5.66 6 6 C4.02 6 2.04 6 0 6 C0 4.02 0 2.04 0 0 Z " fill="#191A19" transform="translate(17,24)"/>
<path d="M0 0 C0.99 0 1.98 0 3 0 C3 1.65 3 3.3 3 5 C2.01 5.33 1.02 5.66 0 6 C0 4.02 0 2.04 0 0 Z " fill="#2A2B2A" transform="translate(402,50)"/>
<path d="M0 0 C0.99 0 1.98 0 3 0 C3 1.65 3 3.3 3 5 C2.01 5.33 1.02 5.66 0 6 C0 4.02 0 2.04 0 0 Z " fill="#2A2B2A" transform="translate(100,16)"/>
</svg>
