<svg width="26" height="24" viewBox="0 0 26 24" fill="none" xmlns="http://www.w3.org/2000/svg">
  <path fill-rule="evenodd" clip-rule="evenodd" d="M0 0H25.3421V24H0V0ZM18.8974 21.5158H22.7581V21.5121C22.7581 14.7659 19.3251 9.96441 14.1294 6.28999H22.8252V2.54733H2.53838V6.28999H3.67218C12.3629 6.87122 18.8974 12.8302 18.8974 21.5121V21.5158ZM2.52953 17.6569C5.05019 17.8199 6.36114 19.0481 6.53577 21.5222H10.1194C10.1194 21.5158 10.1206 21.5095 10.1206 21.5032C10.1206 17.029 7.12164 14.1379 2.56749 14.1379C2.55483 14.1379 2.54218 14.1392 2.52953 14.1392V17.6569ZM2.52067 11.9179C2.52953 11.9179 2.53712 11.9179 2.54598 11.9179C8.36679 11.9179 12.6565 15.778 12.6603 21.4956H16.521C16.5172 13.6881 10.4927 8.12341 2.54598 8.12341C2.53712 8.12341 2.52953 8.12341 2.52067 8.12341V11.9179Z" fill="white"/>
</svg>
