<svg width="14" height="16" viewBox="0 0 14 16" fill="none" xmlns="http://www.w3.org/2000/svg">
  <path d="M13.0322 10.0882L9.90021 8.59423L8.57581 7.96243C9.15421 7.59803 9.62401 7.03563 9.93141 6.35823C10.1881 5.79358 10.3207 5.18048 10.3204 4.56023C10.3204 4.19483 10.2624 3.84783 10.1816 3.51303C9.78761 1.89063 8.52061 0.695435 6.99961 0.695435C5.50741 0.695435 4.25961 1.84803 3.84121 3.42423C3.74461 3.78583 3.67821 4.16183 3.67821 4.56023C3.67821 5.25203 3.83981 5.89703 4.11441 6.45803C4.43181 7.10883 4.90241 7.64543 5.47521 7.99043L4.20681 8.58103L0.973212 10.087C0.692412 10.2186 0.507812 10.5354 0.507812 10.8892V14.4422C0.507812 14.9184 0.839613 15.3044 1.24921 15.3044H6.05181V12.584C6.05267 12.556 6.06088 12.5287 6.07561 12.5048L6.07361 12.5036L6.86021 11.1412L6.86221 11.1424C6.89021 11.0944 6.94001 11.0604 6.99961 11.0604C7.05921 11.0604 7.10901 11.0942 7.13701 11.1424L7.13781 11.1418L7.14501 11.1544L7.14821 11.16L7.92441 12.5042L7.92341 12.5048C7.93818 12.5288 7.94639 12.5561 7.94721 12.5842V15.3046H12.7498C13.1594 15.3046 13.4914 14.9186 13.4914 14.4424V10.8892C13.492 10.5366 13.3104 10.2228 13.0322 10.0882ZM7.92401 9.17723L7.92601 9.17843L7.13921 10.5408L7.13721 10.5396C7.1235 10.5641 7.10358 10.5846 7.07946 10.5989C7.05535 10.6133 7.02788 10.621 6.99981 10.6214C6.97175 10.621 6.94428 10.6133 6.92016 10.5989C6.89604 10.5846 6.87613 10.5641 6.86241 10.5396L6.86141 10.5402L6.85341 10.5264L6.85101 10.5224L6.07481 9.17783L6.07561 9.17723C6.06084 9.15332 6.05263 9.12593 6.05181 9.09783C6.05181 9.00883 6.12401 8.93663 6.21301 8.93663H7.78621C7.87521 8.93663 7.94741 9.00883 7.94741 9.09783C7.94711 9.12596 7.93901 9.15344 7.92401 9.17723Z" fill="currentColor"/>
</svg>
