<svg width="40" height="30" viewBox="0 0 40 30" fill="none" xmlns="http://www.w3.org/2000/svg">
  <path d="M15.7852 15.6318H13.2285L13.2148 14.2236H15.3613C15.7396 14.2236 16.0495 14.1758 16.291 14.0801C16.5326 13.9798 16.7126 13.8363 16.8311 13.6494C16.9541 13.458 17.0156 13.2256 17.0156 12.9521C17.0156 12.6423 16.9564 12.3916 16.8379 12.2002C16.724 12.0088 16.5439 11.8698 16.2979 11.7832C16.0563 11.6966 15.7441 11.6533 15.3613 11.6533H13.9395V20H11.8887V10.0469H15.3613C15.9401 10.0469 16.4574 10.1016 16.9131 10.2109C17.3734 10.3203 17.763 10.4867 18.082 10.71C18.401 10.9333 18.6449 11.2158 18.8135 11.5576C18.9821 11.8949 19.0664 12.2959 19.0664 12.7607C19.0664 13.1709 18.973 13.5492 18.7861 13.8955C18.6038 14.2419 18.3145 14.5244 17.918 14.7432C17.526 14.9619 17.0133 15.0827 16.3799 15.1055L15.7852 15.6318ZM15.6963 20H12.668L13.4678 18.4004H15.6963C16.0563 18.4004 16.3503 18.3434 16.5781 18.2295C16.806 18.111 16.9746 17.9515 17.084 17.751C17.1934 17.5505 17.248 17.3203 17.248 17.0605C17.248 16.7689 17.1979 16.516 17.0977 16.3018C17.002 16.0876 16.847 15.9235 16.6328 15.8096C16.4186 15.6911 16.1361 15.6318 15.7852 15.6318H13.8096L13.8232 14.2236H16.2842L16.7559 14.7773C17.362 14.7682 17.8496 14.8753 18.2188 15.0986C18.5924 15.3174 18.8636 15.6022 19.0322 15.9531C19.2054 16.304 19.292 16.68 19.292 17.0811C19.292 17.7191 19.153 18.2568 18.875 18.6943C18.597 19.1273 18.1891 19.4531 17.6514 19.6719C17.1182 19.8906 16.4665 20 15.6963 20ZM24.7061 16.4521H22.1699V14.8525H24.7061C25.098 14.8525 25.417 14.7887 25.6631 14.6611C25.9092 14.529 26.0892 14.3467 26.2031 14.1143C26.3171 13.8818 26.374 13.6198 26.374 13.3281C26.374 13.0319 26.3171 12.7562 26.2031 12.501C26.0892 12.2458 25.9092 12.0407 25.6631 11.8857C25.417 11.7308 25.098 11.6533 24.7061 11.6533H22.8809V20H20.8301V10.0469H24.7061C25.4854 10.0469 26.153 10.1882 26.709 10.4707C27.2695 10.7487 27.6979 11.1338 27.9941 11.626C28.2904 12.1182 28.4385 12.681 28.4385 13.3145C28.4385 13.957 28.2904 14.513 27.9941 14.9824C27.6979 15.4518 27.2695 15.8141 26.709 16.0693C26.153 16.3245 25.4854 16.4521 24.7061 16.4521Z" fill="currentColor"/>
</svg>
