<svg width="21" height="13" viewBox="0 0 21 13" fill="none" xmlns="http://www.w3.org/2000/svg">
<path d="M10.3224 0.818176H13.2655L15.5699 5.83966H15.6657L17.9701 0.818176H20.9132L16.927 8.81036V12.8182H14.3086V8.81036L10.3224 0.818176Z" fill="white"/>
<path d="M0.913177 12.8182V0.818176H5.45815C6.27419 0.818176 6.95718 0.945129 7.50711 1.19904C8.0606 1.45294 8.47571 1.80841 8.75246 2.26544C9.03275 2.72247 9.17289 3.25177 9.17289 3.85333C9.17289 4.31036 9.08597 4.71857 8.91212 5.07794C8.73827 5.43341 8.49878 5.72833 8.19365 5.96271C7.88852 6.19708 7.5355 6.36114 7.13457 6.4549V6.57208C7.57453 6.59552 7.98077 6.72638 8.35331 6.96466C8.7294 7.20294 9.03097 7.53497 9.25805 7.96075C9.48512 8.38263 9.59865 8.88263 9.59865 9.46076C9.59865 10.1053 9.44964 10.6815 9.15161 11.1893C8.85357 11.6932 8.42249 12.0916 7.85836 12.3846C7.29423 12.6736 6.60947 12.8182 5.80408 12.8182H0.913177ZM3.54756 10.4803H5.17609C5.74731 10.4803 6.16775 10.3611 6.4374 10.1229C6.71059 9.88458 6.84719 9.55255 6.84719 9.12677C6.84719 8.81818 6.78155 8.55255 6.65027 8.3299C6.519 8.10333 6.33273 7.9295 6.09147 7.80841C5.8502 7.68341 5.56104 7.62091 5.22398 7.62091H3.54756V10.4803ZM3.54756 5.75177H5.00578C5.29317 5.75177 5.54862 5.69904 5.77215 5.59357C5.99567 5.4881 6.16952 5.33576 6.2937 5.13654C6.42143 4.93732 6.48529 4.69708 6.48529 4.41583C6.48529 4.01349 6.35579 3.69708 6.09679 3.46661C5.83779 3.23615 5.48831 3.12091 5.04836 3.12091H3.54756V5.75177Z" fill="white"/>
</svg>
