<svg width="20" height="20" viewBox="0 0 20 20" fill="none" xmlns="http://www.w3.org/2000/svg">
<path d="M18 10.5V16.3333C18 16.7754 17.8244 17.1993 17.5118 17.5118C17.1993 17.8244 16.7754 18 16.3333 18H4.66667C4.22464 18 3.80072 17.8244 3.48816 17.5118C3.17559 17.1993 3 16.7754 3 16.3333V10.5H18ZM13.8333 3C14.0543 3 14.2663 3.0878 14.4226 3.24408C14.5789 3.40036 14.6667 3.61232 14.6667 3.83333V4.66667H16.3333C16.7754 4.66667 17.1993 4.84226 17.5118 5.15482C17.8244 5.46738 18 5.89131 18 6.33333V8.83333H3V6.33333C3 5.89131 3.17559 5.46738 3.48816 5.15482C3.80072 4.84226 4.22464 4.66667 4.66667 4.66667H6.33333V3.83333C6.33333 3.61232 6.42113 3.40036 6.57741 3.24408C6.73369 3.0878 6.94565 3 7.16667 3C7.38768 3 7.59964 3.0878 7.75592 3.24408C7.9122 3.40036 8 3.61232 8 3.83333V4.66667H13V3.83333C13 3.61232 13.0878 3.40036 13.2441 3.24408C13.4004 3.0878 13.6123 3 13.8333 3Z" fill="currentColor"/>
</svg>
