<svg width="20" height="20" viewBox="0 0 20 20" fill="none" xmlns="http://www.w3.org/2000/svg">
  <path d="M17 10.5V16.3333C17 16.7754 16.8244 17.1993 16.5118 17.5118C16.1993 17.8244 15.7754 18 15.3333 18H3.66667C3.22464 18 2.80072 17.8244 2.48816 17.5118C2.17559 17.1993 2 16.7754 2 16.3333V10.5H17ZM12.8333 3C13.0543 3 13.2663 3.0878 13.4226 3.24408C13.5789 3.40036 13.6667 3.61232 13.6667 3.83333V4.66667H15.3333C15.7754 4.66667 16.1993 4.84226 16.5118 5.15482C16.8244 5.46738 17 5.89131 17 6.33333V8.83333H2V6.33333C2 5.89131 2.17559 5.46738 2.48816 5.15482C2.80072 4.84226 3.22464 4.66667 3.66667 4.66667H5.33333V3.83333C5.33333 3.61232 5.42113 3.40036 5.57741 3.24408C5.73369 3.0878 5.94565 3 6.16667 3C6.38768 3 6.59964 3.0878 6.75592 3.24408C6.9122 3.40036 7 3.61232 7 3.83333V4.66667H12V3.83333C12 3.61232 12.0878 3.40036 12.2441 3.24408C12.4004 3.0878 12.6123 3 12.8333 3Z" fill="#CCCCCC"/>
</svg>
