<svg width="40" height="30" viewBox="0 0 40 30" fill="none" xmlns="http://www.w3.org/2000/svg">
  <path d="M16.6582 16.6982H18.7021C18.6611 17.3682 18.4766 17.9629 18.1484 18.4824C17.8249 19.002 17.3714 19.4076 16.7881 19.6992C16.2093 19.9909 15.512 20.1367 14.6963 20.1367C14.0583 20.1367 13.4863 20.0273 12.9805 19.8086C12.4746 19.5853 12.0417 19.2663 11.6816 18.8516C11.3262 18.4368 11.055 17.9355 10.8682 17.3477C10.6813 16.7598 10.5879 16.1012 10.5879 15.3721V14.6816C10.5879 13.9525 10.6836 13.2939 10.875 12.7061C11.071 12.1136 11.349 11.61 11.709 11.1953C12.0736 10.7806 12.5088 10.4616 13.0146 10.2383C13.5205 10.015 14.0856 9.90332 14.71 9.90332C15.5394 9.90332 16.2389 10.0537 16.8086 10.3545C17.3828 10.6553 17.8271 11.07 18.1416 11.5986C18.4606 12.1273 18.652 12.7288 18.7158 13.4033H16.665C16.6423 13.0023 16.5625 12.6628 16.4258 12.3848C16.2891 12.1022 16.0817 11.8903 15.8037 11.749C15.5303 11.6032 15.1657 11.5303 14.71 11.5303C14.3682 11.5303 14.0697 11.5941 13.8145 11.7217C13.5592 11.8493 13.3451 12.043 13.1719 12.3027C12.9987 12.5625 12.8688 12.8906 12.7822 13.2871C12.7002 13.679 12.6592 14.1393 12.6592 14.668V15.3721C12.6592 15.887 12.6979 16.3405 12.7754 16.7324C12.8529 17.1198 12.9714 17.4479 13.1309 17.7168C13.2949 17.9811 13.5046 18.1816 13.7598 18.3184C14.0195 18.4505 14.3317 18.5166 14.6963 18.5166C15.1247 18.5166 15.4779 18.4482 15.7559 18.3115C16.0339 18.1748 16.2458 17.972 16.3916 17.7031C16.542 17.4342 16.6309 17.0993 16.6582 16.6982ZM25.8184 16.6982H27.8623C27.8213 17.3682 27.6367 17.9629 27.3086 18.4824C26.985 19.002 26.5316 19.4076 25.9482 19.6992C25.3695 19.9909 24.6722 20.1367 23.8564 20.1367C23.2184 20.1367 22.6465 20.0273 22.1406 19.8086C21.6348 19.5853 21.2018 19.2663 20.8418 18.8516C20.4863 18.4368 20.2152 17.9355 20.0283 17.3477C19.8415 16.7598 19.748 16.1012 19.748 15.3721V14.6816C19.748 13.9525 19.8438 13.2939 20.0352 12.7061C20.2311 12.1136 20.5091 11.61 20.8691 11.1953C21.2337 10.7806 21.6689 10.4616 22.1748 10.2383C22.6807 10.015 23.2458 9.90332 23.8701 9.90332C24.6995 9.90332 25.3991 10.0537 25.9688 10.3545C26.543 10.6553 26.9873 11.07 27.3018 11.5986C27.6208 12.1273 27.8122 12.7288 27.876 13.4033H25.8252C25.8024 13.0023 25.7227 12.6628 25.5859 12.3848C25.4492 12.1022 25.2419 11.8903 24.9639 11.749C24.6904 11.6032 24.3258 11.5303 23.8701 11.5303C23.5283 11.5303 23.2298 11.5941 22.9746 11.7217C22.7194 11.8493 22.5052 12.043 22.332 12.3027C22.1589 12.5625 22.029 12.8906 21.9424 13.2871C21.8604 13.679 21.8193 14.1393 21.8193 14.668V15.3721C21.8193 15.887 21.8581 16.3405 21.9355 16.7324C22.013 17.1198 22.1315 17.4479 22.291 17.7168C22.4551 17.9811 22.6647 18.1816 22.9199 18.3184C23.1797 18.4505 23.4919 18.5166 23.8564 18.5166C24.2848 18.5166 24.638 18.4482 24.916 18.3115C25.194 18.1748 25.4059 17.972 25.5518 17.7031C25.7021 17.4342 25.791 17.0993 25.8184 16.6982Z" fill="currentColor"/>
</svg>
