<svg width="20" height="20" viewBox="0 0 20 20" fill="none" xmlns="http://www.w3.org/2000/svg">
  <path d="M10.625 5.625V1.25H5.00001C4.50273 1.25 4.02581 1.44754 3.67418 1.79917C3.32255 2.15081 3.12501 2.62772 3.12501 3.125V9.4525C3.83846 9.14112 4.61823 9.01233 5.39391 9.07774C6.1696 9.14316 6.91679 9.40072 7.56801 9.82719C8.21924 10.2536 8.75401 10.8356 9.12405 11.5205C9.49408 12.2053 9.68773 12.9716 9.68751 13.75C9.68751 14.4475 9.53126 15.1394 9.22813 15.7675L10.7925 17.3325C10.9752 17.5151 11.1097 17.7402 11.1841 17.9876C11.2585 18.2349 11.2704 18.4969 11.2188 18.75H15C15.4973 18.75 15.9742 18.5525 16.3258 18.2008C16.6775 17.8492 16.875 17.3723 16.875 16.875V7.5H12.5C12.0027 7.5 11.5258 7.30246 11.1742 6.95083C10.8225 6.59919 10.625 6.12228 10.625 5.625ZM11.875 5.625V1.32313C12.1804 1.41084 12.4585 1.57472 12.6831 1.79937L16.3256 5.44187C16.5503 5.66655 16.7142 5.94462 16.8019 6.25H12.5C12.3342 6.25 12.1753 6.18415 12.0581 6.06694C11.9409 5.94973 11.875 5.79076 11.875 5.625ZM5.00001 17.5C5.81001 17.5 6.56001 17.2437 7.17251 16.8062L9.24563 18.8794C9.36351 18.9932 9.52138 19.0562 9.68526 19.0548C9.84913 19.0534 10.0059 18.9876 10.1218 18.8718C10.2376 18.7559 10.3034 18.5991 10.3048 18.4353C10.3062 18.2714 10.2432 18.1135 10.1294 17.9956L8.05688 15.9231C8.54404 15.238 8.78687 14.4091 8.74638 13.5694C8.7059 12.7297 8.38446 11.928 7.83366 11.293C7.28285 10.6579 6.53464 10.2263 5.70912 10.0675C4.88361 9.90872 4.02868 10.0319 3.28157 10.4173C2.53446 10.8027 1.93852 11.4279 1.58941 12.1927C1.24029 12.9574 1.15825 13.8172 1.35646 14.6342C1.55468 15.4511 2.02164 16.1778 2.68239 16.6975C3.34314 17.2172 4.15936 17.4998 5.00001 17.5ZM5.00001 16.25C4.33696 16.25 3.70108 15.9866 3.23224 15.5178C2.7634 15.0489 2.50001 14.413 2.50001 13.75C2.50001 13.087 2.7634 12.4511 3.23224 11.9822C3.70108 11.5134 4.33696 11.25 5.00001 11.25C5.66305 11.25 6.29893 11.5134 6.76777 11.9822C7.23661 12.4511 7.50001 13.087 7.50001 13.75C7.50001 14.413 7.23661 15.0489 6.76777 15.5178C6.29893 15.9866 5.66305 16.25 5.00001 16.25Z" fill="currentColor"/>
</svg>
