<svg width="20" height="20" viewBox="0 0 20 20" fill="none" xmlns="http://www.w3.org/2000/svg">
<path d="M4.16667 17.5H6.39583V13.6042H2.5V15.8333C2.5 16.2917 2.66333 16.6842 2.99 17.0108C3.31667 17.3375 3.70889 17.5006 4.16667 17.5ZM8.0625 17.5H11.9375V13.6042H8.0625V17.5ZM13.6042 17.5H15.8333C16.2917 17.5 16.6842 17.3369 17.0108 17.0108C17.3375 16.6847 17.5006 16.2922 17.5 15.8333V13.6042H13.6042V17.5ZM2.5 11.9375H6.39583V8.0625H2.5V11.9375ZM8.0625 11.9375H11.9375V8.0625H8.0625V11.9375ZM13.6042 11.9375H17.5V8.0625H13.6042V11.9375ZM2.5 6.39583H6.39583V2.5H4.16667C3.70833 2.5 3.31611 2.66333 2.99 2.99C2.66389 3.31667 2.50056 3.70889 2.5 4.16667V6.39583ZM8.0625 6.39583H11.9375V2.5H8.0625V6.39583ZM13.6042 6.39583H17.5V4.16667C17.5 3.70833 17.3369 3.31611 17.0108 2.99C16.6847 2.66389 16.2922 2.50056 15.8333 2.5H13.6042V6.39583Z" fill="currentColor"/>
</svg>
