<svg width="11" height="12" viewBox="0 0 11 12" fill="none" xmlns="http://www.w3.org/2000/svg">
<path d="M7.5 10.5V11.4375C7.5 11.7482 7.24816 12 6.9375 12H0.5625C0.251836 12 0 11.7482 0 11.4375V2.8125C0 2.50184 0.251836 2.25 0.5625 2.25H2.25V9.1875C2.25 9.91123 2.83877 10.5 3.5625 10.5H7.5ZM7.5 2.4375V0H3.5625C3.25184 0 3 0.251836 3 0.5625V9.1875C3 9.49816 3.25184 9.75 3.5625 9.75H9.9375C10.2482 9.75 10.5 9.49816 10.5 9.1875V3H8.0625C7.75313 3 7.5 2.74688 7.5 2.4375ZM10.3353 1.71026L8.78974 0.164742C8.68425 0.05926 8.54119 7.79991e-07 8.39201 0L8.25 0V2.25H10.5V2.10799C10.5 1.95881 10.4407 1.81575 10.3353 1.71026Z" fill="#999999"/>
</svg>
