<svg width="12" height="12" viewBox="0 0 12 12" fill="none" xmlns="http://www.w3.org/2000/svg">
<path d="M12 6V10.6667C12 11.0203 11.8595 11.3594 11.6095 11.6095C11.3594 11.8595 11.0203 12 10.6667 12H1.33333C0.979711 12 0.640573 11.8595 0.390524 11.6095C0.140476 11.3594 0 11.0203 0 10.6667V6H12ZM8.66667 0C8.84348 0 9.01305 0.0702379 9.13807 0.195262C9.2631 0.320286 9.33333 0.489856 9.33333 0.666667V1.33333H10.6667C11.0203 1.33333 11.3594 1.47381 11.6095 1.72386C11.8595 1.97391 12 2.31304 12 2.66667V4.66667H0V2.66667C0 2.31304 0.140476 1.97391 0.390524 1.72386C0.640573 1.47381 0.979711 1.33333 1.33333 1.33333H2.66667V0.666667C2.66667 0.489856 2.7369 0.320286 2.86193 0.195262C2.98695 0.0702379 3.15652 0 3.33333 0C3.51014 0 3.67971 0.0702379 3.80474 0.195262C3.92976 0.320286 4 0.489856 4 0.666667V1.33333H8V0.666667C8 0.489856 8.07024 0.320286 8.19526 0.195262C8.32029 0.0702379 8.48986 0 8.66667 0Z" fill="#999999"/>
</svg>
