<svg width="20" height="20" viewBox="0 0 20 20" fill="none" xmlns="http://www.w3.org/2000/svg">
  <path d="M14.5833 16.6667C15.7339 16.6667 16.6667 15.7339 16.6667 14.5833C16.6667 13.4327 15.7339 12.5 14.5833 12.5C13.4327 12.5 12.5 13.4327 12.5 14.5833C12.5 15.7339 13.4327 16.6667 14.5833 16.6667Z" stroke="white" stroke-width="1.66667"/>
  <path d="M17.5 17.5L16.25 16.25" stroke="white" stroke-width="1.66667" stroke-linecap="round"/>
  <path fill-rule="evenodd" clip-rule="evenodd" d="M3.33325 8.33335C3.33325 5.19085 3.33325 3.61919 4.30992 2.64335C5.28659 1.66752 6.85742 1.66669 9.99992 1.66669C13.1424 1.66669 14.7141 1.66669 15.6899 2.64335C16.6658 3.62002 16.6666 5.19085 16.6666 8.33335V10.9742C16.1851 10.7028 15.6545 10.5298 15.1056 10.4655C14.5567 10.4011 14.0004 10.4466 13.4693 10.5993C12.9381 10.7519 12.4426 11.0088 12.0116 11.3548C11.5807 11.7008 11.2229 12.1291 10.959 12.6148C10.6952 13.1004 10.5306 13.6337 10.4749 14.1836C10.4192 14.7334 10.4734 15.2889 10.6344 15.8176C10.7954 16.3463 11.06 16.8377 11.4127 17.2632C11.7655 17.6886 12.1994 18.0397 12.6891 18.2959C11.9474 18.3334 11.0641 18.3334 9.99992 18.3334C6.85742 18.3334 5.28575 18.3334 4.30992 17.3567C3.33409 16.38 3.33325 14.8092 3.33325 11.6667V8.33335ZM6.66659 4.16669C6.44557 4.16669 6.23361 4.25448 6.07733 4.41076C5.92105 4.56705 5.83325 4.77901 5.83325 5.00002C5.83325 5.22103 5.92105 5.433 6.07733 5.58928C6.23361 5.74556 6.44557 5.83335 6.66659 5.83335H9.99992C10.2209 5.83335 10.4329 5.74556 10.5892 5.58928C10.7455 5.433 10.8333 5.22103 10.8333 5.00002C10.8333 4.77901 10.7455 4.56705 10.5892 4.41076C10.4329 4.25448 10.2209 4.16669 9.99992 4.16669H6.66659ZM6.66659 7.50002C6.44557 7.50002 6.23361 7.58782 6.07733 7.7441C5.92105 7.90038 5.83325 8.11234 5.83325 8.33335C5.83325 8.55437 5.92105 8.76633 6.07733 8.92261C6.23361 9.07889 6.44557 9.16669 6.66659 9.16669H11.6666C11.8876 9.16669 12.0996 9.07889 12.2558 8.92261C12.4121 8.76633 12.4999 8.55437 12.4999 8.33335C12.4999 8.11234 12.4121 7.90038 12.2558 7.7441C12.0996 7.58782 11.8876 7.50002 11.6666 7.50002H6.66659ZM6.66659 10.8334C6.44557 10.8334 6.23361 10.9212 6.07733 11.0774C5.92105 11.2337 5.83325 11.4457 5.83325 11.6667C5.83325 11.8877 5.92105 12.0997 6.07733 12.2559C6.23361 12.4122 6.44557 12.5 6.66659 12.5H9.16658C9.3876 12.5 9.59956 12.4122 9.75584 12.2559C9.91212 12.0997 9.99992 11.8877 9.99992 11.6667C9.99992 11.4457 9.91212 11.2337 9.75584 11.0774C9.59956 10.9212 9.3876 10.8334 9.16658 10.8334H6.66659Z" fill="white"/>
</svg>
