<svg xmlns="http://www.w3.org/2000/svg" viewBox="2 3 15.56 14.44">
	<path d="M16.4444 5.22223H8.9L7.61667 3.45556C7.51323 3.31401 7.37776 3.19894 7.22134 3.11976C7.06492 3.04059 6.89198 2.99955 6.71667 3H3.11111C2.81643 3 2.53381 3.11707 2.32544 3.32544C2.11706 3.53381 2 3.81643 2 4.11111V16.3333C2 16.628 2.11706 16.9106 2.32544 17.119C2.53381 17.3274 2.81643 17.4444 3.11111 17.4444H16.4444C16.7391 17.4444 17.0217 17.3274 17.2301 17.119C17.4385 16.9106 17.5556 16.628 17.5556 16.3333V6.33334C17.5556 6.03865 17.4385 5.75604 17.2301 5.54766C17.0217 5.33929 16.7391 5.22223 16.4444 5.22223ZM3.11111 6.33334V4.11111H6.71667L8.22778 6.33334H3.11111Z" stroke="#FF0000" stroke-width="0.1" fill="#000000"/>
</svg>