<svg width="20" height="20" viewBox="0 0 20 20" fill="none" xmlns="http://www.w3.org/2000/svg">
  <path d="M2.03831 2.25536C2.07499 2.1796 2.13617 2.11501 2.21423 2.0696C2.2923 2.0242 2.38381 2 2.47739 2H8.52274C8.64931 2 8.77071 2.04425 8.86021 2.12302C8.94972 2.20178 9 2.30861 9 2.42C9 2.53139 8.94972 2.63822 8.86021 2.71698C8.77071 2.79575 8.64931 2.84 8.52274 2.84H3.59737L6.08869 5.1248C6.1723 5.20156 6.21972 5.30337 6.22137 5.4097C6.22303 5.51602 6.17879 5.61893 6.0976 5.69768L3.55601 8.16H8.52274C8.64931 8.16 8.77071 8.20425 8.86021 8.28302C8.94972 8.36178 9 8.46861 9 8.58C9 8.69139 8.94972 8.79822 8.86021 8.87698C8.77071 8.95575 8.64931 9 8.52274 9H2.47739C2.38499 8.99996 2.29459 8.97631 2.21716 8.93193C2.13974 8.88754 2.07862 8.82434 2.04122 8.74998C2.00383 8.67562 1.99176 8.59331 2.00649 8.51304C2.02122 8.43276 2.06212 8.35798 2.12421 8.29776L5.09152 5.42328L2.13249 2.71064C2.06784 2.65121 2.02446 2.57638 2.00772 2.49544C1.99097 2.41451 2.00161 2.33102 2.03831 2.25536Z" fill="white"/>
  <path d="M11.0383 11.2554C11.075 11.1796 11.1362 11.115 11.2142 11.0696C11.2923 11.0242 11.3838 11 11.4774 11H17.5227C17.6493 11 17.7707 11.0442 17.8602 11.123C17.9497 11.2018 18 11.3086 18 11.42C18 11.5314 17.9497 11.6382 17.8602 11.717C17.7707 11.7958 17.6493 11.84 17.5227 11.84H12.5974L15.0887 14.1248C15.1723 14.2016 15.2197 14.3034 15.2214 14.4097C15.223 14.516 15.1788 14.6189 15.0976 14.6977L12.556 17.16H17.5227C17.6493 17.16 17.7707 17.2043 17.8602 17.283C17.9497 17.3618 18 17.4686 18 17.58C18 17.6914 17.9497 17.7982 17.8602 17.877C17.7707 17.9557 17.6493 18 17.5227 18H11.4774C11.385 18 11.2946 17.9763 11.2172 17.9319C11.1397 17.8875 11.0786 17.8243 11.0412 17.75C11.0038 17.6756 10.9918 17.5933 11.0065 17.513C11.0212 17.4328 11.0621 17.358 11.1242 17.2978L14.0915 14.4233L11.1325 11.7106C11.0678 11.6512 11.0245 11.5764 11.0077 11.4954C10.991 11.4145 11.0016 11.331 11.0383 11.2554Z" fill="white"/>
  <path d="M3.71716 15.7172C3.56095 15.8734 3.56095 16.1266 3.71716 16.2828C3.87337 16.4391 4.12663 16.4391 4.28284 16.2828L16.2828 4.28284C16.4391 4.12663 16.4391 3.87337 16.2828 3.71716C16.1266 3.56095 15.8734 3.56095 15.7172 3.71716L3.71716 15.7172Z" fill="white"/>
</svg>
