<svg width="40" height="30" viewBox="0 0 40 30" fill="none" xmlns="http://www.w3.org/2000/svg">
  <path d="M18.5674 18.4004V20H13.2695V18.4004H18.5674ZM13.9395 10.0469V20H11.8887V10.0469H13.9395ZM17.877 14.1006V15.6592H13.2695V14.1006H17.877ZM18.5605 10.0469V11.6533H13.2695V10.0469H18.5605ZM22.8193 20H20.6523L20.666 18.4004H22.8193C23.3571 18.4004 23.8105 18.2796 24.1797 18.0381C24.5488 17.792 24.8268 17.4342 25.0137 16.9648C25.2051 16.4954 25.3008 15.9281 25.3008 15.2627V14.7773C25.3008 14.2669 25.2461 13.818 25.1367 13.4307C25.0319 13.0433 24.8747 12.7174 24.665 12.4531C24.4554 12.1888 24.1979 11.9906 23.8926 11.8584C23.5872 11.7217 23.2363 11.6533 22.8398 11.6533H20.6113V10.0469H22.8398C23.5052 10.0469 24.1136 10.1608 24.665 10.3887C25.221 10.612 25.7018 10.9333 26.1074 11.3525C26.513 11.7718 26.8252 12.2731 27.0439 12.8564C27.2673 13.4352 27.3789 14.0801 27.3789 14.791V15.2627C27.3789 15.9691 27.2673 16.6139 27.0439 17.1973C26.8252 17.7806 26.513 18.2819 26.1074 18.7012C25.7064 19.1159 25.2256 19.4372 24.665 19.665C24.109 19.8883 23.4938 20 22.8193 20ZM21.8145 10.0469V20H19.7637V10.0469H21.8145Z" fill="currentColor"/>
</svg>
