<svg width="20" height="20" viewBox="0 0 20 20" fill="none" xmlns="http://www.w3.org/2000/svg">
  <path d="M10 2V6.5C10 6.89782 10.158 7.27936 10.4393 7.56066C10.7206 7.84196 11.1022 8 11.5 8H16V16.5C16 16.8978 15.842 17.2794 15.5607 17.5607C15.2794 17.842 14.8978 18 14.5 18H10.663C10.9161 17.4665 11.03 16.8776 10.9943 16.2881C10.9586 15.6987 10.7743 15.1279 10.4586 14.6289C10.1429 14.1298 9.70605 13.7188 9.18875 13.434C8.67146 13.1492 8.09051 12.9999 7.5 13H4V3.5C4 3.10218 4.15804 2.72064 4.43934 2.43934C4.72064 2.15804 5.10218 2 5.5 2H10ZM11 2.25V6.5C11 6.63261 11.0527 6.75979 11.1464 6.85355C11.2402 6.94732 11.3674 7 11.5 7H15.75L11 2.25ZM3.5 14C2.83696 14 2.20107 14.2634 1.73223 14.7322C1.26339 15.2011 1 15.837 1 16.5C1 17.163 1.26339 17.7989 1.73223 18.2678C2.20107 18.7366 2.83696 19 3.5 19H4C4.13261 19 4.25979 18.9473 4.35355 18.8536C4.44732 18.7598 4.5 18.6326 4.5 18.5C4.5 18.3674 4.44732 18.2402 4.35355 18.1464C4.25979 18.0527 4.13261 18 4 18H3.5C3.10218 18 2.72064 17.842 2.43934 17.5607C2.15804 17.2794 2 16.8978 2 16.5C2 16.1022 2.15804 15.7206 2.43934 15.4393C2.72064 15.158 3.10218 15 3.5 15H4C4.13261 15 4.25979 14.9473 4.35355 14.8536C4.44732 14.7598 4.5 14.6326 4.5 14.5C4.5 14.3674 4.44732 14.2402 4.35355 14.1464C4.25979 14.0527 4.13261 14 4 14H3.5ZM7 14C6.86739 14 6.74021 14.0527 6.64645 14.1464C6.55268 14.2402 6.5 14.3674 6.5 14.5C6.5 14.6326 6.55268 14.7598 6.64645 14.8536C6.74021 14.9473 6.86739 15 7 15H7.5C7.89782 15 8.27936 15.158 8.56066 15.4393C8.84196 15.7206 9 16.1022 9 16.5C9 16.8978 8.84196 17.2794 8.56066 17.5607C8.27936 17.842 7.89782 18 7.5 18H7C6.86739 18 6.74021 18.0527 6.64645 18.1464C6.55268 18.2402 6.5 18.3674 6.5 18.5C6.5 18.6326 6.55268 18.7598 6.64645 18.8536C6.74021 18.9473 6.86739 19 7 19H7.5C8.16304 19 8.79893 18.7366 9.26777 18.2678C9.73661 17.7989 10 17.163 10 16.5C10 15.837 9.73661 15.2011 9.26777 14.7322C8.79893 14.2634 8.16304 14 7.5 14H7ZM3 16.5C3 16.3674 3.05268 16.2402 3.14645 16.1464C3.24021 16.0527 3.36739 16 3.5 16H7.5C7.63261 16 7.75979 16.0527 7.85355 16.1464C7.94732 16.2402 8 16.3674 8 16.5C8 16.6326 7.94732 16.7598 7.85355 16.8536C7.75979 16.9473 7.63261 17 7.5 17H3.5C3.36739 17 3.24021 16.9473 3.14645 16.8536C3.05268 16.7598 3 16.6326 3 16.5Z" fill="currentColor"/>
</svg>
