<svg width="20" height="20" viewBox="0 0 20 20" fill="none" xmlns="http://www.w3.org/2000/svg">
  <path d="M6.66659 16.1875L4.79159 18.0625C4.62492 18.2292 4.43047 18.3092 4.20825 18.3025C3.98603 18.2959 3.79159 18.2089 3.62492 18.0417C3.47214 17.875 3.39242 17.6806 3.38575 17.4584C3.37909 17.2361 3.45881 17.0417 3.62492 16.875L5.49992 15H4.45825C4.22214 15 4.02436 14.9203 3.86492 14.7609C3.70547 14.6014 3.62547 14.4034 3.62492 14.1667C3.62436 13.93 3.70436 13.7322 3.86492 13.5734C4.02547 13.4145 4.22325 13.3345 4.45825 13.3334H7.49992C7.73603 13.3334 7.93409 13.4134 8.09409 13.5734C8.25409 13.7334 8.33381 13.9311 8.33325 14.1667V17.2084C8.33325 17.4445 8.25325 17.6425 8.09325 17.8025C7.93325 17.9625 7.73547 18.0422 7.49992 18.0417C7.26436 18.0411 7.06659 17.9614 6.90659 17.8025C6.74659 17.6436 6.66659 17.4456 6.66659 17.2084V16.1875ZM10.8333 18.3334C10.5971 18.3334 10.3994 18.2534 10.2399 18.0934C10.0805 17.9334 10.0005 17.7356 9.99992 17.5V14.1667C9.99992 13.4722 9.75686 12.882 9.27075 12.3959C8.78464 11.9097 8.19436 11.6667 7.49992 11.6667H4.16659C3.93047 11.6667 3.7327 11.5867 3.57325 11.4267C3.41381 11.2667 3.33381 11.0689 3.33325 10.8334V3.33335C3.33325 2.87502 3.49659 2.4828 3.82325 2.15669C4.14992 1.83058 4.54214 1.66724 4.99992 1.66669H11.6666L16.6666 6.66669V16.6667C16.6666 17.125 16.5035 17.5175 16.1774 17.8442C15.8513 18.1709 15.4588 18.3339 14.9999 18.3334H10.8333ZM10.8333 7.50002H14.9999L10.8333 3.33335V7.50002Z" fill="white"/>
</svg>
