<svg width="20" height="20" viewBox="0 0 20 20" fill="none" xmlns="http://www.w3.org/2000/svg">
  <path d="M11.6668 10V16.5667C11.7001 16.8167 11.6168 17.0833 11.4251 17.2583C11.348 17.3356 11.2564 17.3969 11.1556 17.4387C11.0548 17.4805 10.9467 17.502 10.8376 17.502C10.7285 17.502 10.6204 17.4805 10.5196 17.4387C10.4188 17.3969 10.3272 17.3356 10.2501 17.2583L8.57511 15.5833C8.48427 15.4944 8.4152 15.3858 8.37328 15.2658C8.33136 15.1458 8.31773 15.0178 8.33344 14.8917V10H8.30844L3.50844 3.85C3.37312 3.67628 3.31205 3.45605 3.3386 3.23744C3.36514 3.01883 3.47714 2.81962 3.65011 2.68333C3.80844 2.56667 3.98344 2.5 4.16678 2.5H15.8334C16.0168 2.5 16.1918 2.56667 16.3501 2.68333C16.5231 2.81962 16.6351 3.01883 16.6616 3.23744C16.6882 3.45605 16.6271 3.67628 16.4918 3.85L11.6918 10H11.6668Z" fill="white"/>
</svg>
