<svg width="40" height="30" viewBox="0 0 40 30" fill="none" xmlns="http://www.w3.org/2000/svg">
  <path d="M2.93945 10.0469V20H0.888672V10.0469H2.93945ZM6.9043 14.2988V15.8984H2.37891V14.2988H6.9043ZM7.38281 10.0469V11.6533H2.37891V10.0469H7.38281ZM16.748 14.791V15.2627C16.748 16.0192 16.6455 16.6982 16.4404 17.2998C16.2354 17.9014 15.946 18.4141 15.5723 18.8379C15.1986 19.2572 14.752 19.5785 14.2324 19.8018C13.7174 20.0251 13.1455 20.1367 12.5166 20.1367C11.8923 20.1367 11.3203 20.0251 10.8008 19.8018C10.2858 19.5785 9.83919 19.2572 9.46094 18.8379C9.08268 18.4141 8.78874 17.9014 8.5791 17.2998C8.37402 16.6982 8.27148 16.0192 8.27148 15.2627V14.791C8.27148 14.0299 8.37402 13.3509 8.5791 12.7539C8.78418 12.1523 9.07357 11.6396 9.44727 11.2158C9.82552 10.792 10.2721 10.4684 10.7871 10.2451C11.3066 10.0218 11.8786 9.91016 12.5029 9.91016C13.1318 9.91016 13.7038 10.0218 14.2188 10.2451C14.7383 10.4684 15.1849 10.792 15.5586 11.2158C15.9368 11.6396 16.2285 12.1523 16.4336 12.7539C16.6432 13.3509 16.748 14.0299 16.748 14.791ZM14.6768 15.2627V14.7773C14.6768 14.2487 14.6289 13.7839 14.5332 13.3828C14.4375 12.9818 14.2962 12.6445 14.1094 12.3711C13.9225 12.0977 13.6947 11.8926 13.4258 11.7559C13.1569 11.6146 12.8493 11.5439 12.5029 11.5439C12.1566 11.5439 11.849 11.6146 11.5801 11.7559C11.3158 11.8926 11.0902 12.0977 10.9033 12.3711C10.721 12.6445 10.582 12.9818 10.4863 13.3828C10.3906 13.7839 10.3428 14.2487 10.3428 14.7773V15.2627C10.3428 15.7868 10.3906 16.2516 10.4863 16.6572C10.582 17.0583 10.7233 17.3978 10.9102 17.6758C11.097 17.9492 11.3249 18.1566 11.5938 18.2979C11.8626 18.4391 12.1702 18.5098 12.5166 18.5098C12.863 18.5098 13.1706 18.4391 13.4395 18.2979C13.7083 18.1566 13.9339 17.9492 14.1162 17.6758C14.2985 17.3978 14.4375 17.0583 14.5332 16.6572C14.6289 16.2516 14.6768 15.7868 14.6768 15.2627ZM21.9844 14.9551V16.5H18.1221V14.9551H21.9844ZM30.4268 18.4004V20H25.1289V18.4004H30.4268ZM25.7988 10.0469V20H23.748V10.0469H25.7988ZM29.7363 14.1006V15.6592H25.1289V14.1006H29.7363ZM30.4199 10.0469V11.6533H25.1289V10.0469H30.4199ZM34.6787 20H32.5117L32.5254 18.4004H34.6787C35.2165 18.4004 35.6699 18.2796 36.0391 18.0381C36.4082 17.792 36.6862 17.4342 36.873 16.9648C37.0645 16.4954 37.1602 15.9281 37.1602 15.2627V14.7773C37.1602 14.2669 37.1055 13.818 36.9961 13.4307C36.8913 13.0433 36.734 12.7174 36.5244 12.4531C36.3148 12.1888 36.0573 11.9906 35.752 11.8584C35.4466 11.7217 35.0957 11.6533 34.6992 11.6533H32.4707V10.0469H34.6992C35.3646 10.0469 35.973 10.1608 36.5244 10.3887C37.0804 10.612 37.5612 10.9333 37.9668 11.3525C38.3724 11.7718 38.6846 12.2731 38.9033 12.8564C39.1266 13.4352 39.2383 14.0801 39.2383 14.791V15.2627C39.2383 15.9691 39.1266 16.6139 38.9033 17.1973C38.6846 17.7806 38.3724 18.2819 37.9668 18.7012C37.5658 19.1159 37.085 19.4372 36.5244 19.665C35.9684 19.8883 35.3532 20 34.6787 20ZM33.6738 10.0469V20H31.623V10.0469H33.6738Z" fill="currentColor"/>
</svg>
