<svg width="20" height="20" viewBox="0 0 20 20" fill="none" xmlns="http://www.w3.org/2000/svg">
  <path d="M17.8571 6.78568V12.7378C17.4594 12.5796 17.0351 12.4988 16.6071 12.5H12.6785C12.0561 12.5002 11.4456 12.6717 10.9141 12.9956C10.3825 13.3195 9.95026 13.7834 9.66464 14.3365C9.37903 14.8895 9.25104 15.5105 9.29469 16.1315C9.33833 16.7524 9.55193 17.3494 9.91211 17.8571H4.46425C3.84857 17.8571 3.25811 17.6125 2.82275 17.1772C2.3874 16.7418 2.14282 16.1514 2.14282 15.5357V6.78568H17.8571ZM15.5357 2.14282C16.1514 2.14282 16.7418 2.3874 17.1772 2.82275C17.6125 3.25811 17.8571 3.84857 17.8571 4.46425V5.71425H2.14282V4.46425C2.14282 3.84857 2.3874 3.25811 2.82275 2.82275C3.25811 2.3874 3.84857 2.14282 4.46425 2.14282H15.5357ZM12.6785 14.2857C12.2523 14.2857 11.8435 14.455 11.5421 14.7564C11.2407 15.0578 11.0714 15.4666 11.0714 15.8928C11.0714 16.3191 11.2407 16.7278 11.5421 17.0292C11.8435 17.3306 12.2523 17.5 12.6785 17.5H13.0357C13.1778 17.5 13.314 17.5564 13.4145 17.6569C13.515 17.7573 13.5714 17.8936 13.5714 18.0357C13.5714 18.1778 13.515 18.314 13.4145 18.4145C13.314 18.515 13.1778 18.5714 13.0357 18.5714H12.6785C11.9681 18.5714 11.2868 18.2892 10.7845 17.7869C10.2822 17.2845 9.99996 16.6032 9.99996 15.8928C9.99996 15.1824 10.2822 14.5011 10.7845 13.9988C11.2868 13.4965 11.9681 13.2143 12.6785 13.2143H13.0357C13.1778 13.2143 13.314 13.2707 13.4145 13.3712C13.515 13.4716 13.5714 13.6079 13.5714 13.75C13.5714 13.892 13.515 14.0283 13.4145 14.1288C13.314 14.2292 13.1778 14.2857 13.0357 14.2857H12.6785ZM12.1428 15.8928C12.1428 15.7507 12.1993 15.6145 12.2997 15.514C12.4002 15.4135 12.5365 15.3571 12.6785 15.3571H16.6071C16.7492 15.3571 16.8854 15.4135 16.9859 15.514C17.0864 15.6145 17.1428 15.7507 17.1428 15.8928C17.1428 16.0349 17.0864 16.1712 16.9859 16.2716C16.8854 16.3721 16.7492 16.4285 16.6071 16.4285H12.6785C12.5365 16.4285 12.4002 16.3721 12.2997 16.2716C12.1993 16.1712 12.1428 16.0349 12.1428 15.8928ZM16.6071 17.5C17.0333 17.5 17.4421 17.3306 17.7435 17.0292C18.0449 16.7278 18.2143 16.3191 18.2143 15.8928C18.2143 15.4666 18.0449 15.0578 17.7435 14.7564C17.4421 14.455 17.0333 14.2857 16.6071 14.2857H16.25C16.1079 14.2857 15.9716 14.2292 15.8712 14.1288C15.7707 14.0283 15.7142 13.892 15.7142 13.75C15.7142 13.6079 15.7707 13.4716 15.8712 13.3712C15.9716 13.2707 16.1079 13.2143 16.25 13.2143H16.6071C17.3175 13.2143 17.9988 13.4965 18.5011 13.9988C19.0035 14.5011 19.2857 15.1824 19.2857 15.8928C19.2857 16.6032 19.0035 17.2845 18.5011 17.7869C17.9988 18.2892 17.3175 18.5714 16.6071 18.5714H16.25C16.1079 18.5714 15.9716 18.515 15.8712 18.4145C15.7707 18.314 15.7142 18.1778 15.7142 18.0357C15.7142 17.8936 15.7707 17.7573 15.8712 17.6569C15.9716 17.5564 16.1079 17.5 16.25 17.5H16.6071Z" fill="currentColor"/>
</svg>
