<svg width="20" height="20" viewBox="0 0 20 20" fill="none" xmlns="http://www.w3.org/2000/svg">
<path d="M9.79167 15.8327H9.58333C7.61111 15.8327 5.9375 15.1452 4.5625 13.7702C3.1875 12.3952 2.5 10.7216 2.5 8.74935C2.5 6.77713 3.1875 5.10352 4.5625 3.72852C5.9375 2.35352 7.61111 1.66602 9.58333 1.66602C10.5694 1.66602 11.4897 1.8499 12.3442 2.21768C13.1986 2.58546 13.9486 3.0924 14.5942 3.73852C15.2397 4.38463 15.7464 5.13463 16.1142 5.98852C16.4819 6.8424 16.6661 7.76268 16.6667 8.74935C16.6667 10.6105 16.1422 12.3396 15.0933 13.9368C14.0444 15.5341 12.7217 16.7841 11.125 17.6868C10.9861 17.7563 10.8472 17.7946 10.7083 17.8018C10.5694 17.8091 10.4444 17.7777 10.3333 17.7077C10.2222 17.6377 10.125 17.5474 10.0417 17.4368C9.95833 17.3263 9.90972 17.1943 9.89583 17.041L9.79167 15.8327ZM9.5625 13.3118C9.79861 13.3118 10 13.2285 10.1667 13.0618C10.3333 12.8952 10.4167 12.6938 10.4167 12.4577C10.4167 12.2216 10.3333 12.0202 10.1667 11.8535C10 11.6868 9.79861 11.6035 9.5625 11.6035C9.32639 11.6035 9.125 11.6868 8.95833 11.8535C8.79167 12.0202 8.70833 12.2216 8.70833 12.4577C8.70833 12.6938 8.79167 12.8952 8.95833 13.0618C9.125 13.2285 9.32639 13.3118 9.5625 13.3118ZM7.75 6.97852C7.90278 7.04796 8.05556 7.05157 8.20833 6.98935C8.36111 6.92713 8.48611 6.82629 8.58333 6.68685C8.70833 6.52018 8.85417 6.39157 9.02083 6.30102C9.1875 6.21046 9.375 6.16546 9.58333 6.16602C9.91667 6.16602 10.1875 6.25963 10.3958 6.44685C10.6042 6.63407 10.7083 6.87379 10.7083 7.16602C10.7083 7.34657 10.6564 7.52713 10.5525 7.70768C10.4486 7.88824 10.2644 8.11046 10 8.37435C9.65278 8.6799 9.39583 8.96824 9.22917 9.23935C9.0625 9.51046 8.97917 9.78463 8.97917 10.0618C8.97917 10.2285 9.03833 10.371 9.15667 10.4893C9.275 10.6077 9.41722 10.6666 9.58333 10.666C9.74944 10.6655 9.88833 10.603 10 10.4785C10.1117 10.3541 10.195 10.2082 10.25 10.041C10.3194 9.8049 10.4444 9.58963 10.625 9.39518C10.8056 9.20074 10.9722 9.02713 11.125 8.87435C11.4167 8.58268 11.6356 8.29102 11.7817 7.99935C11.9278 7.70768 12.0006 7.41602 12 7.12435C12 6.48546 11.7811 5.97157 11.3433 5.58268C10.9056 5.19379 10.3189 4.99935 9.58333 4.99935C9.13889 4.99935 8.72917 5.10713 8.35417 5.32268C7.97917 5.53824 7.67361 5.83324 7.4375 6.20768C7.35417 6.36046 7.34361 6.5099 7.40583 6.65602C7.46806 6.80213 7.58278 6.90963 7.75 6.97852Z" fill="currentColor"/>
</svg>
