<svg width="20" height="20" viewBox="0 0 20 20" fill="none" xmlns="http://www.w3.org/2000/svg">
  <path fill-rule="evenodd" clip-rule="evenodd" d="M6.58328 5C6.72578 5 6.85578 5.05389 6.95439 5.14222L7.00384 5.19056L8.968 7.15472C9.07221 7.25889 9.13077 7.40019 9.13079 7.54754C9.13082 7.69489 9.07231 7.83621 8.96814 7.94042C8.86397 8.04463 8.72267 8.10318 8.57532 8.10321C8.42798 8.10323 8.28665 8.04473 8.18245 7.94056L7.13856 6.89667V14.4444C7.13856 14.5918 7.08003 14.7331 6.97584 14.8373C6.87165 14.9415 6.73034 15 6.583 15C6.43566 15 6.29435 14.9415 6.19017 14.8373C6.08598 14.7331 6.02745 14.5918 6.02745 14.4444V6.88889L4.97606 7.94056C4.92446 7.99214 4.86321 8.03305 4.7958 8.06096C4.72839 8.08886 4.65614 8.10322 4.58318 8.10321C4.51022 8.1032 4.43798 8.08881 4.37058 8.06088C4.30318 8.03295 4.24194 7.99202 4.19036 7.94042C4.13878 7.88882 4.09787 7.82757 4.06996 7.76016C4.04205 7.69275 4.0277 7.6205 4.02771 7.54754C4.02774 7.40019 4.08629 7.25889 4.1905 7.15472L6.15439 5.19083L6.18828 5.15944L6.22384 5.13167C6.32078 5.04944 6.44634 5 6.58328 5ZM15.4166 13.3333C15.564 13.3333 15.7053 13.3919 15.8095 13.4961C15.9136 13.6002 15.9722 13.7415 15.9722 13.8889C15.9722 14.0362 15.9136 14.1775 15.8095 14.2817C15.7053 14.3859 15.564 14.4444 15.4166 14.4444H8.74995C8.6026 14.4444 8.4613 14.3859 8.35711 14.2817C8.25292 14.1775 8.19439 14.0362 8.19439 13.8889C8.19439 13.7415 8.25292 13.6002 8.35711 13.4961C8.4613 13.3919 8.6026 13.3333 8.74995 13.3333H15.4166ZM13.1944 11.1111C13.3417 11.1111 13.483 11.1696 13.5872 11.2738C13.6914 11.378 13.7499 11.5193 13.7499 11.6667C13.7499 11.814 13.6914 11.9553 13.5872 12.0595C13.483 12.1637 13.3417 12.2222 13.1944 12.2222H8.74995C8.6026 12.2222 8.4613 12.1637 8.35711 12.0595C8.25292 11.9553 8.19439 11.814 8.19439 11.6667C8.19439 11.5193 8.25292 11.378 8.35711 11.2738C8.4613 11.1696 8.6026 11.1111 8.74995 11.1111H13.1944ZM10.9722 8.88889C11.1195 8.88889 11.2608 8.94742 11.365 9.05161C11.4692 9.15579 11.5277 9.2971 11.5277 9.44444C11.5277 9.59179 11.4692 9.73309 11.365 9.83728C11.2608 9.94147 11.1195 10 10.9722 10H8.74995C8.6026 10 8.4613 9.94147 8.35711 9.83728C8.25292 9.73309 8.19439 9.59179 8.19439 9.44444C8.19439 9.2971 8.25292 9.15579 8.35711 9.05161C8.4613 8.94742 8.6026 8.88889 8.74995 8.88889H10.9722Z" fill="currentColor"/>
</svg>
