<svg width="10" height="14" viewBox="0 0 10 14" fill="none" xmlns="http://www.w3.org/2000/svg">
  <g clip-path="url(#clip0_2755_3001)">
    <path d="M1.17609 4.6266C1.28888 4.73935 1.44183 4.80269 1.60131 4.80269C1.76079 4.80269 1.91374 4.73935 2.02652 4.6266L5.00363 1.64949L7.98074 4.6266C8.09417 4.73616 8.2461 4.79678 8.40379 4.79541C8.56149 4.79404 8.71233 4.73078 8.82384 4.61927C8.93536 4.50776 8.99861 4.35691 8.99998 4.19922C9.00135 4.04153 8.94073 3.8896 8.83117 3.77617L5.42885 0.373846C5.31606 0.261094 5.16311 0.197754 5.00363 0.197754C4.84415 0.197754 4.6912 0.261094 4.57842 0.373846L1.17609 3.77617C1.06334 3.88896 1 4.04191 1 4.20139C1 4.36086 1.06334 4.51381 1.17609 4.6266Z" fill="currentColor"/>
    <path d="M8.82391 9.37389C8.71112 9.26114 8.55817 9.1978 8.39869 9.1978C8.23921 9.1978 8.08626 9.26114 7.97348 9.37389L4.99637 12.351L2.01926 9.37389C1.90583 9.26433 1.7539 9.20371 1.59621 9.20508C1.43851 9.20645 1.28767 9.2697 1.17616 9.38121C1.06464 9.49273 1.00139 9.64357 1.00002 9.80127C0.998652 9.95896 1.05927 10.1109 1.16883 10.2243L4.57115 13.6266C4.68394 13.7394 4.83689 13.8027 4.99637 13.8027C5.15585 13.8027 5.3088 13.7394 5.42158 13.6266L8.82391 10.2243C8.93666 10.1115 9 9.95858 9 9.7991C9 9.63962 8.93666 9.48667 8.82391 9.37389Z" fill="currentColor"/>
  </g>
  <defs>
    <clipPath id="clip0_2755_3001">
      <rect width="14" height="10" fill="white" transform="matrix(0 -1 1 0 0 14)"/>
    </clipPath>
  </defs>
</svg>
