<svg width="24" height="24" viewBox="0 0 24 24" fill="none" xmlns="http://www.w3.org/2000/svg">
  <path d="M7.83335 19.5C7.37501 19.5 6.98279 19.3369 6.65668 19.0108C6.33057 18.6847 6.16724 18.2922 6.16668 17.8333V7C5.93057 7 5.73279 6.92 5.57335 6.76C5.4139 6.6 5.3339 6.40222 5.33335 6.16667C5.33279 5.93111 5.41279 5.73333 5.57335 5.57333C5.7339 5.41333 5.93168 5.33333 6.16668 5.33333H9.50001C9.50001 5.09722 9.58001 4.89944 9.74001 4.74C9.90001 4.58056 10.0978 4.50056 10.3333 4.5H13.6667C13.9028 4.5 14.1008 4.58 14.2608 4.74C14.4208 4.9 14.5006 5.09778 14.5 5.33333H17.8333C18.0695 5.33333 18.2675 5.41333 18.4275 5.57333C18.5875 5.73333 18.6672 5.93111 18.6667 6.16667C18.6661 6.40222 18.5861 6.60028 18.4267 6.76083C18.2672 6.92139 18.0695 7.00111 17.8333 7V17.8333C17.8333 18.2917 17.6703 18.6842 17.3442 19.0108C17.0181 19.3375 16.6256 19.5006 16.1667 19.5H7.83335ZM10.3333 16.1667C10.5695 16.1667 10.7675 16.0867 10.9275 15.9267C11.0875 15.7667 11.1672 15.5689 11.1667 15.3333V9.5C11.1667 9.26389 11.0867 9.06611 10.9267 8.90667C10.7667 8.74722 10.5689 8.66722 10.3333 8.66667C10.0978 8.66611 9.90001 8.74611 9.74001 8.90667C9.58001 9.06722 9.50001 9.265 9.50001 9.5V15.3333C9.50001 15.5694 9.58001 15.7675 9.74001 15.9275C9.90001 16.0875 10.0978 16.1672 10.3333 16.1667ZM13.6667 16.1667C13.9028 16.1667 14.1008 16.0867 14.2608 15.9267C14.4208 15.7667 14.5006 15.5689 14.5 15.3333V9.5C14.5 9.26389 14.42 9.06611 14.26 8.90667C14.1 8.74722 13.9022 8.66722 13.6667 8.66667C13.4311 8.66611 13.2333 8.74611 13.0733 8.90667C12.9133 9.06722 12.8333 9.265 12.8333 9.5V15.3333C12.8333 15.5694 12.9133 15.7675 13.0733 15.9275C13.2333 16.0875 13.4311 16.1672 13.6667 16.1667Z" fill="currentColor"/>
</svg>
