<svg width="20" height="20" viewBox="0 0 20 20" fill="none" xmlns="http://www.w3.org/2000/svg">
  <path fill-rule="evenodd" clip-rule="evenodd" d="M6.5756 5C6.72294 5 6.86425 5.05853 6.96843 5.16272C7.07262 5.2669 7.13115 5.40821 7.13115 5.55555V13.111L8.18253 12.0594C8.28673 11.9552 8.42805 11.8967 8.5754 11.8967C8.72274 11.8967 8.86404 11.9553 8.96821 12.0595C9.07238 12.1637 9.13089 12.305 9.13086 12.4524C9.13084 12.5997 9.07228 12.741 8.96807 12.8452L7.0042 14.8091L6.97032 14.8405L6.93476 14.8682C6.83229 14.9551 6.70182 15.0019 6.56751 14.9999C6.43319 14.998 6.30413 14.9475 6.20421 14.8577L6.15477 14.8093L4.19062 12.8452C4.13902 12.7936 4.09809 12.7324 4.07016 12.665C4.04223 12.5976 4.02784 12.5253 4.02783 12.4524C4.02782 12.3794 4.04218 12.3072 4.07008 12.2398C4.09799 12.1724 4.1389 12.1111 4.19048 12.0595C4.24206 12.0079 4.3033 11.967 4.3707 11.939C4.4381 11.9111 4.51034 11.8967 4.5833 11.8967C4.73064 11.8967 4.87196 11.9552 4.97617 12.0594L6.02005 13.1033V5.55555C6.02005 5.40821 6.07858 5.2669 6.18277 5.16272C6.28695 5.05853 6.42826 5 6.5756 5ZM10.9722 9.99995C11.1196 9.99995 11.2609 10.0585 11.3651 10.1627C11.4692 10.2669 11.5278 10.4082 11.5278 10.5555C11.5278 10.7028 11.4692 10.8441 11.3651 10.9483C11.2609 11.0525 11.1196 11.111 10.9722 11.111H8.75002C8.60268 11.111 8.46137 11.0525 8.35719 10.9483C8.253 10.8441 8.19447 10.7028 8.19447 10.5555C8.19447 10.4082 8.253 10.2669 8.35719 10.1627C8.46137 10.0585 8.60268 9.99995 8.75002 9.99995H10.9722ZM13.1944 7.77775C13.3418 7.77775 13.4831 7.83628 13.5873 7.94047C13.6914 8.04465 13.75 8.18596 13.75 8.3333C13.75 8.48064 13.6914 8.62195 13.5873 8.72613C13.4831 8.83032 13.3418 8.88885 13.1944 8.88885H8.75002C8.60268 8.88885 8.46137 8.83032 8.35719 8.72613C8.253 8.62195 8.19447 8.48064 8.19447 8.3333C8.19447 8.18596 8.253 8.04465 8.35719 7.94047C8.46137 7.83628 8.60268 7.77775 8.75002 7.77775H13.1944ZM15.4166 5.55555C15.564 5.55555 15.7053 5.61408 15.8095 5.71827C15.9136 5.82245 15.9722 5.96376 15.9722 6.1111C15.9722 6.25844 15.9136 6.39975 15.8095 6.50393C15.7053 6.60812 15.564 6.66665 15.4166 6.66665H8.75002C8.60268 6.66665 8.46137 6.60812 8.35719 6.50393C8.253 6.39975 8.19447 6.25844 8.19447 6.1111C8.19447 5.96376 8.253 5.82245 8.35719 5.71827C8.46137 5.61408 8.60268 5.55555 8.75002 5.55555H15.4166Z" fill="currentColor"/>
</svg>
