<svg width="20" height="20" viewBox="0 0 20 20" fill="none" xmlns="http://www.w3.org/2000/svg">
  <path d="M10 17.5C8.95833 17.5 7.98278 17.3022 7.07333 16.9067C6.16389 16.5111 5.37222 15.9764 4.69833 15.3025C4.02445 14.6286 3.48972 13.8369 3.09417 12.9275C2.69861 12.0181 2.50056 11.0422 2.5 10C2.49945 8.95778 2.6975 7.98222 3.09417 7.07333C3.49083 6.16444 4.02528 5.37278 4.6975 4.69833C5.36972 4.02389 6.16139 3.48917 7.0725 3.09417C7.98361 2.69917 8.95944 2.50111 10 2.5C11.1389 2.5 12.2189 2.74306 13.24 3.22917C14.2611 3.71528 15.1256 4.40278 15.8333 5.29167V4.16667C15.8333 3.93056 15.9133 3.73278 16.0733 3.57333C16.2333 3.41389 16.4311 3.33389 16.6667 3.33333C16.9022 3.33278 17.1003 3.41278 17.2608 3.57333C17.4214 3.73389 17.5011 3.93167 17.5 4.16667V7.5C17.5 7.73611 17.42 7.93417 17.26 8.09417C17.1 8.25417 16.9022 8.33389 16.6667 8.33333H13.3333C13.0972 8.33333 12.8994 8.25333 12.74 8.09333C12.5806 7.93333 12.5006 7.73556 12.5 7.5C12.4994 7.26444 12.5794 7.06667 12.74 6.90667C12.9006 6.74667 13.0983 6.66667 13.3333 6.66667H14.7917C14.2222 5.88889 13.5208 5.27778 12.6875 4.83333C11.8542 4.38889 10.9583 4.16667 10 4.16667C8.375 4.16667 6.99667 4.73278 5.865 5.865C4.73333 6.99722 4.16722 8.37556 4.16667 10C4.16611 11.6244 4.73222 13.0031 5.865 14.1358C6.99778 15.2686 8.37611 15.8344 10 15.8333C11.3194 15.8333 12.5 15.4375 13.5417 14.6458C14.5833 13.8542 15.2708 12.8333 15.6042 11.5833C15.6736 11.3611 15.7986 11.1944 15.9792 11.0833C16.1597 10.9722 16.3611 10.9306 16.5833 10.9583C16.8194 10.9861 17.0069 11.0867 17.1458 11.26C17.2847 11.4333 17.3264 11.6244 17.2708 11.8333C16.8681 13.4861 15.9931 14.8439 14.6458 15.9067C13.2986 16.9694 11.75 17.5006 10 17.5Z" fill="white"/>
  <path d="M8.52246 11.8662C8.52246 11.7998 8.5127 11.7402 8.49316 11.6875C8.47363 11.6328 8.4375 11.582 8.38477 11.5352C8.33203 11.4883 8.25586 11.4414 8.15625 11.3945C8.05859 11.3457 7.92969 11.2949 7.76953 11.2422C7.58203 11.1797 7.40137 11.1094 7.22754 11.0312C7.05371 10.9512 6.89844 10.8584 6.76172 10.7529C6.625 10.6455 6.5166 10.5205 6.43652 10.3779C6.35645 10.2334 6.31641 10.0654 6.31641 9.87402C6.31641 9.69043 6.35742 9.52539 6.43945 9.37891C6.52148 9.23047 6.63574 9.10449 6.78223 9.00098C6.93066 8.89551 7.10449 8.81543 7.30371 8.76074C7.50293 8.7041 7.7207 8.67578 7.95703 8.67578C8.26953 8.67578 8.54492 8.73047 8.7832 8.83984C9.02344 8.94727 9.21094 9.10059 9.3457 9.2998C9.48242 9.49707 9.55078 9.73047 9.55078 10H8.52832C8.52832 9.89258 8.50586 9.79785 8.46094 9.71582C8.41797 9.63379 8.35254 9.56934 8.26465 9.52246C8.17676 9.47559 8.06641 9.45215 7.93359 9.45215C7.80469 9.45215 7.69629 9.47168 7.6084 9.51074C7.52051 9.5498 7.4541 9.60254 7.40918 9.66895C7.36426 9.7334 7.3418 9.80469 7.3418 9.88281C7.3418 9.94727 7.35938 10.0059 7.39453 10.0586C7.43164 10.1094 7.4834 10.1572 7.5498 10.2021C7.61816 10.2471 7.7002 10.29 7.7959 10.3311C7.89355 10.3721 8.00293 10.4121 8.12402 10.4512C8.35059 10.5234 8.55176 10.6045 8.72754 10.6943C8.90527 10.7822 9.05469 10.8828 9.17578 10.9961C9.29883 11.1074 9.3916 11.2344 9.4541 11.377C9.51855 11.5195 9.55078 11.6807 9.55078 11.8604C9.55078 12.0518 9.51367 12.2217 9.43945 12.3701C9.36523 12.5186 9.25879 12.6445 9.12012 12.748C8.98145 12.8496 8.81543 12.9268 8.62207 12.9795C8.42871 13.0322 8.21289 13.0586 7.97461 13.0586C7.75586 13.0586 7.54004 13.0312 7.32715 12.9766C7.11621 12.9199 6.9248 12.834 6.75293 12.7188C6.58105 12.6016 6.44336 12.4521 6.33984 12.2705C6.23828 12.0869 6.1875 11.8691 6.1875 11.6172H7.21875C7.21875 11.7422 7.23535 11.8477 7.26855 11.9336C7.30176 12.0195 7.35059 12.0889 7.41504 12.1416C7.47949 12.1924 7.55859 12.2295 7.65234 12.2529C7.74609 12.2744 7.85352 12.2852 7.97461 12.2852C8.10547 12.2852 8.21094 12.2666 8.29102 12.2295C8.37109 12.1904 8.42969 12.1396 8.4668 12.0771C8.50391 12.0127 8.52246 11.9424 8.52246 11.8662ZM12.5068 11.5557H13.5322C13.5186 11.8525 13.4385 12.1143 13.292 12.3408C13.1455 12.5674 12.9424 12.7441 12.6826 12.8711C12.4248 12.9961 12.1201 13.0586 11.7686 13.0586C11.4834 13.0586 11.2285 13.0107 11.0039 12.915C10.7812 12.8193 10.5918 12.6816 10.4355 12.502C10.2812 12.3223 10.1631 12.1045 10.0811 11.8486C10.001 11.5928 9.96094 11.3047 9.96094 10.9844V10.7529C9.96094 10.4326 10.0029 10.1445 10.0869 9.88867C10.1729 9.63086 10.2939 9.41211 10.4502 9.23242C10.6084 9.05078 10.7979 8.91211 11.0186 8.81641C11.2393 8.7207 11.4844 8.67285 11.7539 8.67285C12.125 8.67285 12.4385 8.73926 12.6943 8.87207C12.9502 9.00488 13.1484 9.1875 13.2891 9.41992C13.4297 9.65039 13.5127 9.91309 13.5381 10.208H12.5127C12.5088 10.0479 12.4814 9.91406 12.4307 9.80664C12.3799 9.69727 12.2998 9.61523 12.1904 9.56055C12.0811 9.50586 11.9355 9.47852 11.7539 9.47852C11.627 9.47852 11.5166 9.50195 11.4229 9.54883C11.3291 9.5957 11.251 9.66992 11.1885 9.77148C11.126 9.87305 11.0791 10.0049 11.0479 10.167C11.0186 10.3271 11.0039 10.5205 11.0039 10.7471V10.9844C11.0039 11.2109 11.0176 11.4043 11.0449 11.5645C11.0723 11.7246 11.1162 11.8555 11.1768 11.957C11.2373 12.0586 11.3154 12.1338 11.4111 12.1826C11.5088 12.2295 11.6279 12.2529 11.7686 12.2529C11.9248 12.2529 12.0566 12.2285 12.1641 12.1797C12.2715 12.1289 12.3545 12.0527 12.4131 11.9512C12.4717 11.8477 12.5029 11.7158 12.5068 11.5557Z" fill="white"/>
</svg>
