<svg width="20" height="20" viewBox="0 0 20 20" fill="none" xmlns="http://www.w3.org/2000/svg">
  <path d="M10.0001 1.66504C14.6034 1.66504 18.3351 5.39671 18.3351 10C18.3351 14.6025 14.6034 18.3334 10.0001 18.3334C5.39675 18.3334 1.66675 14.6025 1.66675 10C1.66591 5.39671 5.39675 1.66504 10.0001 1.66504ZM9.99675 8.54004C9.79253 8.54032 9.59551 8.61558 9.44312 8.75153C9.29073 8.88749 9.19357 9.07467 9.17008 9.27754L9.16425 9.37421L9.16758 13.9592L9.17258 14.0559C9.19587 14.2591 9.29312 14.4467 9.44579 14.5829C9.59847 14.7191 9.79591 14.7943 10.0005 14.7943C10.2051 14.7943 10.4025 14.7191 10.5552 14.5829C10.7079 14.4467 10.8051 14.2591 10.8284 14.0559L10.8334 13.9584L10.8301 9.37337L10.8242 9.27587C10.8002 9.07317 10.7025 8.88636 10.5498 8.75088C10.3971 8.6154 10.2 8.54067 9.99591 8.54087M10.0001 5.41671C9.72348 5.41671 9.45821 5.52658 9.26263 5.72217C9.06704 5.91775 8.95716 6.18302 8.95716 6.45962C8.95716 6.73622 9.06704 7.00149 9.26263 7.19708C9.45821 7.39266 9.72348 7.50254 10.0001 7.50254C10.2767 7.50254 10.5419 7.39266 10.7375 7.19708C10.9331 7.00149 11.043 6.73622 11.043 6.45962C11.043 6.18302 10.9331 5.91775 10.7375 5.72217C10.5419 5.52658 10.2767 5.41671 10.0001 5.41671Z" fill="white"/>
</svg>
