<svg width="20" height="20" viewBox="0 0 20 20" fill="none" xmlns="http://www.w3.org/2000/svg">
<path d="M13.75 3.95C13.75 3.83954 13.8395 3.75 13.95 3.75H16.675C16.7855 3.75 16.875 3.83954 16.875 3.95V17.925C16.875 18.0355 16.7855 18.125 16.675 18.125H3.325C3.21454 18.125 3.125 18.0355 3.125 17.925V3.95C3.125 3.83954 3.21454 3.75 3.325 3.75H6.05C6.16046 3.75 6.25 3.83954 6.25 3.95V4.8C6.25 4.91046 6.33954 5 6.45 5H13.55C13.6605 5 13.75 4.91046 13.75 4.8V3.95ZM5.625 9.8C5.625 9.91046 5.71454 10 5.825 10H14.175C14.2855 10 14.375 9.91046 14.375 9.8V8.95C14.375 8.83954 14.2855 8.75 14.175 8.75H5.825C5.71454 8.75 5.625 8.83954 5.625 8.95V9.8ZM5.625 14.8C5.625 14.9105 5.71454 15 5.825 15H14.175C14.2855 15 14.375 14.9105 14.375 14.8V13.95C14.375 13.8395 14.2855 13.75 14.175 13.75H5.825C5.71454 13.75 5.625 13.8395 5.625 13.95V14.8ZM7.7 3.75C7.58954 3.75 7.5 3.66046 7.5 3.55V2.075C7.5 1.96454 7.58954 1.875 7.7 1.875H12.3C12.4105 1.875 12.5 1.96454 12.5 2.075V3.55C12.5 3.66046 12.4105 3.75 12.3 3.75H7.7Z" fill="currentColor"/>
</svg>
