<svg width="20" height="20" viewBox="0 0 20 20" fill="none" xmlns="http://www.w3.org/2000/svg">
<path fill-rule="evenodd" clip-rule="evenodd" d="M8.08917 2.00794C7.5 2.53044 7.5 3.48627 7.5 5.3971V14.6038C7.5 16.5146 7.5 17.4704 8.08917 17.9929C8.67833 18.5154 9.57917 18.3588 11.3808 18.0446L13.3225 17.7063C15.3175 17.3579 16.315 17.1838 16.9075 16.4521C17.5 15.7196 17.5 14.6613 17.5 12.5438V7.4571C17.5 5.34044 17.5 4.2821 16.9083 3.5496C16.315 2.81794 15.3167 2.64377 13.3217 2.29627L11.3817 1.95711C9.58 1.64294 8.67917 1.48627 8.09 2.00877M10 8.4746C10.345 8.4746 10.625 8.7671 10.625 9.12794V10.8729C10.625 11.2338 10.345 11.5263 10 11.5263C9.655 11.5263 9.375 11.2338 9.375 10.8729V9.12794C9.375 8.7671 9.655 8.4746 10 8.4746Z" fill="currentColor"/>
<path d="M6.28917 3.75C4.57417 3.7525 3.68 3.79 3.11 4.36C2.5 4.97 2.5 5.95167 2.5 7.91667V12.0833C2.5 14.0475 2.5 15.0292 3.11 15.64C3.68 16.2092 4.57417 16.2475 6.28917 16.25C6.25 15.73 6.25 15.13 6.25 14.4808V5.51917C6.25 4.86917 6.25 4.26917 6.28917 3.75Z" fill="currentColor"/>
</svg>
