<svg width="15" height="17" viewBox="0 0 15 17" fill="none" xmlns="http://www.w3.org/2000/svg">
<path fill-rule="evenodd" clip-rule="evenodd" d="M5.58917 0.33997C5 0.86247 5 1.8183 5 3.72914V12.9358C5 14.8466 5 15.8025 5.58917 16.325C6.17833 16.8475 7.07917 16.6908 8.88083 16.3766L10.8225 16.0383C12.8175 15.69 13.815 15.5158 14.4075 14.7841C15 14.0516 15 12.9933 15 10.8758V5.78914C15 3.67247 15 2.61414 14.4083 1.88164C13.815 1.14997 12.8167 0.975803 10.8217 0.628303L8.88167 0.289136C7.08 -0.0250303 6.17917 -0.181697 5.59 0.340803M7.5 6.80664C7.845 6.80664 8.125 7.09914 8.125 7.45997V9.20497C8.125 9.5658 7.845 9.8583 7.5 9.8583C7.155 9.8583 6.875 9.5658 6.875 9.20497V7.45997C6.875 7.09914 7.155 6.80664 7.5 6.80664Z" fill="white"/>
<path d="M3.78917 2.08252C2.07417 2.08502 1.18 2.12252 0.61 2.69252C1.19209e-07 3.30252 0 4.28419 0 6.24919V10.4159C0 12.38 1.19209e-07 13.3617 0.61 13.9725C1.18 14.5417 2.07417 14.58 3.78917 14.5825C3.75 14.0625 3.75 13.4625 3.75 12.8134V3.85169C3.75 3.20169 3.75 2.60169 3.78917 2.08252Z" fill="white"/>
</svg>
