<svg width="20" height="20" viewBox="0 0 20 20" fill="none" xmlns="http://www.w3.org/2000/svg">
<path d="M12.0833 19.1673C11.7361 19.1673 11.4411 19.0459 11.1983 18.8032C10.9555 18.5604 10.8339 18.2651 10.8333 17.9173V12.084C10.8333 11.7368 10.955 11.4418 11.1983 11.199C11.4417 10.9562 11.7367 10.8345 12.0833 10.834H17.9167C18.2639 10.834 18.5592 10.9557 18.8025 11.199C19.0458 11.4423 19.1672 11.7373 19.1667 12.084V17.9173C19.1667 18.2645 19.0453 18.5598 18.8025 18.8032C18.5597 19.0465 18.2644 19.1679 17.9167 19.1673H12.0833ZM8.39582 18.334C8.18748 18.334 8.01748 18.2748 7.88582 18.1565C7.75415 18.0382 7.67415 17.889 7.64582 17.709L7.37498 15.709C7.19443 15.6395 7.02443 15.5562 6.86498 15.459C6.70554 15.3618 6.54915 15.2576 6.39582 15.1465L5.10415 15.6882C4.75693 15.8409 4.40971 15.8548 4.06248 15.7298C3.71526 15.6048 3.44443 15.3826 3.24998 15.0632L2.27082 13.3548C2.07637 13.0354 2.02082 12.6951 2.10415 12.334C2.18748 11.9729 2.37498 11.6743 2.66665 11.4382L3.77082 10.6048C3.75693 10.5076 3.74998 10.414 3.74998 10.324V9.76065C3.74998 9.67065 3.75693 9.57704 3.77082 9.47982L2.66665 8.64648C2.37498 8.41037 2.18748 8.11176 2.10415 7.75065C2.02082 7.38954 2.07637 7.04926 2.27082 6.72982L3.24998 5.02148C3.44443 4.70204 3.71526 4.47982 4.06248 4.35482C4.40971 4.22982 4.75693 4.24371 5.10415 4.39648L6.39582 4.93815C6.5486 4.82704 6.70832 4.72287 6.87498 4.62565C7.04165 4.52843 7.20832 4.4451 7.37498 4.37565L7.56248 3.00065C7.61804 2.63954 7.78137 2.33398 8.05248 2.08398C8.3236 1.83398 8.64637 1.70898 9.02082 1.70898H10.9792C11.3542 1.70898 11.6772 1.83398 11.9483 2.08398C12.2194 2.33398 12.3825 2.63954 12.4375 3.00065L12.625 4.37565C12.8055 4.4451 12.9758 4.52843 13.1358 4.62565C13.2958 4.72287 13.4519 4.82704 13.6042 4.93815L14.8958 4.39648C15.243 4.24371 15.5903 4.22982 15.9375 4.35482C16.2847 4.47982 16.5555 4.70204 16.75 5.02148L17.7292 6.72982C17.9236 7.04926 17.9792 7.38954 17.8958 7.75065C17.8125 8.11176 17.625 8.41037 17.3333 8.64648L16.8125 9.02148C16.743 9.07704 16.6667 9.11537 16.5833 9.13648C16.5 9.1576 16.4167 9.16787 16.3333 9.16732H13.1042C13.0208 9.16732 12.9444 9.13954 12.875 9.08398C12.8055 9.02843 12.7569 8.96593 12.7291 8.89648C12.5069 8.36871 12.1561 7.93482 11.6767 7.59482C11.1972 7.25482 10.6522 7.08454 10.0417 7.08398C9.23609 7.08398 8.54859 7.36871 7.97915 7.93815C7.40971 8.5076 7.12498 9.1951 7.12498 10.0007C7.12498 10.6118 7.28832 11.157 7.61498 11.6365C7.94165 12.1159 8.3686 12.4665 8.89582 12.6882C8.96526 12.7159 9.02776 12.7645 9.08332 12.834C9.13887 12.9034 9.16665 12.9798 9.16665 13.0632V17.6257C9.16665 17.8201 9.09387 17.9868 8.94832 18.1257C8.80276 18.2645 8.6186 18.334 8.39582 18.334ZM15 15.834C14.6528 15.834 14.3125 15.8793 13.9791 15.9698C13.6458 16.0604 13.3333 16.2026 13.0416 16.3965C12.8611 16.5076 12.7255 16.6257 12.635 16.7507C12.5444 16.8757 12.4994 17.0076 12.5 17.1465C12.5 17.2437 12.5347 17.327 12.6042 17.3965C12.6736 17.4659 12.7569 17.5007 12.8542 17.5007H17.2292C17.2986 17.5007 17.3611 17.4659 17.4167 17.3965C17.4722 17.327 17.5 17.2437 17.5 17.1465C17.5 17.0076 17.455 16.8757 17.365 16.7507C17.275 16.6257 17.1394 16.5076 16.9583 16.3965C16.6667 16.202 16.3542 16.0595 16.0208 15.969C15.6875 15.8784 15.3472 15.8334 15 15.834ZM15 15.0007C15.3472 15.0007 15.6425 14.8793 15.8858 14.6365C16.1292 14.3937 16.2505 14.0984 16.25 13.7507C16.2494 13.4029 16.128 13.1079 15.8858 12.8657C15.6436 12.6234 15.3483 12.5018 15 12.5007C14.6517 12.4995 14.3567 12.6212 14.115 12.8657C13.8733 13.1101 13.7517 13.4051 13.75 13.7507C13.7483 14.0962 13.87 14.3915 14.115 14.6365C14.36 14.8815 14.655 15.0029 15 15.0007Z" fill="currentColor"/>
</svg>
