<svg width="20" height="20" viewBox="0 0 20 20" fill="none" xmlns="http://www.w3.org/2000/svg">
  <path fill-rule="evenodd" clip-rule="evenodd" d="M15.3333 3.83333V6.33333H17.8333C18.0543 6.33333 18.2663 6.42113 18.4226 6.57741C18.5789 6.73369 18.6667 6.94565 18.6667 7.16667V15.5C18.6667 16.163 18.4033 16.7989 17.9344 17.2678C17.4656 17.7366 16.8297 18 16.1667 18H4.5C3.83696 18 3.20107 17.7366 2.73223 17.2678C2.26339 16.7989 2 16.163 2 15.5V3.83333C2 3.61232 2.0878 3.40036 2.24408 3.24408C2.40036 3.0878 2.61232 3 2.83333 3H14.5C14.721 3 14.933 3.0878 15.0893 3.24408C15.2455 3.40036 15.3333 3.61232 15.3333 3.83333ZM17 15.5C17 15.721 16.9122 15.933 16.7559 16.0893C16.5996 16.2455 16.3877 16.3333 16.1667 16.3333C15.9457 16.3333 15.7337 16.2455 15.5774 16.0893C15.4211 15.933 15.3333 15.721 15.3333 15.5V8H17V15.5ZM5.33333 7.16667C5.33333 6.94565 5.42113 6.73369 5.57741 6.57741C5.73369 6.42113 5.94565 6.33333 6.16667 6.33333H11.1667C11.3877 6.33333 11.5996 6.42113 11.7559 6.57741C11.9122 6.73369 12 6.94565 12 7.16667C12 7.38768 11.9122 7.59964 11.7559 7.75592C11.5996 7.9122 11.3877 8 11.1667 8H6.16667C5.94565 8 5.73369 7.9122 5.57741 7.75592C5.42113 7.59964 5.33333 7.38768 5.33333 7.16667ZM7 10.5C7 10.279 7.0878 10.067 7.24408 9.91074C7.40036 9.75446 7.61232 9.66667 7.83333 9.66667H11.1667C11.3877 9.66667 11.5996 9.75446 11.7559 9.91074C11.9122 10.067 12 10.279 12 10.5C12 10.721 11.9122 10.933 11.7559 11.0893C11.5996 11.2455 11.3877 11.3333 11.1667 11.3333H7.83333C7.61232 11.3333 7.40036 11.2455 7.24408 11.0893C7.0878 10.933 7 10.721 7 10.5Z" fill="#CCCCCC"/>
</svg>
