<svg width="12" height="12" viewBox="0 0 12 12" fill="none" xmlns="http://www.w3.org/2000/svg">
<path d="M0.166656 1.77083C0.166656 1.20733 0.62399 0.75 1.18749 0.75H4.08724C4.42557 0.75 4.74057 0.916833 4.93132 1.19625L5.75032 2.39967C5.76367 2.41942 5.78166 2.43559 5.80271 2.44678C5.82376 2.45797 5.84723 2.46382 5.87107 2.46383H9.50174C10.0652 2.46383 10.5226 2.92058 10.5226 3.48467V3.55292H2.15466C2.02648 3.55732 1.90502 3.61133 1.8159 3.70357C1.72679 3.7958 1.67697 3.91904 1.67697 4.04729C1.67697 4.17554 1.72679 4.29878 1.8159 4.39102C1.90502 4.48325 2.02648 4.53726 2.15466 4.54167H11.187C11.2686 4.54165 11.3493 4.55877 11.424 4.59191C11.4986 4.62505 11.5654 4.67349 11.6201 4.73408C11.6748 4.79467 11.7162 4.86606 11.7415 4.94365C11.7669 5.02124 11.7757 5.10329 11.7674 5.1845L11.25 10.2292C11.1882 10.8417 10.7927 11.25 10.2292 11.25H1.18749C0.916748 11.25 0.657095 11.1424 0.465652 10.951C0.274208 10.7596 0.166656 10.4999 0.166656 10.2292V1.77083Z" fill="#999999"/>
</svg>
