<svg width="20" height="20" viewBox="0 0 20 20" fill="none" xmlns="http://www.w3.org/2000/svg">
  <path d="M2.50008 8.33333H17.5001V16.67C17.5001 17.1283 17.1292 17.5 16.6726 17.5H3.32758C3.21873 17.4999 3.11097 17.4783 3.01046 17.4365C2.90995 17.3948 2.81866 17.3336 2.74181 17.2565C2.66496 17.1794 2.60405 17.0879 2.56258 16.9873C2.5211 16.8867 2.49986 16.7788 2.50008 16.67V8.33333ZM7.50008 10V11.6667H12.5001V10H7.50008ZM1.66675 3.33333C1.66675 2.87333 2.04591 2.5 2.49341 2.5H17.5067C17.9634 2.5 18.3334 2.87 18.3334 3.33333V6.66667H1.66675V3.33333Z" fill="currentColor"/>
</svg>
