<svg width="40" height="30" viewBox="0 0 40 30" fill="none" xmlns="http://www.w3.org/2000/svg">
  <path d="M19.0645 14.791V15.2627C19.0645 16.0192 18.9619 16.6982 18.7568 17.2998C18.5518 17.9014 18.2624 18.4141 17.8887 18.8379C17.515 19.2572 17.0684 19.5785 16.5488 19.8018C16.0339 20.0251 15.4619 20.1367 14.833 20.1367C14.2087 20.1367 13.6367 20.0251 13.1172 19.8018C12.6022 19.5785 12.1556 19.2572 11.7773 18.8379C11.3991 18.4141 11.1051 17.9014 10.8955 17.2998C10.6904 16.6982 10.5879 16.0192 10.5879 15.2627V14.791C10.5879 14.0299 10.6904 13.3509 10.8955 12.7539C11.1006 12.1523 11.39 11.6396 11.7637 11.2158C12.1419 10.792 12.5885 10.4684 13.1035 10.2451C13.623 10.0218 14.195 9.91016 14.8193 9.91016C15.4482 9.91016 16.0202 10.0218 16.5352 10.2451C17.0547 10.4684 17.5013 10.792 17.875 11.2158C18.2533 11.6396 18.5449 12.1523 18.75 12.7539C18.9596 13.3509 19.0645 14.0299 19.0645 14.791ZM16.9932 15.2627V14.7773C16.9932 14.2487 16.9453 13.7839 16.8496 13.3828C16.7539 12.9818 16.6126 12.6445 16.4258 12.3711C16.2389 12.0977 16.0111 11.8926 15.7422 11.7559C15.4733 11.6146 15.1657 11.5439 14.8193 11.5439C14.473 11.5439 14.1654 11.6146 13.8965 11.7559C13.6322 11.8926 13.4066 12.0977 13.2197 12.3711C13.0374 12.6445 12.8984 12.9818 12.8027 13.3828C12.707 13.7839 12.6592 14.2487 12.6592 14.7773V15.2627C12.6592 15.7868 12.707 16.2516 12.8027 16.6572C12.8984 17.0583 13.0397 17.3978 13.2266 17.6758C13.4134 17.9492 13.6413 18.1566 13.9102 18.2979C14.179 18.4391 14.4867 18.5098 14.833 18.5098C15.1794 18.5098 15.487 18.4391 15.7559 18.2979C16.0247 18.1566 16.2503 17.9492 16.4326 17.6758C16.6149 17.3978 16.7539 17.0583 16.8496 16.6572C16.9453 16.2516 16.9932 15.7868 16.9932 15.2627ZM24.4375 11.749L21.7305 20H19.5498L23.248 10.0469H24.6357L24.4375 11.749ZM26.6865 20L23.9727 11.749L23.7539 10.0469H25.1553L28.874 20H26.6865ZM26.5635 16.2949V17.9014H21.3066V16.2949H26.5635Z" fill="currentColor"/>
</svg>
