<svg width="40" height="30" viewBox="0 0 40 30" fill="none" xmlns="http://www.w3.org/2000/svg">
  <path d="M13.7646 16.4521H11.2285V14.8525H13.7646C14.1566 14.8525 14.4756 14.7887 14.7217 14.6611C14.9678 14.529 15.1478 14.3467 15.2617 14.1143C15.3757 13.8818 15.4326 13.6198 15.4326 13.3281C15.4326 13.0319 15.3757 12.7562 15.2617 12.501C15.1478 12.2458 14.9678 12.0407 14.7217 11.8857C14.4756 11.7308 14.1566 11.6533 13.7646 11.6533H11.9395V20H9.88867V10.0469H13.7646C14.5439 10.0469 15.2116 10.1882 15.7676 10.4707C16.3281 10.7487 16.7565 11.1338 17.0527 11.626C17.349 12.1182 17.4971 12.681 17.4971 13.3145C17.4971 13.957 17.349 14.513 17.0527 14.9824C16.7565 15.4518 16.3281 15.8141 15.7676 16.0693C15.2116 16.3245 14.5439 16.4521 13.7646 16.4521ZM19.8486 10.0469H21.585L24.1416 17.3545L26.6982 10.0469H28.4346L24.8389 20H23.4443L19.8486 10.0469ZM18.9121 10.0469H20.6416L20.9561 17.1699V20H18.9121V10.0469ZM27.6416 10.0469H29.3779V20H27.3271V17.1699L27.6416 10.0469Z" fill="currentColor"/>
</svg>
