<svg width="40" height="30" viewBox="0 0 40 30" fill="none" xmlns="http://www.w3.org/2000/svg">
  <path d="M10.7646 16.4521H8.22852V14.8525H10.7646C11.1566 14.8525 11.4756 14.7887 11.7217 14.6611C11.9678 14.529 12.1478 14.3467 12.2617 14.1143C12.3757 13.8818 12.4326 13.6198 12.4326 13.3281C12.4326 13.0319 12.3757 12.7562 12.2617 12.501C12.1478 12.2458 11.9678 12.0407 11.7217 11.8857C11.4756 11.7308 11.1566 11.6533 10.7646 11.6533H8.93945V20H6.88867V10.0469H10.7646C11.5439 10.0469 12.2116 10.1882 12.7676 10.4707C13.3281 10.7487 13.7565 11.1338 14.0527 11.626C14.349 12.1182 14.4971 12.681 14.4971 13.3145C14.4971 13.957 14.349 14.513 14.0527 14.9824C13.7565 15.4518 13.3281 15.8141 12.7676 16.0693C12.2116 16.3245 11.5439 16.4521 10.7646 16.4521ZM20.3623 10.0469V20H18.3184V10.0469H20.3623ZM23.4248 10.0469V11.6533H15.3037V10.0469H23.4248ZM29.666 17.3955C29.666 17.2178 29.6387 17.0583 29.584 16.917C29.5339 16.7712 29.4382 16.639 29.2969 16.5205C29.1556 16.3975 28.9574 16.2767 28.7021 16.1582C28.4469 16.0397 28.1165 15.9167 27.7109 15.7891C27.2598 15.6432 26.8314 15.4792 26.4258 15.2969C26.0247 15.1146 25.6693 14.9027 25.3594 14.6611C25.054 14.415 24.8125 14.1302 24.6348 13.8066C24.4616 13.4831 24.375 13.1071 24.375 12.6787C24.375 12.264 24.4661 11.888 24.6484 11.5508C24.8307 11.209 25.0859 10.9173 25.4141 10.6758C25.7422 10.4297 26.1296 10.2406 26.5762 10.1084C27.0273 9.97624 27.5218 9.91016 28.0596 9.91016C28.7933 9.91016 29.4336 10.0423 29.9805 10.3066C30.5273 10.571 30.9512 10.9333 31.252 11.3936C31.5573 11.8538 31.71 12.3802 31.71 12.9727H29.6729C29.6729 12.681 29.6113 12.4258 29.4883 12.207C29.3698 11.9837 29.1875 11.8083 28.9414 11.6807C28.6999 11.5531 28.3945 11.4893 28.0254 11.4893C27.6699 11.4893 27.3737 11.5439 27.1367 11.6533C26.8997 11.7581 26.722 11.9017 26.6035 12.084C26.485 12.2617 26.4258 12.4622 26.4258 12.6855C26.4258 12.8542 26.4668 13.0068 26.5488 13.1436C26.6354 13.2803 26.763 13.4079 26.9316 13.5264C27.1003 13.6449 27.3076 13.7565 27.5537 13.8613C27.7998 13.9661 28.0846 14.0687 28.4082 14.1689C28.9505 14.333 29.4268 14.5176 29.8369 14.7227C30.2516 14.9277 30.598 15.1579 30.876 15.4131C31.154 15.6683 31.3636 15.9577 31.5049 16.2812C31.6462 16.6048 31.7168 16.9717 31.7168 17.3818C31.7168 17.8148 31.6325 18.2021 31.4639 18.5439C31.2952 18.8857 31.0514 19.1751 30.7324 19.4121C30.4134 19.6491 30.0329 19.8291 29.5908 19.9521C29.1488 20.0752 28.6543 20.1367 28.1074 20.1367C27.6152 20.1367 27.1299 20.0729 26.6514 19.9453C26.1729 19.8132 25.7376 19.6149 25.3457 19.3506C24.9583 19.0863 24.6484 18.749 24.416 18.3389C24.1836 17.9287 24.0674 17.4434 24.0674 16.8828H26.125C26.125 17.1927 26.1729 17.4548 26.2686 17.6689C26.3643 17.8831 26.4987 18.0563 26.6719 18.1885C26.8496 18.3206 27.0592 18.4163 27.3008 18.4756C27.5469 18.5348 27.8158 18.5645 28.1074 18.5645C28.4629 18.5645 28.7546 18.5143 28.9824 18.4141C29.2148 18.3138 29.3857 18.1748 29.4951 17.9971C29.609 17.8193 29.666 17.6188 29.666 17.3955Z" fill="currentColor"/>
</svg>
