<svg width="40" height="30" viewBox="0 0 40 30" fill="none" xmlns="http://www.w3.org/2000/svg">
  <path d="M17.7646 16.4521H15.2285V14.8525H17.7646C18.1566 14.8525 18.4756 14.7887 18.7217 14.6611C18.9678 14.529 19.1478 14.3467 19.2617 14.1143C19.3757 13.8818 19.4326 13.6198 19.4326 13.3281C19.4326 13.0319 19.3757 12.7562 19.2617 12.501C19.1478 12.2458 18.9678 12.0407 18.7217 11.8857C18.4756 11.7308 18.1566 11.6533 17.7646 11.6533H15.9395V20H13.8887V10.0469H17.7646C18.5439 10.0469 19.2116 10.1882 19.7676 10.4707C20.3281 10.7487 20.7565 11.1338 21.0527 11.626C21.349 12.1182 21.4971 12.681 21.4971 13.3145C21.4971 13.957 21.349 14.513 21.0527 14.9824C20.7565 15.4518 20.3281 15.8141 19.7676 16.0693C19.2116 16.3245 18.5439 16.4521 17.7646 16.4521ZM25.0928 10.0469V20H23.0488V10.0469H25.0928Z" fill="currentColor"/>
</svg>
