<svg width="20" height="20" viewBox="0 0 20 20" fill="none" xmlns="http://www.w3.org/2000/svg">
  <path fill-rule="evenodd" clip-rule="evenodd" d="M1.66675 10.0001C1.66675 6.07175 1.66675 4.10758 2.88675 2.88675C4.10841 1.66675 6.07175 1.66675 10.0001 1.66675C13.9284 1.66675 15.8926 1.66675 17.1126 2.88675C18.3334 4.10841 18.3334 6.07175 18.3334 10.0001C18.3334 13.9284 18.3334 15.8926 17.1126 17.1126C15.8934 18.3334 13.9284 18.3334 10.0001 18.3334C6.07175 18.3334 4.10758 18.3334 2.88675 17.1126C1.66675 15.8934 1.66675 13.9284 1.66675 10.0001ZM14.1667 11.0417C14.294 11.0418 14.4181 11.0806 14.5227 11.1531C14.6272 11.2256 14.7071 11.3282 14.7518 11.4473C14.7964 11.5665 14.8037 11.6964 14.7726 11.8197C14.7414 11.943 14.6734 12.0539 14.5776 12.1376L11.7134 14.6376C11.5885 14.7467 11.4255 14.8016 11.26 14.7905C11.0946 14.7793 10.9404 14.7029 10.8313 14.578C10.7223 14.4531 10.6673 14.29 10.6784 14.1246C10.6896 13.9592 10.766 13.805 10.8909 13.6959L12.5001 12.2917H5.83341C5.66765 12.2917 5.50868 12.2259 5.39147 12.1087C5.27426 11.9915 5.20841 11.8325 5.20841 11.6667C5.20841 11.501 5.27426 11.342 5.39147 11.2248C5.50868 11.1076 5.66765 11.0417 5.83341 11.0417H14.1667ZM9.16925 5.42258C9.27818 5.54747 9.33305 5.7105 9.3218 5.87584C9.31054 6.04117 9.23409 6.19527 9.10925 6.30425L7.50008 7.70841H14.1667C14.3325 7.70841 14.4915 7.77426 14.6087 7.89147C14.7259 8.00868 14.7917 8.16765 14.7917 8.33341C14.7917 8.49918 14.7259 8.65815 14.6087 8.77536C14.4915 8.89257 14.3325 8.95841 14.1667 8.95841H5.83341C5.70621 8.95838 5.58205 8.91952 5.47751 8.84705C5.37297 8.77457 5.29304 8.67193 5.24838 8.55282C5.20373 8.43371 5.19648 8.30381 5.22761 8.18047C5.25873 8.05714 5.32675 7.94624 5.42258 7.86258L8.28675 5.36258C8.34861 5.30852 8.42052 5.26718 8.49836 5.24093C8.57621 5.21469 8.65847 5.20405 8.74044 5.20962C8.8224 5.21519 8.90246 5.23687 8.97604 5.27341C9.04962 5.30995 9.11528 5.36064 9.16925 5.42258Z" fill="currentColor"/>
</svg>
