<svg width="40" height="30" viewBox="0 0 40 30" fill="none" xmlns="http://www.w3.org/2000/svg">
  <path d="M10.7852 15.6318H8.22852L8.21484 14.2236H10.3613C10.7396 14.2236 11.0495 14.1758 11.291 14.0801C11.5326 13.9798 11.7126 13.8363 11.8311 13.6494C11.9541 13.458 12.0156 13.2256 12.0156 12.9521C12.0156 12.6423 11.9564 12.3916 11.8379 12.2002C11.724 12.0088 11.5439 11.8698 11.2979 11.7832C11.0563 11.6966 10.7441 11.6533 10.3613 11.6533H8.93945V20H6.88867V10.0469H10.3613C10.9401 10.0469 11.4574 10.1016 11.9131 10.2109C12.3734 10.3203 12.763 10.4867 13.082 10.71C13.401 10.9333 13.6449 11.2158 13.8135 11.5576C13.9821 11.8949 14.0664 12.2959 14.0664 12.7607C14.0664 13.1709 13.973 13.5492 13.7861 13.8955C13.6038 14.2419 13.3145 14.5244 12.918 14.7432C12.526 14.9619 12.0133 15.0827 11.3799 15.1055L10.7852 15.6318ZM10.6963 20H7.66797L8.46777 18.4004H10.6963C11.0563 18.4004 11.3503 18.3434 11.5781 18.2295C11.806 18.111 11.9746 17.9515 12.084 17.751C12.1934 17.5505 12.248 17.3203 12.248 17.0605C12.248 16.7689 12.1979 16.516 12.0977 16.3018C12.002 16.0876 11.847 15.9235 11.6328 15.8096C11.4186 15.6911 11.1361 15.6318 10.7852 15.6318H8.80957L8.82324 14.2236H11.2842L11.7559 14.7773C12.362 14.7682 12.8496 14.8753 13.2188 15.0986C13.5924 15.3174 13.8636 15.6022 14.0322 15.9531C14.2054 16.304 14.292 16.68 14.292 17.0811C14.292 17.7191 14.153 18.2568 13.875 18.6943C13.597 19.1273 13.1891 19.4531 12.6514 19.6719C12.1182 19.8906 11.4665 20 10.6963 20ZM21.5996 16.6982H23.6436C23.6025 17.3682 23.418 17.9629 23.0898 18.4824C22.7663 19.002 22.3128 19.4076 21.7295 19.6992C21.1507 19.9909 20.4535 20.1367 19.6377 20.1367C18.9997 20.1367 18.4277 20.0273 17.9219 19.8086C17.416 19.5853 16.9831 19.2663 16.623 18.8516C16.2676 18.4368 15.9964 17.9355 15.8096 17.3477C15.6227 16.7598 15.5293 16.1012 15.5293 15.3721V14.6816C15.5293 13.9525 15.625 13.2939 15.8164 12.7061C16.0124 12.1136 16.2904 11.61 16.6504 11.1953C17.015 10.7806 17.4502 10.4616 17.9561 10.2383C18.4619 10.015 19.027 9.90332 19.6514 9.90332C20.4808 9.90332 21.1803 10.0537 21.75 10.3545C22.3242 10.6553 22.7686 11.07 23.083 11.5986C23.402 12.1273 23.5934 12.7288 23.6572 13.4033H21.6064C21.5837 13.0023 21.5039 12.6628 21.3672 12.3848C21.2305 12.1022 21.0231 11.8903 20.7451 11.749C20.4717 11.6032 20.1071 11.5303 19.6514 11.5303C19.3096 11.5303 19.0111 11.5941 18.7559 11.7217C18.5007 11.8493 18.2865 12.043 18.1133 12.3027C17.9401 12.5625 17.8102 12.8906 17.7236 13.2871C17.6416 13.679 17.6006 14.1393 17.6006 14.668V15.3721C17.6006 15.887 17.6393 16.3405 17.7168 16.7324C17.7943 17.1198 17.9128 17.4479 18.0723 17.7168C18.2363 17.9811 18.446 18.1816 18.7012 18.3184C18.9609 18.4505 19.2731 18.5166 19.6377 18.5166C20.0661 18.5166 20.4193 18.4482 20.6973 18.3115C20.9753 18.1748 21.1872 17.972 21.333 17.7031C21.4834 17.4342 21.5723 17.0993 21.5996 16.6982ZM29.0371 11.749L26.3301 20H24.1494L27.8477 10.0469H29.2354L29.0371 11.749ZM31.2861 20L28.5723 11.749L28.3535 10.0469H29.7549L33.4736 20H31.2861ZM31.1631 16.2949V17.9014H25.9062V16.2949H31.1631Z" fill="currentColor"/>
</svg>
