<svg width="20" height="20" viewBox="0 0 20 20" fill="none" xmlns="http://www.w3.org/2000/svg">
  <path d="M9.99992 1.66663L10.0974 1.67246C10.2834 1.6944 10.4566 1.77836 10.5891 1.9108C10.7215 2.04325 10.8055 2.21645 10.8274 2.40246L10.8333 2.49996V5.83329L10.8374 5.95829C10.8672 6.3551 11.038 6.72815 11.319 7.00998C11.5999 7.29182 11.9724 7.46385 12.3691 7.49496L12.4999 7.49996H15.8333L15.9308 7.50579C16.1168 7.52773 16.29 7.61169 16.4224 7.74414C16.5549 7.87658 16.6388 8.04978 16.6608 8.23579L16.6666 8.33329V15.8333C16.6666 16.471 16.423 17.0846 15.9855 17.5485C15.548 18.0125 14.9498 18.2917 14.3133 18.3291L14.1666 18.3333H5.83325C5.19558 18.3333 4.58199 18.0897 4.11803 17.6522C3.65408 17.2148 3.37483 16.6165 3.33742 15.98L3.33325 15.8333V4.16663C3.33322 3.52895 3.57686 2.91536 4.01432 2.45141C4.45179 1.98745 5.05001 1.7082 5.68659 1.67079L5.83325 1.66663H9.99992ZM11.6749 13.3333H11.6666C11.4542 13.3335 11.2499 13.4149 11.0954 13.5607C10.941 13.7065 10.8481 13.9058 10.8356 14.1178C10.8232 14.3298 10.8921 14.5386 11.0285 14.7015C11.1648 14.8644 11.3582 14.969 11.5691 14.9941L11.6749 15C11.8959 15 12.1079 14.9122 12.2642 14.7559C12.4205 14.5996 12.5083 14.3876 12.5083 14.1666C12.5083 13.9456 12.4205 13.7336 12.2642 13.5774C12.1079 13.4211 11.8959 13.3333 11.6749 13.3333ZM12.2558 10.2441C12.0995 10.0879 11.8876 10.0001 11.6666 10.0001C11.4456 10.0001 11.2337 10.0879 11.0774 10.2441L7.74409 13.5775C7.59229 13.7346 7.50829 13.9451 7.51019 14.1636C7.51209 14.3821 7.59973 14.5911 7.75424 14.7456C7.90874 14.9001 8.11775 14.9878 8.33625 14.9897C8.55475 14.9916 8.76525 14.9076 8.92242 14.7558L12.2558 11.4225C12.412 11.2662 12.4997 11.0543 12.4997 10.8333C12.4997 10.6123 12.412 10.4004 12.2558 10.2441ZM8.34159 9.99996H8.33325C8.12085 10.0002 7.91656 10.0815 7.76211 10.2273C7.60766 10.3731 7.51472 10.5724 7.50227 10.7845C7.48983 10.9965 7.55881 11.2053 7.69514 11.3682C7.83146 11.531 8.02484 11.6357 8.23575 11.6608L8.34159 11.6666C8.5626 11.6666 8.77456 11.5788 8.93084 11.4225C9.08712 11.2663 9.17492 11.0543 9.17492 10.8333C9.17492 10.6123 9.08712 10.4003 8.93084 10.244C8.77456 10.0878 8.5626 9.99996 8.34159 9.99996ZM12.4991 2.49913L15.8333 5.83329H12.4999L12.4991 2.49913Z" fill="currentColor"/>
</svg>
