<svg width="20" height="20" viewBox="0 0 20 20" fill="none" xmlns="http://www.w3.org/2000/svg">
  <g clip-path="url(#clip0_522_553)">
    <path d="M17.7778 2.77783H2.2222C1.92751 2.77783 1.64489 2.8949 1.43652 3.10327C1.22815 3.31164 1.11108 3.59426 1.11108 3.88894V16.1112C1.11108 16.4059 1.22815 16.6885 1.43652 16.8968C1.64489 17.1052 1.92751 17.2223 2.2222 17.2223H17.7778C18.0724 17.2223 18.3551 17.1052 18.5634 16.8968C18.7718 16.6885 18.8889 16.4059 18.8889 16.1112V3.88894C18.8889 3.59426 18.7718 3.31164 18.5634 3.10327C18.3551 2.8949 18.0724 2.77783 17.7778 2.77783ZM12.5333 14.4112L8.58886 8.53339L5.06664 13.6889L2.56664 11.4667L3.33331 10.5834L4.83331 11.9112L8.58886 6.42228L12.5833 12.3723L16.4722 7.22228L17.4166 7.93339L12.5333 14.4112Z" fill="currentColor"/>
  </g>
  <defs>
    <clipPath id="clip0_522_553">
      <rect width="20" height="20" fill="currentColor"/>
    </clipPath>
  </defs>
</svg>
