<svg width="40" height="30" viewBox="0 0 40 30" fill="none" xmlns="http://www.w3.org/2000/svg">
  <path d="M10.7852 15.6318H8.22852L8.21484 14.2236H10.3613C10.7396 14.2236 11.0495 14.1758 11.291 14.0801C11.5326 13.9798 11.7126 13.8363 11.8311 13.6494C11.9541 13.458 12.0156 13.2256 12.0156 12.9521C12.0156 12.6423 11.9564 12.3916 11.8379 12.2002C11.724 12.0088 11.5439 11.8698 11.2979 11.7832C11.0563 11.6966 10.7441 11.6533 10.3613 11.6533H8.93945V20H6.88867V10.0469H10.3613C10.9401 10.0469 11.4574 10.1016 11.9131 10.2109C12.3734 10.3203 12.763 10.4867 13.082 10.71C13.401 10.9333 13.6449 11.2158 13.8135 11.5576C13.9821 11.8949 14.0664 12.2959 14.0664 12.7607C14.0664 13.1709 13.973 13.5492 13.7861 13.8955C13.6038 14.2419 13.3145 14.5244 12.918 14.7432C12.526 14.9619 12.0133 15.0827 11.3799 15.1055L10.7852 15.6318ZM10.6963 20H7.66797L8.46777 18.4004H10.6963C11.0563 18.4004 11.3503 18.3434 11.5781 18.2295C11.806 18.111 11.9746 17.9515 12.084 17.751C12.1934 17.5505 12.248 17.3203 12.248 17.0605C12.248 16.7689 12.1979 16.516 12.0977 16.3018C12.002 16.0876 11.847 15.9235 11.6328 15.8096C11.4186 15.6911 11.1361 15.6318 10.7852 15.6318H8.80957L8.82324 14.2236H11.2842L11.7559 14.7773C12.362 14.7682 12.8496 14.8753 13.2188 15.0986C13.5924 15.3174 13.8636 15.6022 14.0322 15.9531C14.2054 16.304 14.292 16.68 14.292 17.0811C14.292 17.7191 14.153 18.2568 13.875 18.6943C13.597 19.1273 13.1891 19.4531 12.6514 19.6719C12.1182 19.8906 11.4665 20 10.6963 20ZM19.7061 16.4521H17.1699V14.8525H19.7061C20.098 14.8525 20.417 14.7887 20.6631 14.6611C20.9092 14.529 21.0892 14.3467 21.2031 14.1143C21.3171 13.8818 21.374 13.6198 21.374 13.3281C21.374 13.0319 21.3171 12.7562 21.2031 12.501C21.0892 12.2458 20.9092 12.0407 20.6631 11.8857C20.417 11.7308 20.098 11.6533 19.7061 11.6533H17.8809V20H15.8301V10.0469H19.7061C20.4854 10.0469 21.153 10.1882 21.709 10.4707C22.2695 10.7487 22.6979 11.1338 22.9941 11.626C23.2904 12.1182 23.4385 12.681 23.4385 13.3145C23.4385 13.957 23.2904 14.513 22.9941 14.9824C22.6979 15.4518 22.2695 15.8141 21.709 16.0693C21.153 16.3245 20.4854 16.4521 19.7061 16.4521ZM30.0352 17.3955C30.0352 17.2178 30.0078 17.0583 29.9531 16.917C29.903 16.7712 29.8073 16.639 29.666 16.5205C29.5247 16.3975 29.3265 16.2767 29.0713 16.1582C28.8161 16.0397 28.4857 15.9167 28.0801 15.7891C27.6289 15.6432 27.2005 15.4792 26.7949 15.2969C26.3939 15.1146 26.0384 14.9027 25.7285 14.6611C25.4232 14.415 25.1816 14.1302 25.0039 13.8066C24.8307 13.4831 24.7441 13.1071 24.7441 12.6787C24.7441 12.264 24.8353 11.888 25.0176 11.5508C25.1999 11.209 25.4551 10.9173 25.7832 10.6758C26.1113 10.4297 26.4987 10.2406 26.9453 10.1084C27.3965 9.97624 27.891 9.91016 28.4287 9.91016C29.1624 9.91016 29.8027 10.0423 30.3496 10.3066C30.8965 10.571 31.3203 10.9333 31.6211 11.3936C31.9264 11.8538 32.0791 12.3802 32.0791 12.9727H30.042C30.042 12.681 29.9805 12.4258 29.8574 12.207C29.7389 11.9837 29.5566 11.8083 29.3105 11.6807C29.069 11.5531 28.7637 11.4893 28.3945 11.4893C28.0391 11.4893 27.7428 11.5439 27.5059 11.6533C27.2689 11.7581 27.0911 11.9017 26.9727 12.084C26.8542 12.2617 26.7949 12.4622 26.7949 12.6855C26.7949 12.8542 26.8359 13.0068 26.918 13.1436C27.0046 13.2803 27.1322 13.4079 27.3008 13.5264C27.4694 13.6449 27.6768 13.7565 27.9229 13.8613C28.1689 13.9661 28.4538 14.0687 28.7773 14.1689C29.3197 14.333 29.7959 14.5176 30.2061 14.7227C30.6208 14.9277 30.9671 15.1579 31.2451 15.4131C31.5231 15.6683 31.7327 15.9577 31.874 16.2812C32.0153 16.6048 32.0859 16.9717 32.0859 17.3818C32.0859 17.8148 32.0016 18.2021 31.833 18.5439C31.6644 18.8857 31.4206 19.1751 31.1016 19.4121C30.7826 19.6491 30.402 19.8291 29.96 19.9521C29.5179 20.0752 29.0234 20.1367 28.4766 20.1367C27.9844 20.1367 27.499 20.0729 27.0205 19.9453C26.542 19.8132 26.1068 19.6149 25.7148 19.3506C25.3275 19.0863 25.0176 18.749 24.7852 18.3389C24.5527 17.9287 24.4365 17.4434 24.4365 16.8828H26.4941C26.4941 17.1927 26.542 17.4548 26.6377 17.6689C26.7334 17.8831 26.8678 18.0563 27.041 18.1885C27.2188 18.3206 27.4284 18.4163 27.6699 18.4756C27.916 18.5348 28.1849 18.5645 28.4766 18.5645C28.832 18.5645 29.1237 18.5143 29.3516 18.4141C29.584 18.3138 29.7549 18.1748 29.8643 17.9971C29.9782 17.8193 30.0352 17.6188 30.0352 17.3955Z" fill="currentColor"/>
</svg>
