<svg width="20" height="20" viewBox="0 0 20 20" fill="none" xmlns="http://www.w3.org/2000/svg">
  <path d="M10.8333 7.49996H15.4166L10.8333 2.91663V7.49996ZM4.99992 1.66663H11.6666L16.6666 6.66663V16.6666C16.6666 17.1087 16.491 17.5326 16.1784 17.8451C15.8659 18.1577 15.4419 18.3333 14.9999 18.3333H4.99992C4.55789 18.3333 4.13397 18.1577 3.82141 17.8451C3.50885 17.5326 3.33325 17.1087 3.33325 16.6666V3.33329C3.33325 2.40829 4.07492 1.66663 4.99992 1.66663ZM5.83325 16.6666H7.49992V11.6666H5.83325V16.6666ZM9.16658 16.6666H10.8333V9.99996H9.16658V16.6666ZM12.4999 16.6666H14.1666V13.3333H12.4999V16.6666Z" fill="currentColor"/>
</svg>
