<svg width="20" height="20" viewBox="0 0 20 20" fill="none" xmlns="http://www.w3.org/2000/svg">
<path d="M10.8333 7.49935H15.4166L10.8333 2.91602V7.49935ZM4.99992 1.66602H11.6666L16.6666 6.66602V16.666C16.6666 17.108 16.491 17.532 16.1784 17.8445C15.8659 18.1571 15.4419 18.3327 14.9999 18.3327H4.99992C4.55789 18.3327 4.13397 18.1571 3.82141 17.8445C3.50885 17.532 3.33325 17.108 3.33325 16.666V3.33268C3.33325 2.40768 4.07492 1.66602 4.99992 1.66602ZM5.83325 16.666H7.49992V11.666H5.83325V16.666ZM9.16658 16.666H10.8333V9.99935H9.16658V16.666ZM12.4999 16.666H14.1666V13.3327H12.4999V16.666Z" fill="currentColor"/>
</svg>
