<svg width="40" height="30" viewBox="0 0 40 30" fill="none" xmlns="http://www.w3.org/2000/svg">
  <path d="M6.88867 10.0469H10.6006C11.3617 10.0469 12.0156 10.1608 12.5625 10.3887C13.1139 10.6165 13.5378 10.9538 13.834 11.4004C14.1302 11.847 14.2783 12.3962 14.2783 13.0479C14.2783 13.5811 14.1872 14.0391 14.0049 14.4219C13.8271 14.8001 13.5742 15.1169 13.2461 15.3721C12.9225 15.6227 12.542 15.8232 12.1045 15.9736L11.4551 16.3154H8.22852L8.21484 14.7158H10.6143C10.9743 14.7158 11.2728 14.652 11.5098 14.5244C11.7467 14.3968 11.9245 14.2191 12.043 13.9912C12.166 13.7633 12.2275 13.499 12.2275 13.1982C12.2275 12.8792 12.1683 12.6035 12.0498 12.3711C11.9313 12.1387 11.7513 11.9609 11.5098 11.8379C11.2682 11.7148 10.9652 11.6533 10.6006 11.6533H8.93945V20H6.88867V10.0469ZM12.4531 20L10.1836 15.5635L12.3506 15.5498L14.6475 19.9043V20H12.4531ZM21.627 16.6982H23.6709C23.6299 17.3682 23.4453 17.9629 23.1172 18.4824C22.7936 19.002 22.3402 19.4076 21.7568 19.6992C21.1781 19.9909 20.4808 20.1367 19.665 20.1367C19.027 20.1367 18.4551 20.0273 17.9492 19.8086C17.4434 19.5853 17.0104 19.2663 16.6504 18.8516C16.2949 18.4368 16.0238 17.9355 15.8369 17.3477C15.6501 16.7598 15.5566 16.1012 15.5566 15.3721V14.6816C15.5566 13.9525 15.6523 13.2939 15.8438 12.7061C16.0397 12.1136 16.3177 11.61 16.6777 11.1953C17.0423 10.7806 17.4775 10.4616 17.9834 10.2383C18.4893 10.015 19.0544 9.90332 19.6787 9.90332C20.5081 9.90332 21.2077 10.0537 21.7773 10.3545C22.3516 10.6553 22.7959 11.07 23.1104 11.5986C23.4294 12.1273 23.6208 12.7288 23.6846 13.4033H21.6338C21.611 13.0023 21.5312 12.6628 21.3945 12.3848C21.2578 12.1022 21.0505 11.8903 20.7725 11.749C20.499 11.6032 20.1344 11.5303 19.6787 11.5303C19.3369 11.5303 19.0384 11.5941 18.7832 11.7217C18.528 11.8493 18.3138 12.043 18.1406 12.3027C17.9674 12.5625 17.8376 12.8906 17.751 13.2871C17.6689 13.679 17.6279 14.1393 17.6279 14.668V15.3721C17.6279 15.887 17.6667 16.3405 17.7441 16.7324C17.8216 17.1198 17.9401 17.4479 18.0996 17.7168C18.2637 17.9811 18.4733 18.1816 18.7285 18.3184C18.9883 18.4505 19.3005 18.5166 19.665 18.5166C20.0934 18.5166 20.4466 18.4482 20.7246 18.3115C21.0026 18.1748 21.2145 17.972 21.3604 17.7031C21.5107 17.4342 21.5996 17.0993 21.627 16.6982ZM29.0645 11.749L26.3574 20H24.1768L27.875 10.0469H29.2627L29.0645 11.749ZM31.3135 20L28.5996 11.749L28.3809 10.0469H29.7822L33.501 20H31.3135ZM31.1904 16.2949V17.9014H25.9336V16.2949H31.1904Z" fill="currentColor"/>
</svg>
