<svg width="20" height="20" viewBox="0 0 20 20" fill="none" xmlns="http://www.w3.org/2000/svg">
<path d="M12.0836 19.1673C11.7363 19.1673 11.4413 19.0459 11.1986 18.8032C10.9558 18.5604 10.8341 18.2651 10.8336 17.9173V12.084C10.8336 11.7368 10.9552 11.4418 11.1986 11.199C11.4419 10.9562 11.7369 10.8345 12.0836 10.834H17.9169C18.2641 10.834 18.5594 10.9557 18.8027 11.199C19.0461 11.4423 19.1675 11.7373 19.1669 12.084V17.9173C19.1669 18.2645 19.0455 18.5598 18.8027 18.8032C18.56 19.0465 18.2647 19.1679 17.9169 19.1673H12.0836ZM8.39606 18.334C8.18773 18.334 8.01773 18.2748 7.88606 18.1565C7.7544 18.0382 7.6744 17.889 7.64606 17.709L7.37523 15.709C7.19467 15.6395 7.02467 15.5562 6.86523 15.459C6.70578 15.3618 6.5494 15.2576 6.39606 15.1465L5.10439 15.6882C4.75717 15.8409 4.40995 15.8548 4.06273 15.7298C3.71551 15.6048 3.44467 15.3826 3.25023 15.0632L2.27106 13.3548C2.07662 13.0354 2.02106 12.6951 2.10439 12.334C2.18773 11.9729 2.37523 11.6743 2.66689 11.4382L3.77106 10.6048C3.75717 10.5076 3.75023 10.414 3.75023 10.324V9.76065C3.75023 9.67065 3.75717 9.57704 3.77106 9.47982L2.66689 8.64648C2.37523 8.41037 2.18773 8.11176 2.10439 7.75065C2.02106 7.38954 2.07662 7.04926 2.27106 6.72982L3.25023 5.02148C3.44467 4.70204 3.71551 4.47982 4.06273 4.35482C4.40995 4.22982 4.75717 4.24371 5.10439 4.39648L6.39606 4.93815C6.54884 4.82704 6.70856 4.72287 6.87523 4.62565C7.04189 4.52843 7.20856 4.4451 7.37523 4.37565L7.56273 3.00065C7.61828 2.63954 7.78162 2.33398 8.05273 2.08398C8.32384 1.83398 8.64662 1.70898 9.02106 1.70898H10.9794C11.3544 1.70898 11.6775 1.83398 11.9486 2.08398C12.2197 2.33398 12.3827 2.63954 12.4377 3.00065L12.6252 4.37565C12.8058 4.4451 12.9761 4.52843 13.1361 4.62565C13.2961 4.72287 13.4522 4.82704 13.6044 4.93815L14.8961 4.39648C15.2433 4.24371 15.5905 4.22982 15.9377 4.35482C16.285 4.47982 16.5558 4.70204 16.7502 5.02148L17.7294 6.72982C17.9238 7.04926 17.9794 7.38954 17.8961 7.75065C17.8127 8.11176 17.6252 8.41037 17.3336 8.64648L16.8127 9.02148C16.7433 9.07704 16.6669 9.11537 16.5836 9.13648C16.5002 9.1576 16.4169 9.16787 16.3336 9.16732H13.1044C13.0211 9.16732 12.9447 9.13954 12.8752 9.08398C12.8058 9.02843 12.7572 8.96593 12.7294 8.89648C12.5072 8.36871 12.1563 7.93482 11.6769 7.59482C11.1974 7.25482 10.6525 7.08454 10.0419 7.08398C9.23634 7.08398 8.54884 7.36871 7.97939 7.93815C7.40995 8.5076 7.12523 9.1951 7.12523 10.0007C7.12523 10.6118 7.28856 11.157 7.61523 11.6365C7.94189 12.1159 8.36884 12.4665 8.89606 12.6882C8.96551 12.7159 9.02801 12.7645 9.08356 12.834C9.13912 12.9034 9.16689 12.9798 9.16689 13.0632V17.6257C9.16689 17.8201 9.09412 17.9868 8.94856 18.1257C8.80301 18.2645 8.61884 18.334 8.39606 18.334ZM15.0002 15.834C14.653 15.834 14.3127 15.8793 13.9794 15.9698C13.6461 16.0604 13.3336 16.2026 13.0419 16.3965C12.8613 16.5076 12.7258 16.6257 12.6352 16.7507C12.5447 16.8757 12.4997 17.0076 12.5002 17.1465C12.5002 17.2437 12.535 17.327 12.6044 17.3965C12.6738 17.4659 12.7572 17.5007 12.8544 17.5007H17.2294C17.2988 17.5007 17.3613 17.4659 17.4169 17.3965C17.4725 17.327 17.5002 17.2437 17.5002 17.1465C17.5002 17.0076 17.4552 16.8757 17.3652 16.7507C17.2752 16.6257 17.1397 16.5076 16.9586 16.3965C16.6669 16.202 16.3544 16.0595 16.0211 15.969C15.6877 15.8784 15.3475 15.8334 15.0002 15.834ZM15.0002 15.0007C15.3475 15.0007 15.6427 14.8793 15.8861 14.6365C16.1294 14.3937 16.2508 14.0984 16.2502 13.7507C16.2497 13.4029 16.1283 13.1079 15.8861 12.8657C15.6438 12.6234 15.3486 12.5018 15.0002 12.5007C14.6519 12.4995 14.3569 12.6212 14.1152 12.8657C13.8736 13.1101 13.7519 13.4051 13.7502 13.7507C13.7486 14.0962 13.8702 14.3915 14.1152 14.6365C14.3602 14.8815 14.6552 15.0029 15.0002 15.0007Z" fill="currentColor"/>
</svg>
