<svg width="40" height="30" viewBox="0 0 40 30" fill="none" xmlns="http://www.w3.org/2000/svg">
  <path d="M11.8887 10.0469H15.6006C16.3617 10.0469 17.0156 10.1608 17.5625 10.3887C18.1139 10.6165 18.5378 10.9538 18.834 11.4004C19.1302 11.847 19.2783 12.3962 19.2783 13.0479C19.2783 13.5811 19.1872 14.0391 19.0049 14.4219C18.8271 14.8001 18.5742 15.1169 18.2461 15.3721C17.9225 15.6227 17.542 15.8232 17.1045 15.9736L16.4551 16.3154H13.2285L13.2148 14.7158H15.6143C15.9743 14.7158 16.2728 14.652 16.5098 14.5244C16.7467 14.3968 16.9245 14.2191 17.043 13.9912C17.166 13.7633 17.2275 13.499 17.2275 13.1982C17.2275 12.8792 17.1683 12.6035 17.0498 12.3711C16.9313 12.1387 16.7513 11.9609 16.5098 11.8379C16.2682 11.7148 15.9652 11.6533 15.6006 11.6533H13.9395V20H11.8887V10.0469ZM17.4531 20L15.1836 15.5635L17.3506 15.5498L19.6475 19.9043V20H17.4531ZM24.7334 16.4521H22.1973V14.8525H24.7334C25.1253 14.8525 25.4443 14.7887 25.6904 14.6611C25.9365 14.529 26.1165 14.3467 26.2305 14.1143C26.3444 13.8818 26.4014 13.6198 26.4014 13.3281C26.4014 13.0319 26.3444 12.7562 26.2305 12.501C26.1165 12.2458 25.9365 12.0407 25.6904 11.8857C25.4443 11.7308 25.1253 11.6533 24.7334 11.6533H22.9082V20H20.8574V10.0469H24.7334C25.5127 10.0469 26.1803 10.1882 26.7363 10.4707C27.2969 10.7487 27.7253 11.1338 28.0215 11.626C28.3177 12.1182 28.4658 12.681 28.4658 13.3145C28.4658 13.957 28.3177 14.513 28.0215 14.9824C27.7253 15.4518 27.2969 15.8141 26.7363 16.0693C26.1803 16.3245 25.5127 16.4521 24.7334 16.4521Z" fill="currentColor"/>
</svg>
