<svg width="20" height="20" viewBox="0 0 20 20" fill="none" xmlns="http://www.w3.org/2000/svg">
  <path d="M4.16667 17.5C3.70833 17.5 3.31611 17.3369 2.99 17.0108C2.66389 16.6847 2.50056 16.2922 2.5 15.8333V4.16667C2.5 3.70833 2.66333 3.31611 2.99 2.99C3.31667 2.66389 3.70889 2.50056 4.16667 2.5H12.6458C12.8681 2.5 13.08 2.54167 13.2817 2.625C13.4833 2.70833 13.6603 2.82639 13.8125 2.97917L17.0208 6.1875C17.1736 6.34028 17.2917 6.5175 17.375 6.71917C17.4583 6.92083 17.5 7.1325 17.5 7.35417V15.8333C17.5 16.2917 17.3369 16.6842 17.0108 17.0108C16.6847 17.3375 16.2922 17.5006 15.8333 17.5H4.16667ZM12.5 4.16667V6.66667C12.5 6.90278 12.58 7.10083 12.74 7.26083C12.9 7.42083 13.0978 7.50056 13.3333 7.5H15.8333L12.5 4.16667ZM13.3333 14.1667C13.5694 14.1667 13.7675 14.0867 13.9275 13.9267C14.0875 13.7667 14.1672 13.5689 14.1667 13.3333C14.1661 13.0978 14.0861 12.9 13.9267 12.74C13.7672 12.58 13.5694 12.5 13.3333 12.5H6.66667C6.43056 12.5 6.23278 12.58 6.07333 12.74C5.91389 12.9 5.83389 13.0978 5.83333 13.3333C5.83278 13.5689 5.91278 13.7669 6.07333 13.9275C6.23389 14.0881 6.43167 14.1678 6.66667 14.1667H13.3333ZM9.16667 7.5C9.40278 7.5 9.60083 7.42 9.76083 7.26C9.92083 7.1 10.0006 6.90222 10 6.66667C9.99944 6.43111 9.91944 6.23333 9.76 6.07333C9.60056 5.91333 9.40278 5.83333 9.16667 5.83333H6.66667C6.43056 5.83333 6.23278 5.91333 6.07333 6.07333C5.91389 6.23333 5.83389 6.43111 5.83333 6.66667C5.83278 6.90222 5.91278 7.10028 6.07333 7.26083C6.23389 7.42139 6.43167 7.50111 6.66667 7.5H9.16667ZM13.3333 10.8333C13.5694 10.8333 13.7675 10.7533 13.9275 10.5933C14.0875 10.4333 14.1672 10.2356 14.1667 10C14.1661 9.76444 14.0861 9.56667 13.9267 9.40667C13.7672 9.24667 13.5694 9.16667 13.3333 9.16667H6.66667C6.43056 9.16667 6.23278 9.24667 6.07333 9.40667C5.91389 9.56667 5.83389 9.76444 5.83333 10C5.83278 10.2356 5.91278 10.4336 6.07333 10.5942C6.23389 10.7547 6.43167 10.8344 6.66667 10.8333H13.3333Z" fill="currentColor"/>
</svg>
