<svg width="21" height="13" viewBox="0 0 21 13" fill="none" xmlns="http://www.w3.org/2000/svg">
<path d="M17.3104 0.818176H20.0567V8.46138C20.0567 9.3447 19.8547 10.1142 19.4507 10.77C19.0468 11.4218 18.4834 11.9271 17.7607 12.2859C17.038 12.6407 16.1985 12.8182 15.2423 12.8182C14.2749 12.8182 13.4299 12.6407 12.7072 12.2859C11.9845 11.9271 11.423 11.4218 11.0227 10.77C10.6224 10.1142 10.4223 9.3447 10.4223 8.46138V0.818176H13.1742V8.21258C13.1742 8.62146 13.2594 8.98597 13.4299 9.30612C13.6041 9.62628 13.8469 9.877 14.1582 10.0583C14.4695 10.2396 14.8309 10.3302 15.2423 10.3302C15.6537 10.3302 16.0132 10.2396 16.3208 10.0583C16.6321 9.877 16.8749 9.62628 17.0491 9.30612C17.2233 8.98597 17.3104 8.62146 17.3104 8.21258V0.818176Z" fill="black"/>
<path d="M0.0567322 12.6677V0.818176H4.76C5.61244 0.818176 6.34814 0.978253 6.96709 1.29841C7.58974 1.6147 8.0697 2.06986 8.40698 2.66389C8.74425 3.25405 8.91288 3.95415 8.91288 4.76418C8.91288 5.58578 8.74054 6.28394 8.39586 6.85868C8.05117 7.42956 7.56194 7.86543 6.92817 8.1663C6.2944 8.46331 5.54388 8.61181 4.67661 8.61181H1.70232V6.3553H4.16514C4.58024 6.3553 4.92678 6.29937 5.20475 6.18751C5.48643 6.07179 5.69954 5.89822 5.84408 5.66678C5.98863 5.43148 6.0609 5.13062 6.0609 4.76418C6.0609 4.39773 5.98863 4.09494 5.84408 3.85579C5.69954 3.61278 5.48643 3.43148 5.20475 3.31191C4.92307 3.18848 4.57654 3.12676 4.16514 3.12676H2.80864V12.6677H0.0567322ZM6.46674 7.25212L9.30204 12.6677H6.29996L3.52025 7.25212H6.46674Z" fill="black"/>
</svg>
