<svg width="20" height="20" viewBox="0 0 20 20" fill="none" xmlns="http://www.w3.org/2000/svg">
  <path d="M2.575 2.445C2.64706 2.2759 2.76723 2.13171 2.92058 2.03037C3.07393 1.92902 3.25369 1.87499 3.4375 1.875H15.3125C15.5611 1.875 15.7996 1.97377 15.9754 2.14959C16.1512 2.3254 16.25 2.56386 16.25 2.8125C16.25 3.06114 16.1512 3.2996 15.9754 3.47541C15.7996 3.65123 15.5611 3.75 15.3125 3.75H5.6375L10.5313 8.85C10.6955 9.02134 10.7886 9.2486 10.7919 9.48593C10.7951 9.72325 10.7082 9.95298 10.5488 10.1287L5.55625 15.625H15.3125C15.5611 15.625 15.7996 15.7238 15.9754 15.8996C16.1512 16.0754 16.25 16.3139 16.25 16.5625C16.25 16.8111 16.1512 17.0496 15.9754 17.2254C15.7996 17.4012 15.5611 17.5 15.3125 17.5H3.4375C3.256 17.4999 3.07842 17.4471 2.92633 17.348C2.77425 17.249 2.65419 17.1079 2.58073 16.9419C2.50727 16.7759 2.48357 16.5922 2.51251 16.413C2.54145 16.2338 2.62178 16.0669 2.74375 15.9325L8.5725 9.51625L2.76 3.46125C2.63302 3.32859 2.5478 3.16157 2.51491 2.9809C2.48203 2.80024 2.50292 2.61389 2.575 2.445Z" fill="white"/>
</svg>
