<svg width="20" height="20" viewBox="0 0 20 20" fill="none" xmlns="http://www.w3.org/2000/svg">
  <path d="M9.58341 1.66663C8.36784 1.66663 7.20205 2.14951 6.34251 3.00905C5.48297 3.86859 5.00008 5.03438 5.00008 6.24996C5.00008 7.46553 5.48297 8.63132 6.34251 9.49087C7.20205 10.3504 8.36784 10.8333 9.58341 10.8333C10.799 10.8333 11.9648 10.3504 12.8243 9.49087C13.6839 8.63132 14.1667 7.46553 14.1667 6.24996C14.1667 5.03438 13.6839 3.86859 12.8243 3.00905C11.9648 2.14951 10.799 1.66663 9.58341 1.66663ZM10.8334 14.7916C10.8335 14.1761 10.9771 13.5692 11.2529 13.0189C11.5286 12.4687 11.9288 11.9903 12.4218 11.6218C12.9148 11.2533 13.4869 11.0048 14.0927 10.8961C14.6985 10.7874 15.3213 10.8215 15.9116 10.9956C16.502 11.1697 17.0435 11.4791 17.4934 11.8992C17.9432 12.3193 18.2889 12.8385 18.503 13.4155C18.717 13.9926 18.7936 14.6116 18.7265 15.2234C18.6595 15.8352 18.4507 16.423 18.1167 16.94L19.5117 18.3325L18.3342 19.5116L16.9384 18.1175C16.3406 18.5033 15.6499 18.7209 14.9389 18.7474C14.2279 18.7738 13.5229 18.6081 12.8981 18.2678C12.2733 17.9274 11.7518 17.4249 11.3885 16.8132C11.0251 16.2015 10.8334 15.5031 10.8334 14.7916ZM14.7917 12.5C14.184 12.5 13.6011 12.7414 13.1713 13.1712C12.7415 13.6009 12.5001 14.1838 12.5001 14.7916C12.5001 15.3994 12.7415 15.9823 13.1713 16.4121C13.6011 16.8418 14.184 17.0833 14.7917 17.0833C15.3995 17.0833 15.9824 16.8418 16.4122 16.4121C16.842 15.9823 17.0834 15.3994 17.0834 14.7916C17.0834 14.1838 16.842 13.6009 16.4122 13.1712C15.9824 12.7414 15.3995 12.5 14.7917 12.5ZM10.6251 11.6666C9.9473 12.5673 9.5816 13.6644 9.58341 14.7916C9.58341 16.1591 10.1109 17.4041 10.9726 18.3333H1.66675V16.6666C1.66675 15.3405 2.19353 14.0688 3.13121 13.1311C4.0689 12.1934 5.34067 11.6666 6.66675 11.6666H10.6251Z" fill="currentColor"/>
</svg>
