<svg width="40" height="30" viewBox="0 0 40 30" fill="none" xmlns="http://www.w3.org/2000/svg">
  <path d="M15.0703 17.3955C15.0703 17.2178 15.043 17.0583 14.9883 16.917C14.9382 16.7712 14.8424 16.639 14.7012 16.5205C14.5599 16.3975 14.3617 16.2767 14.1064 16.1582C13.8512 16.0397 13.5208 15.9167 13.1152 15.7891C12.6641 15.6432 12.2357 15.4792 11.8301 15.2969C11.429 15.1146 11.0736 14.9027 10.7637 14.6611C10.4583 14.415 10.2168 14.1302 10.0391 13.8066C9.86589 13.4831 9.7793 13.1071 9.7793 12.6787C9.7793 12.264 9.87044 11.888 10.0527 11.5508C10.235 11.209 10.4902 10.9173 10.8184 10.6758C11.1465 10.4297 11.5339 10.2406 11.9805 10.1084C12.4316 9.97624 12.9261 9.91016 13.4639 9.91016C14.1976 9.91016 14.8379 10.0423 15.3848 10.3066C15.9316 10.571 16.3555 10.9333 16.6562 11.3936C16.9616 11.8538 17.1143 12.3802 17.1143 12.9727H15.0771C15.0771 12.681 15.0156 12.4258 14.8926 12.207C14.7741 11.9837 14.5918 11.8083 14.3457 11.6807C14.1042 11.5531 13.7988 11.4893 13.4297 11.4893C13.0742 11.4893 12.778 11.5439 12.541 11.6533C12.304 11.7581 12.1263 11.9017 12.0078 12.084C11.8893 12.2617 11.8301 12.4622 11.8301 12.6855C11.8301 12.8542 11.8711 13.0068 11.9531 13.1436C12.0397 13.2803 12.1673 13.4079 12.3359 13.5264C12.5046 13.6449 12.7119 13.7565 12.958 13.8613C13.2041 13.9661 13.4889 14.0687 13.8125 14.1689C14.3548 14.333 14.8311 14.5176 15.2412 14.7227C15.6559 14.9277 16.0023 15.1579 16.2803 15.4131C16.5583 15.6683 16.7679 15.9577 16.9092 16.2812C17.0505 16.6048 17.1211 16.9717 17.1211 17.3818C17.1211 17.8148 17.0368 18.2021 16.8682 18.5439C16.6995 18.8857 16.4557 19.1751 16.1367 19.4121C15.8177 19.6491 15.4372 19.8291 14.9951 19.9521C14.5531 20.0752 14.0586 20.1367 13.5117 20.1367C13.0195 20.1367 12.5342 20.0729 12.0557 19.9453C11.5771 19.8132 11.1419 19.6149 10.75 19.3506C10.3626 19.0863 10.0527 18.749 9.82031 18.3389C9.58789 17.9287 9.47168 17.4434 9.47168 16.8828H11.5293C11.5293 17.1927 11.5771 17.4548 11.6729 17.6689C11.7686 17.8831 11.903 18.0563 12.0762 18.1885C12.2539 18.3206 12.4635 18.4163 12.7051 18.4756C12.9512 18.5348 13.2201 18.5645 13.5117 18.5645C13.8672 18.5645 14.1589 18.5143 14.3867 18.4141C14.6191 18.3138 14.79 18.1748 14.8994 17.9971C15.0133 17.8193 15.0703 17.6188 15.0703 17.3955ZM19.4521 10.0469H21.1885L23.7451 17.3545L26.3018 10.0469H28.0381L24.4424 20H23.0479L19.4521 10.0469ZM18.5156 10.0469H20.2451L20.5596 17.1699V20H18.5156V10.0469ZM27.2451 10.0469H28.9814V20H26.9307V17.1699L27.2451 10.0469Z" fill="currentColor"/>
</svg>
